<svg width="172" height="49" viewBox="0 0 172 49" fill="none" xmlns="http://www.w3.org/2000/svg">
<g opacity="0.7">
<path d="M25.4967 48.4417C25.5573 48.1613 25.3076 47.8231 24.9419 47.6902C24.4969 47.5285 24.3898 47.6671 24.6183 48.1091C24.8062 48.4723 24.6275 48.3606 24.2212 47.8608C23.6136 47.1132 23.3537 47.0591 22.7553 47.5557C22.1569 48.0523 21.9721 48.0139 21.7132 47.339C21.3443 46.3776 21.8423 46.0009 25.1337 44.7522C28.0019 43.664 37.3117 41.6455 37.6949 42.0288C37.8435 42.1773 38.2715 42.0444 38.6462 41.7335C39.0208 41.4225 40.3331 41.009 41.5624 40.8145C42.7917 40.6201 44.2283 40.3917 44.7549 40.307C45.2814 40.2223 45.8353 39.9872 45.9857 39.7845C46.1361 39.5819 47.4286 39.3055 48.8579 39.1705C50.2872 39.0354 51.8398 38.8078 52.308 38.6646C52.7762 38.5215 53.8219 38.3205 54.6317 38.218C55.4415 38.1156 56.4586 37.9209 56.8919 37.7855C58.0769 37.4152 71.357 34.5855 72.9475 34.3644C73.7095 34.2585 74.5712 33.9799 74.8623 33.7454C75.1534 33.5109 76.5764 33.1687 78.0245 32.9849C81.7595 32.511 88.9711 31.3096 90.9494 30.8318C91.8708 30.6092 93.6485 30.2864 94.8997 30.1145C96.9367 29.8346 97.1244 29.7082 96.6948 28.9055C96.431 28.4125 96.215 27.0175 96.215 25.8057V23.6023L93.7307 25.9845C90.666 28.9231 89.167 29.4108 87.9226 27.8741C87.0468 26.7925 87.0363 26.1908 87.8326 22.6804L88.1041 21.4837L87.5987 22.6381C87.3207 23.2731 86.1497 25.1149 84.9964 26.7311C81.2729 31.9491 77.2976 33.6763 75.187 30.9931C74.6413 30.2994 74.1948 29.4504 74.1948 29.1065C74.1948 27.8475 73.1779 27.9126 71.4338 29.2831C69.3557 30.9162 66.8704 32.2544 65.9155 32.2544C64.8652 32.2544 63.6634 30.6293 63.6634 29.2089C63.6634 28.4969 64.2056 26.8444 64.8682 25.5367C65.5309 24.229 65.8399 23.1591 65.5549 23.1591C64.7013 23.1591 58.2373 26.3764 57.132 27.3514C56.5675 27.8494 55.1378 29.7668 53.9548 31.6123C51.6916 35.1432 48.7064 37.9988 47.2786 37.9988C45.7403 37.9988 44.3813 36.1566 44.7094 34.516C45.1339 32.3932 48.4028 28.299 50.9537 26.6951C53.3717 25.1747 54.2693 23.17 53.9968 19.8983C53.8701 18.3764 53.6619 18.1043 52.4652 17.8956C50.1559 17.4929 49.9138 16.4584 51.3697 13.2143C53.4034 8.68249 52.9639 7.46696 50.3627 10.4295C47.5755 13.604 46.0577 16.2593 45.274 19.3319C44.8379 21.0419 43.6469 24.4875 42.6274 26.9887C41.6079 29.4899 40.5395 32.4177 40.2531 33.4948C39.6391 35.8047 38.2453 37.245 37.0102 36.8459C36.5306 36.6909 35.6535 35.8504 35.0611 34.978C33.2322 32.2847 33.7272 28.8911 36.8723 22.5607C37.8861 20.5203 38.5451 18.8508 38.3367 18.8508C38.1284 18.8508 36.7308 20.0895 35.2311 21.6033C31.9534 24.9119 28.1282 30.5839 24.8153 37.0481C22.1529 42.2429 21.5766 42.9543 20.3977 42.5019C19.1984 42.0417 18.9617 40.1826 19.5585 35.9115C20.5289 28.967 20.5095 28.9348 17.4288 32.3782C9.05289 41.7402 4.15161 44.2996 1.2357 40.8343C-0.712857 38.5185 -0.298025 34.7099 2.06494 33.2211C2.7124 32.8131 5.07641 32.4812 8.29853 32.3458L13.4891 32.1278L16.3705 28.5018C17.9553 26.5076 19.8151 23.7275 20.5035 22.3239C21.7132 19.8574 23.1735 18.8046 24.3643 19.5406C25.1016 19.9962 25.5178 22.9392 24.9875 23.9464C24.7302 24.4349 24.3682 26.2348 24.1829 27.9461L23.846 31.0577L25.876 27.7068C28.5144 23.3517 32.1044 18.8241 34.1661 17.2515C36.7337 15.2932 40.2245 13.5851 41.6595 13.5851C42.5309 13.5851 43.2336 13.1816 43.7592 12.3794C45.4849 9.74574 50.8132 4.60161 52.6939 3.75351L54.6861 2.85514L55.8376 4.19381C57.1317 5.69827 57.0674 6.91233 55.4424 11.6595C54.5525 14.259 54.5532 14.2877 55.5134 15.0121C56.6411 15.8627 57.4403 18.3107 57.4403 20.9144C57.4403 23.0482 56.937 23.0983 64.4204 20.2198C67.0747 19.1989 70.4075 17.4972 71.8267 16.4384C74.6186 14.3553 75.7845 14.1916 76.0213 15.8492C76.1343 16.64 75.1608 17.9066 72.1619 20.8707C69.5146 23.4872 67.8899 25.5261 67.382 26.869C66.7634 28.5047 66.7382 28.9035 67.2536 28.9035C68.3955 28.9035 73.2924 24.0047 74.7729 21.3813C77.9411 15.7675 80.6457 17.6234 77.7192 23.403C76.7267 25.3631 76.5265 26.2696 76.7835 27.6394C77.2383 30.0642 78.435 29.91 80.9058 27.1084C83.3197 24.3713 84.8987 21.3741 85.985 17.4668C86.9191 14.107 87.8135 13.5421 90.0924 14.8731C92.2186 16.1149 92.5665 17.8648 91.3846 21.3732C90.8571 22.9391 90.5007 24.446 90.5926 24.7219C90.8248 25.4183 96.6486 19.3319 96.9878 18.0383C97.1395 17.4598 97.7581 16.6624 98.3625 16.2664C99.852 15.2904 105.534 8.19167 107.319 5.07729C108.93 2.26558 110.438 1.10577 111.105 2.16659C111.669 3.06513 111.414 3.71592 107.408 11.5902C105.464 15.4099 103.874 18.8215 103.874 19.1716C103.874 20.6479 106.083 19.7448 108.045 17.466C110.588 14.5133 115.496 11.1916 117.316 11.1916C118.683 11.1916 119.671 12.269 119.671 13.7588C119.671 14.9843 115.749 18.6082 112.417 20.4614C110.665 21.4359 108.977 22.5397 108.666 22.9145C106.977 24.9491 110.78 24.7635 114.895 22.6106C117.265 21.3701 117.628 20.9693 118.41 18.7227C119.816 14.6873 123.477 8.84176 126.813 5.30527C129.865 2.06969 133.095 -0.0969316 134.221 0.335361C135.165 0.697571 135.107 4.3252 134.122 6.55261C132.858 9.41081 129.344 13.9047 124.63 18.6943C122.426 20.9326 120.745 22.9605 120.894 23.2008C121.753 24.591 125.116 22.4165 130.133 17.2266C132.069 15.2238 133.83 13.5851 134.048 13.5851C134.265 13.5851 134.797 13.2312 135.229 12.7987C135.956 12.072 136.075 12.0715 136.795 12.7923C137.224 13.2211 137.575 14.3062 137.575 15.2037V16.8356L140.231 14.5898C143.796 11.5768 145.432 10.7583 146.024 11.6929C146.266 12.0756 146.467 12.9812 146.471 13.7052C146.475 14.4292 146.64 15.0114 146.838 14.999C147.035 14.9861 148.135 13.8032 149.282 12.3695C150.429 10.9357 151.545 9.87235 151.762 10.0064C151.979 10.1405 152.292 10.0314 152.457 9.76374C152.997 8.89078 154.113 9.25168 154.399 10.3916C154.553 11.0045 154.234 13.2484 153.69 15.378C152.611 19.606 152.423 22.2021 153.197 22.2021C154.584 22.2021 155.965 20.6217 156.253 18.7067C156.419 17.5978 157.066 15.5884 157.69 14.2414C159.817 9.64974 164.932 5.52917 166.161 7.41732C167.726 9.82309 166.822 12.8407 163.191 17.3275C161.845 18.9907 160.878 20.4854 161.042 20.649C161.354 20.9615 163.687 19.8592 167.905 17.4059L170.423 15.9415L170.932 17.2767C171.212 18.011 171.318 19.2276 171.168 19.9801C170.673 22.4629 167.52 28.6376 165.961 30.1746C165.119 31.0051 164.119 32.0641 163.738 32.528C162.412 34.1448 162.73 32.3563 164.473 28.3926C166.494 23.7954 167.158 21.7234 166.611 21.7234C166.4 21.7234 165.19 22.1822 163.922 22.743C162.654 23.3038 160.419 23.821 158.954 23.8924C157.49 23.9639 155.367 24.3059 154.237 24.6526C151.903 25.3686 150.982 25.0268 149.844 23.0228C149.255 21.9852 149.234 21.3373 149.717 19.034C150.034 17.5215 150.22 16.2103 150.13 16.1203C149.839 15.8293 148.392 16.5471 148.598 16.8803C148.707 17.0575 148.37 17.7351 147.848 18.3859C147.326 19.0368 145.939 21.0316 144.765 22.8188C142.414 26.4007 141.52 27.0226 140.373 25.8755C139.704 25.2067 139.691 24.9407 140.269 23.7756C140.633 23.0418 140.941 22.2261 140.952 21.9628C140.964 21.6995 141.182 21.3346 141.437 21.152C142.027 20.7287 143.115 15.979 142.621 15.979C142.034 15.979 138.453 20.1953 135.612 24.2302C132.586 28.5277 132.274 28.7869 131.3 27.8127C130.651 27.1642 130.735 26.6687 132.09 23.1552C132.924 20.9927 133.488 19.1046 133.343 18.9595C133.198 18.8144 131.69 20.0296 129.992 21.66C126.869 24.6589 122.159 27.3113 120.849 26.8087C120.422 26.6447 120.15 26.8285 120.15 27.2815C120.15 27.8559 119.827 27.9516 118.714 27.7072C117.924 27.5337 117.278 27.5785 117.278 27.8066C117.278 28.0348 116.611 28.2724 115.797 28.3344C114.259 28.4516 112.772 29.5045 113.341 30.0735C113.521 30.2529 113.08 30.1762 112.361 29.903C111.123 29.4321 110.843 29.5604 111.018 30.5184C111.06 30.7482 110.765 30.8098 110.362 30.6553C109.96 30.5009 109.681 30.5283 109.744 30.7162C109.865 31.0776 109.455 31.2974 108.661 31.2974C108.398 31.2974 108.236 31.055 108.302 30.7588C108.368 30.4627 108.175 30.129 107.873 30.0173C107.571 29.9056 107.355 30.1871 107.394 30.6426C107.444 31.2277 106.867 31.6473 105.43 32.0718C103.606 32.6106 103.392 32.5892 103.358 31.8654C103.336 31.3935 103.12 31.6051 102.839 32.3745C102.342 33.7355 101.755 34.0433 101.241 33.2122C100.849 32.5779 99.0873 32.5951 99.0873 33.2331C99.0873 33.508 98.818 33.6811 98.4889 33.618C97.6295 33.453 95.5585 34.2053 95.1453 34.8324C94.8982 35.2076 94.7915 35.1884 94.7863 34.7679C94.776 33.9154 93.5006 34.0256 93.1619 34.9082C92.9424 35.48 92.6676 35.5341 91.9454 35.1476C90.6505 34.4546 90.2504 34.5241 90.9162 35.3263C91.3635 35.8653 91.3019 36.0409 90.6158 36.1825C89.1875 36.4773 87.5788 36.0264 87.9353 35.4312C88.1144 35.1322 87.8863 35.1917 87.4284 35.5634C86.7723 36.0959 86.7274 36.3245 87.2168 36.6418C87.648 36.9213 87.5452 37.0032 86.8804 36.9096C86.3539 36.8354 85.6522 36.6057 85.3213 36.3992C84.9531 36.1694 84.6081 36.3141 84.4324 36.772C84.2744 37.1837 83.9595 37.5204 83.7327 37.5204C83.5058 37.5204 83.4442 37.1973 83.5958 36.8024C83.7747 36.3362 83.5829 36.0843 83.0508 36.0843C82.5912 36.0843 82.3313 36.3475 82.4599 36.6827C82.6 37.0482 82.2485 37.3079 81.5568 37.3499C80.8182 37.3948 80.5416 37.2284 80.7617 36.8712C80.9472 36.5701 80.5005 36.7151 79.7691 37.1934C78.6507 37.9248 78.3109 37.9629 77.6334 37.4328C76.9277 36.8806 76.9015 36.8969 77.422 37.5645C78.1481 38.4958 77.7573 38.9565 76.241 38.9565C75.4973 38.9565 75.2155 38.7628 75.4373 38.4039C75.6507 38.0587 75.5685 37.9813 75.2185 38.1976C74.9102 38.3881 74.7819 38.7445 74.9334 38.9896C75.3454 39.6563 73.528 39.5271 72.7843 38.8369C72.2686 38.3582 72.2072 38.3582 72.4775 38.8369C72.7154 39.2583 72.3469 39.4562 71.2313 39.5061C68.3023 39.6372 68.0595 39.6734 67.6959 40.0336C67.4966 40.2311 66.8309 40.3926 66.2166 40.3926C65.6022 40.3926 65.0928 40.6619 65.0844 40.991C65.0754 41.3287 64.7349 41.1722 64.3019 40.632C63.6708 39.8444 63.5863 39.8242 63.8257 40.5182C64.0672 41.2183 63.9153 41.3113 62.9327 41.0647C62.2529 40.8941 61.7487 40.9754 61.7487 41.2558C61.7487 41.5243 61.3717 41.6822 60.911 41.6067C60.4502 41.5311 59.6963 41.7991 59.2355 42.202C58.7748 42.6049 58.3978 42.7988 58.3978 42.6328C58.3978 42.4669 57.8331 42.5458 57.1428 42.8083C56.263 43.1428 55.6906 43.1217 55.228 42.7379C54.7275 42.3225 54.5682 42.3341 54.5682 42.7862C54.5682 43.2376 54.3718 43.2227 53.7583 42.7251C53.3008 42.3541 53.0955 42.3135 53.2865 42.6321C53.7329 43.3764 52.4644 43.7189 49.7812 43.5785C47.6911 43.4692 46.0994 43.9577 45.3445 44.9404C45.1172 45.2361 44.7881 45.099 44.483 44.5813C43.7731 43.3768 42.9375 43.5432 41.4794 45.1797C39.969 46.8749 39.6842 46.9252 38.7711 45.6584C38.3916 45.1318 37.8701 44.701 37.6123 44.701C37.3545 44.701 37.4021 44.9595 37.718 45.2755C38.7128 46.2703 38.3725 46.4351 35.2823 46.4546C33.6267 46.4649 31.8495 46.6981 31.333 46.9725C29.5427 47.9235 25.3825 48.9711 25.4968 48.4421L25.4967 48.4417ZM46.2786 42.696C46.1258 42.3142 46.0124 42.4276 45.9894 42.9852C45.9686 43.4899 46.0818 43.7726 46.2408 43.6135C46.3999 43.4545 46.4169 43.0416 46.2786 42.696H46.2786ZM6.99047 37.7107C8.01453 37.0257 9.46123 35.8947 10.2054 35.1975L11.5583 33.9299L9.96602 33.6765C7.82887 33.3364 4.20473 34.0809 3.47733 35.0094C2.96089 35.6687 3.06484 37.4986 3.68113 38.5972C4.04927 39.2534 5.10842 38.9697 6.99047 37.7107ZM71.8014 38.2099C71.8014 37.7994 71.586 37.5967 71.3227 37.7594C71.0594 37.9222 70.844 38.258 70.844 38.5057C70.844 38.7535 71.0594 38.9562 71.3227 38.9562C71.586 38.9562 71.8014 38.6204 71.8014 38.2099ZM106.617 30.0504C106.458 29.8913 106.045 29.8743 105.699 30.0126C105.317 30.1654 105.431 30.2789 105.989 30.3018C106.493 30.3227 106.776 30.2094 106.617 30.0504V30.0504ZM109.858 29.3822C110.021 29.1189 109.926 28.9035 109.647 28.9035C109.368 28.9035 109.14 29.1189 109.14 29.3822C109.14 29.6455 109.235 29.8609 109.351 29.8609C109.467 29.8609 109.695 29.6455 109.858 29.3822ZM103.706 28.7676C104.798 28.7107 105.608 28.5271 105.506 28.3596C105.404 28.192 105.756 27.9412 106.288 27.8021C107.223 27.5576 107.215 27.5055 106.043 26.2416C105.377 25.5225 104.832 24.5347 104.832 24.0466C104.832 23.3958 104.481 23.1611 103.515 23.1664C101.729 23.1767 101.444 23.453 99.919 26.6525L98.5966 29.4278L100.158 29.1494C101.017 28.9963 102.614 28.8245 103.706 28.7676ZM125.053 14.4229C130.373 8.27742 131.389 6.32413 128.324 8.13509C127.04 8.89333 123.828 13.1447 122.126 16.3377C121.059 18.3412 122.447 17.4329 125.053 14.4229ZM42.2018 45.0197C42.5297 44.6687 43.0562 44.3815 43.3718 44.3815C43.6873 44.3815 43.8353 44.6687 43.7006 45.0197C43.5659 45.3708 43.0394 45.658 42.5306 45.658C41.7808 45.658 41.7185 45.537 42.2018 45.0197Z" fill="white"/>
</g>
</svg>
