<svg width="169" height="74" viewBox="0 0 169 74" fill="none" xmlns="http://www.w3.org/2000/svg">
<path opacity="0.7" d="M115.788 72.9703C115.259 72.6498 114.826 71.944 114.826 71.4019C114.826 70.8597 117.732 67.4616 121.283 63.8506C129.217 55.7823 131.311 53.4299 131.311 52.5839C131.311 52.2231 131.471 52.0885 131.668 52.2847C131.864 52.481 133.125 51.224 134.47 49.4915C136.727 46.5837 143.604 38.7503 145.65 36.7559C146.133 36.2858 149.942 32.6867 154.114 28.7578C166.112 17.462 166.268 17.2637 163.89 16.3335C163.047 16.0035 161.435 15.6031 160.308 15.4437C158.533 15.1925 158.045 15.3836 156.653 16.873C154.697 18.9679 153.29 19.1259 153.29 17.2509C153.29 16.5132 153.538 15.7568 153.84 15.57C154.142 15.3833 154.389 14.9993 154.389 14.7167C154.389 13.3678 144.91 16.1549 142.032 18.3501C139.889 19.9843 139.004 20.0497 139.004 18.5737C139.004 17.8765 139.736 17.0242 140.95 16.3076C143.344 14.8953 143.007 14.3591 140.243 15.1837C139.108 15.5223 137.009 15.9477 135.579 16.1291C134.018 16.327 132.778 16.8165 132.477 17.353C132.114 18.0019 131.019 18.2911 128.484 18.4073C126.563 18.4954 122.952 18.6678 120.458 18.7905C116.878 18.9666 115.925 18.8553 115.925 18.2607C115.925 17.8467 116.791 17.1464 117.848 16.7044C120.04 15.7887 120.387 14.7458 118.501 14.7458C117.802 14.7458 116.511 15.4959 115.633 16.4126C113.374 18.7698 109.361 21.0396 108.671 20.3496C108.196 19.8743 109.693 17.0029 111.02 15.8448C111.193 15.6936 111.498 15.128 111.697 14.5876C112.224 13.1608 110.855 12.8519 107.871 13.7244C105.803 14.3289 104.993 14.9609 103.615 17.0432C101.729 19.894 98.8895 21.668 97.8603 20.6388C96.7914 19.5698 97.1594 18.8686 100.251 16.0829C102.155 14.3682 103.265 12.9239 103.274 12.1524C103.293 10.3181 105.352 7.00464 107.748 4.94955C110.385 2.68863 110.434 2.03582 107.957 2.20263C106.762 2.28321 106.034 2.61599 106.034 3.08246C106.034 4.1668 103.051 8.33953 101.106 9.97641C100.19 10.7472 99.4404 11.5343 99.4404 11.7255C99.4404 12.3878 90.9165 20.5571 89.4646 21.2862C86.6176 22.716 85.9413 20.6636 88.1759 17.3752C88.9314 16.2633 89.5496 15.0932 89.5496 14.775C89.5496 14.4567 89.7969 14.1963 90.0991 14.1963C90.4013 14.1963 90.6486 13.9199 90.6486 13.582C90.6486 12.9049 92.9112 10.0982 96.0227 6.91557C98.1885 4.70022 98.0357 4.2332 95.6788 5.86456C94.8766 6.41981 93.8021 7.02462 93.291 7.20861C92.7799 7.39261 88.2726 10.2764 83.2748 13.6172C78.277 16.9579 74.013 19.6912 73.7992 19.6912C73.5854 19.6912 72.8909 20.1793 72.2559 20.7759C70.74 22.2 68.502 22.4643 68.2481 21.2493C68.1366 20.7157 68.5007 20.1938 69.1219 19.9966C71.7348 19.1673 72.5162 17.8098 72.498 14.1319L72.4805 10.6247L71.2753 12.2426C69.0336 15.2519 66.2116 17.8048 62.4927 20.1876C58.6767 22.6326 57.1296 22.8046 57.1296 20.784C57.1296 19.5183 61.3526 13.4651 64.6851 9.95407C66.6791 7.85323 66.4664 7.86548 61.1573 10.1574C60.1992 10.571 58.6486 11.0627 57.7116 11.2501C56.7745 11.4374 55.8747 11.8062 55.712 12.0694C55.5494 12.3326 54.933 12.5479 54.3423 12.5479C53.7516 12.5479 52.8389 12.7743 52.3141 13.051C51.2649 13.6042 44.6254 15.5699 42.0187 16.0992C41.045 16.2969 38.8252 17.8878 36.5958 19.9858C34.5199 21.9394 32.3699 23.5377 31.818 23.5377C30.8875 23.5377 30.9122 23.3171 32.1581 20.4998C32.897 18.829 33.5016 17.3919 33.5016 17.3063C33.5016 17.2207 32.7496 16.5945 31.8305 15.915L30.1593 14.6795L27.5719 16.2541C20.9544 20.2814 7.28333 26.3405 3.97203 26.7137C1.50766 26.9915 0.0423359 26.0336 0.000168267 24.1172C-0.0248781 22.9793 2.75275 20.2407 3.93192 20.2407C5.37134 20.2407 5.15982 21.7799 3.69175 21.9884C2.78819 22.1167 2.40647 22.5927 2.27363 23.7569L2.09187 25.3498L4.84176 25.0241C6.35419 24.8449 8.04324 24.455 8.5952 24.1574C9.14716 23.8599 10.8351 23.0641 12.3462 22.389C14.6721 21.3499 20.7538 18.0934 24.0603 16.1166C24.5686 15.8127 26.0354 14.9635 27.3198 14.2295C28.6042 13.4956 29.6551 12.5897 29.6551 12.2165C29.6551 11.8433 30.0856 10.788 30.6117 9.87136C31.6353 8.08782 33.2871 7.38982 35.293 7.89326C36.1704 8.11349 37.9041 7.39444 41.2 5.4434C43.7658 3.92454 46.1124 2.48907 46.4146 2.25346C47.3343 1.53646 49.9892 0.459127 50.8364 0.459127C52.2686 0.459127 51.6897 2.90697 49.7929 4.87105C46.9073 7.85896 42.164 13.7007 42.4176 13.9542C42.8675 14.4042 60.2112 8.63442 63.3039 7.00595C63.8287 6.72961 64.6357 6.50351 65.0972 6.50351C65.5588 6.50351 66.3658 6.28511 66.8905 6.01816C67.4153 5.75118 68.5865 5.19521 69.4932 4.78267C70.3998 4.37011 71.2653 3.90814 71.4164 3.75605C72.393 2.77326 74.8284 2.05509 76.6736 2.20583C78.6274 2.36533 78.8494 2.54031 78.9896 4.03083C79.0962 5.16249 78.7324 6.11978 77.8294 7.08435C75.7859 9.26712 75.1958 10.7296 75.0878 13.8794L74.9881 16.7911L76.3618 15.9304C77.1173 15.457 79.2505 14.0077 81.1022 12.7098C82.9539 11.4119 84.6615 10.3499 84.8968 10.3499C85.1321 10.3499 86.1351 9.73177 87.1257 8.97622C88.1162 8.22066 89.1127 7.60251 89.3401 7.60251C89.5674 7.60251 90.2639 7.12719 90.8879 6.54626C92.2053 5.31961 100.79 0.895751 102.114 0.761256C102.608 0.710998 104.429 0.47105 106.162 0.227793C112.929 -0.722577 113.946 1.30263 109.194 6.26933C107.607 7.92764 106.157 9.85087 105.971 10.5431C105.644 11.7598 105.73 11.7938 108.555 11.5595C112.449 11.2366 114.277 11.7312 114.277 13.1079C114.277 14.4754 114.503 14.4682 116.435 13.0395C117.865 11.9824 118.176 11.9463 120.04 12.6203C122.003 13.3303 122.068 13.4377 121.792 15.497L121.505 17.6362L124.213 17.3155C125.846 17.1222 127.629 16.4577 128.704 15.6418C130.093 14.5873 131.335 14.2359 134.333 14.0487C136.449 13.9166 139.652 13.4219 141.452 12.9494C144.584 12.1271 144.764 12.136 145.651 13.1587C146.623 14.2793 146.407 14.3063 150.818 12.514C151.422 12.2684 152.473 11.9116 153.153 11.7211C153.833 11.5307 154.389 11.1442 154.389 10.8624C154.389 10.5805 154.859 10.3499 155.433 10.3499C156.798 10.3499 161.215 7.31606 164.078 4.41121C166.296 2.16108 167.73 1.57092 168.389 2.63703C168.569 2.92822 168.257 3.60821 167.696 4.14812C167.134 4.68803 164.897 6.80401 162.725 8.85029C158.788 12.5581 158.779 12.5727 160.189 13.1088C160.967 13.4048 162.219 13.6468 162.97 13.6468C163.72 13.6468 165.064 14.0241 165.956 14.4852C167.212 15.1345 167.577 15.7001 167.577 16.993C167.577 18.7881 165.839 20.6405 151.026 34.6343C147.285 38.1687 142.701 42.8668 140.84 45.0747C138.978 47.2825 136.938 49.635 136.306 50.3023C135.674 50.9697 135.157 51.6602 135.157 51.8368C135.157 52.5481 122.534 65.606 118.81 68.7466C116.68 70.5427 116.543 71.3433 118.365 71.3433C119.606 71.3433 120.737 72.2095 120.199 72.7478C119.603 73.3429 116.649 73.492 115.788 72.9704L115.788 72.9703ZM62.6246 17.9106C62.6246 17.681 62.9736 17.4933 63.4001 17.4933C64.4601 17.4933 70.8143 10.4762 71.2207 8.85685C71.8667 6.28301 70.7317 6.86833 66.5733 11.2534C61.766 16.3228 59.773 18.8544 60.2297 19.3112C60.6065 19.6879 62.6246 18.5076 62.6246 17.9106ZM101.226 6.95309C102.36 5.65438 103.287 4.39636 103.287 4.15747C103.287 3.55052 100.172 5.77733 97.3335 8.41291C95.1652 10.4266 90.0742 17.5227 90.1168 18.472C90.1347 18.8701 97.406 11.3308 101.226 6.95309ZM36.7986 17.4933C36.7986 17.191 36.5659 16.9438 36.2815 16.9438C35.9971 16.9438 35.6116 17.191 35.4248 17.4933C35.238 17.7955 35.4707 18.0428 35.9419 18.0428C36.4131 18.0428 36.7986 17.7955 36.7986 17.4933ZM34.0511 13.3048C34.0511 12.081 33.9258 11.9678 33.2201 12.5535C32.588 13.0781 32.5383 13.423 33.0126 13.9945C33.8903 15.052 34.0511 14.9451 34.0511 13.3048H34.0511ZM40.9815 12.4105C45.2936 7.86179 47.9411 4.30552 47.0153 4.30552C46.5338 4.30552 46.1399 4.50654 46.1399 4.75244C46.1399 4.99825 45.2744 5.53893 44.2167 5.95398C43.1589 6.36901 42.2934 6.84934 42.2934 7.02139C42.2934 7.19335 41.6135 7.64415 40.7824 8.023C38.1373 9.22876 36.9465 10.5651 36.6278 12.6852C36.3487 14.5426 36.4389 14.7458 37.5429 14.7458C38.2702 14.7458 39.6669 13.7973 40.9815 12.4105ZM75.7341 6.36931C77.4462 3.66528 76.5503 3.28242 73.124 5.25383C73.0053 5.32216 73.2121 5.74398 73.5834 6.19137C73.9547 6.63878 74.099 7.2629 73.904 7.57836C73.709 7.89381 73.7871 8.15191 74.0775 8.15191C74.3679 8.15191 75.1133 7.34975 75.7341 6.36931Z" fill="white"/>
</svg>
