<svg width="261" height="62" viewBox="0 0 261 62" fill="none" xmlns="http://www.w3.org/2000/svg">
<path opacity="0.7" d="M110.568 60.7631C110.269 60.4635 110.038 59.5739 110.057 58.7863C110.083 57.6382 110.16 57.5339 110.444 58.2603C110.783 59.1258 110.98 56.1276 111.123 47.8864C111.156 46.0362 111.294 44.5914 111.43 44.6756C111.721 44.8554 112.061 40.482 112.006 37.2818C111.984 36.0552 112.14 35.0516 112.352 35.0516C112.563 35.0516 112.878 34.2971 113.051 33.3749C113.224 32.4527 113.491 31.3434 113.645 30.9098C113.826 30.4007 113.433 30.5789 112.535 31.4127C111.771 32.1229 110.893 32.7039 110.585 32.7039C110.276 32.7039 110.024 32.8831 110.024 33.1021C110.024 34.0635 106.385 35.1222 103.799 34.9132L101.178 34.7013L99.4015 38.3979C97.6025 42.1417 96.4072 43.1249 96.4072 40.8609V39.6273L94.3466 41.4478C89.6999 45.5532 84.1225 48.744 83.4618 47.6751C83.088 47.0701 83.5047 46.6472 84.6464 46.4729C86.0248 46.2626 93.5473 41.625 92.5101 41.625C92.363 41.625 93.3909 40.4582 94.7944 39.0321C96.1979 37.606 97.3462 36.151 97.3462 35.7989C97.3462 34.752 100.599 25.038 101.126 24.5111C101.936 23.7003 102.57 25.2416 102.274 27.3043C102.126 28.3373 101.158 30.8468 100.122 32.881C99.0867 34.9152 98.3035 36.9121 98.3817 37.3186C98.4659 37.7557 99.003 37.1462 99.6959 35.8272L100.868 33.5968L103.04 33.8907C106.2 34.3184 110.553 32.0167 113.683 28.263C114.078 27.7898 114.183 26.9586 113.983 25.8933C113.786 24.8414 113.857 24.2524 114.182 24.2524C114.461 24.2524 114.567 23.9331 114.417 23.5427C114.125 22.7811 115.009 19.7486 116.942 14.8841C118.711 10.4324 120.394 9.04938 122.226 10.5422C123.159 11.3034 123.18 11.5143 122.66 15.0966C121.978 19.7985 120.119 23.6806 116.859 27.2115C114.437 29.8344 114.381 29.9612 113.617 34.5577C112.5 41.2879 112.679 41.9686 114.303 37.1645C115.902 32.4364 118.661 28.558 120.046 29.0899C121.161 29.5176 121.01 31.4266 119.649 34.1125C117.875 37.6134 118.181 39.0106 120.24 36.8123C121.388 35.5864 122.172 33.7114 122.644 31.0606C122.938 29.4032 123.113 29.202 124.13 29.3489C127.028 29.767 129.293 29.5408 132.458 28.5174C134.339 27.9094 136.009 27.5434 136.169 27.7042C136.33 27.8649 135.736 28.6859 134.849 29.5285C132.197 32.0476 130.953 35.5257 132.706 35.5189C133.827 35.5142 136.204 32.752 136.515 31.0909C136.742 29.8805 137.072 29.4172 137.708 29.4172C138.191 29.4172 138.664 29.6509 138.76 29.9365C138.986 30.6148 143.543 30.5554 146.484 29.8359C147.736 29.5296 149.594 28.6762 150.613 27.9395C152.441 26.6179 154.329 26.2048 154.831 27.0163C155.159 27.5469 154.358 28.1547 152.281 28.9509C149.92 29.8564 148.055 31.243 148.055 32.0934C148.055 33.2095 151.494 32.5886 153.607 31.0909C156.443 29.0808 156.684 28.8101 158.134 26.0058C159.556 23.2552 160.393 22.6906 160.94 24.1142C161.135 24.6245 160.707 25.6804 159.76 27.0247C158.654 28.5937 158.391 29.321 158.732 29.8627C159.244 30.674 159.664 30.7109 162.376 30.1833C164.005 29.8665 169.495 27.5615 172.183 26.0657C175.681 24.1195 176.606 23.5706 177.708 22.7888C178.394 22.3025 179.191 21.9047 179.481 21.9047C179.77 21.9047 180.134 21.2709 180.289 20.4961C180.458 19.6497 180.875 19.0727 181.333 19.0505C181.753 19.0301 181.857 18.915 181.564 18.7948C181.19 18.6411 181.158 18.0122 181.458 16.6772C182.785 10.7749 186.37 8.83352 185.678 14.3922C185.63 14.7796 185.57 15.5784 185.545 16.1675C185.521 16.7565 184.573 18.27 183.439 19.5308C181.695 21.4708 181.348 22.1901 181.178 24.2115C180.955 26.8561 181.611 27.4733 182.094 25.074C182.615 22.4863 182.846 21.9047 183.353 21.9047C183.641 21.9047 183.719 22.3909 183.544 23.0882C182.748 26.26 185.599 26.9583 191.465 25.0282C194.309 24.0926 194.777 23.7761 195.088 22.5772C195.628 20.4995 197.832 18.2179 199.457 18.0543C200.761 17.9231 200.863 18.03 200.99 19.6555C201.102 21.0969 200.902 21.5628 199.828 22.3568C199.114 22.8846 198.419 23.2628 198.284 23.1974C197.842 22.9841 196.509 24.476 196.765 24.8976C197.051 25.3682 202.935 24.8642 203.674 24.3058C203.944 24.1023 205.538 23.4576 207.216 22.8731C208.895 22.2886 210.8 21.6151 211.45 21.3764C212.1 21.1377 212.915 20.3021 213.261 19.5195C213.796 18.3118 214.114 18.1182 215.363 18.2399C217.481 18.4463 217.501 19.6878 215.406 20.9824C214.014 21.8427 213.825 22.1221 214.414 22.4515C214.898 22.7225 217.228 22.1595 221.391 20.7658C229.062 18.1973 233.325 16.9726 237.126 16.2451C239.632 15.7653 240.139 15.789 240.765 16.415C241.613 17.2639 241.732 18.618 240.957 18.618C240.662 18.618 240.159 18.259 239.838 17.8203C239.186 16.9282 238.647 17.0143 230.458 19.3179C228.134 19.9717 225.041 20.8274 223.585 21.2194C222.129 21.6114 219.91 22.4533 218.655 23.0903C215.605 24.6374 213.346 24.5991 212.804 22.991C212.667 22.5858 212.04 22.6624 210.503 23.2723C202.351 26.5066 197.164 27.4213 195.502 25.9178C194.728 25.2168 194.427 25.1689 193.843 25.6536C193.451 25.9791 193.13 26.088 193.13 25.8957C193.13 25.7033 192.816 25.8067 192.432 26.1255C192.048 26.4442 191.43 26.5883 191.058 26.4456C190.686 26.303 190.129 26.4906 189.82 26.8626C189.167 27.6506 183.27 27.8368 183.27 27.0695C183.27 25.9719 182.361 26.7294 181.862 28.2433C181.474 29.4164 181.042 29.8867 180.349 29.8867C179.431 29.8867 179.393 29.6964 179.642 26.3957L179.906 22.9047L177.301 24.5715C175.283 25.862 165.766 30.6908 164.489 31.0716C164.36 31.1101 163.882 31.3054 163.427 31.5056C162.972 31.7059 161.973 31.7778 161.208 31.6655C160.443 31.5531 159.759 31.6095 159.688 31.7907C159.451 32.3956 157.446 31.3361 157.446 30.6061C157.446 29.5158 156.867 29.7231 154.677 31.5979C152.517 33.4471 149.836 34.5914 148.49 34.2394C148.027 34.1184 147.311 33.3084 146.899 32.4395C146.224 31.0163 146.031 30.9045 144.959 31.3122C143.105 32.0169 139.303 31.8668 138.494 31.0569C137.663 30.2264 137.314 30.6449 137.067 32.7654C136.764 35.3669 132.993 37.7929 131.36 36.4373C130.964 36.1088 130.739 35.5828 130.86 35.2682C130.98 34.9537 130.863 34.48 130.598 34.2156C130.146 33.7631 131.505 31.2781 132.796 30.1981C133.056 29.9802 132.743 29.9379 132.091 30.1032C127.973 31.1485 124.109 31.2445 124.109 30.3015C124.109 30.0734 123.927 29.8867 123.705 29.8867C123.483 29.8867 123.395 30.3791 123.51 30.981C124.038 33.7429 121.003 39.2773 118.96 39.2773C117.835 39.2773 117.247 35.3356 118.161 33.9156C118.506 33.3783 119.032 32.1991 119.33 31.2953L119.87 29.6519L118.888 30.8213C117.486 32.492 115.674 36.2177 114.909 39.0005C112.821 46.6038 112.475 48.675 112.053 56.0736C111.773 60.9835 111.536 61.7309 110.568 60.763L110.568 60.7631ZM117.147 24.8153C117.972 23.6019 118.8 22.5033 118.987 22.374C119.597 21.9502 121.185 16.5582 121.441 14.0401C121.662 11.8616 121.589 11.5751 120.819 11.5751C120.339 11.5751 119.813 11.9977 119.649 12.5141C119.485 13.0306 119.154 13.4532 118.913 13.4532C118.672 13.4532 118.475 13.7443 118.475 14.1C118.475 14.4557 118.158 15.0098 117.771 15.3313C117.383 15.6528 117.066 16.4238 117.066 17.0446C117.066 17.9809 115.887 23.2048 114.869 26.7762C114.48 28.1405 115.456 27.3006 117.147 24.8153ZM159.529 25.2393C159.234 24.9446 158.396 26.1371 158.407 26.8348C158.412 27.093 158.723 26.8972 159.099 26.3995C159.476 25.9019 159.669 25.3798 159.529 25.2393ZM198.12 22.0575C199.294 21.2881 200.44 19.1982 199.955 18.7125C199.637 18.3944 196.417 21.7057 196.417 22.351C196.417 23.0258 196.722 22.9732 198.12 22.0575ZM215.198 19.5571C215.198 19.2988 215.105 19.0875 214.991 19.0875C214.877 19.0875 214.654 19.2988 214.494 19.5571C214.334 19.8153 214.427 20.0266 214.701 20.0266C214.974 20.0266 215.198 19.8153 215.198 19.5571ZM184.355 15.0966L184.645 13.2184L183.733 14.3923C183.232 15.0379 182.817 16.0539 182.811 16.6502C182.805 17.2515 182.592 17.6051 182.331 17.4442C181.789 17.1092 181.748 17.3074 182.146 18.3445C182.585 19.4871 183.999 17.4083 184.355 15.0966ZM3.1314 57.7221C0.923642 55.776 -0.0104864 53.5653 8.87268e-05 50.3113C0.0120853 46.6203 1.95018 40.1838 4.64173 34.8961C5.01387 34.1651 5.31836 33.2671 5.31836 32.9006C5.31836 32.5342 5.40672 32.2344 5.51472 32.2344C5.62273 32.2344 6.06622 32.0981 6.50028 31.9315C7.16168 31.6777 7.20704 31.7728 6.78045 32.5185C6.50049 33.0078 5.51828 35.3098 4.59776 37.634C3.67723 39.9582 2.75152 42.2823 2.54061 42.7988C0.823866 47.0029 0.733407 51.0495 2.2865 54.1662C4.45714 58.522 7.63122 59.006 13.6056 55.8919C17.0369 54.1034 18.0513 53.2885 23.1825 48.1984C27.3113 44.1027 30.1123 40.2709 29.3306 39.7878C29.0437 39.6105 28.682 38.8302 28.5267 38.0539C28.174 36.2907 29.1995 35.2852 30.912 35.715C31.8064 35.9395 32.1685 35.8067 32.3692 35.1805C32.5161 34.7222 32.8283 33.9247 33.0631 33.4082C33.2978 32.8917 34.132 30.5676 34.9168 28.2434C35.7016 25.9192 36.4481 23.7182 36.5757 23.3522C36.7158 22.9501 36.9761 22.8572 37.2332 23.1174C37.6371 23.5262 36.1273 31.0894 34.6634 35.9906C34.3163 37.1527 33.8868 38.8958 33.709 39.8643L33.3856 41.625H35.3017C38.2625 41.625 42.0747 39.2735 42.617 37.1127C42.9663 35.721 45.6675 29.7486 46.0976 29.4172C46.2651 29.2881 46.7569 28.5486 47.1903 27.7739C48.2434 25.8917 49.771 25.6678 50.3932 27.3044C50.8776 28.5784 50.578 30.8258 49.9237 30.8258C49.7215 30.8258 49.4158 31.3845 49.2444 32.0673C49.073 32.7501 47.6532 34.6412 46.0893 36.2699C43.3242 39.1495 43.2392 39.3142 43.0037 42.248C42.7668 45.1994 42.7982 45.3044 44.4518 47.0838C45.3814 48.0842 46.1478 48.6386 46.1548 48.3158C46.1618 47.993 46.7267 47.7289 47.4103 47.7289C50.331 47.7289 55.1459 41.9681 56.9862 36.2718C58.3677 31.9955 60.3426 28.2841 61.3386 28.0924C62.7292 27.8247 61.8874 30.8562 59.0091 36.481C56.3688 41.6409 55.6212 44.7109 56.2233 47.9207C56.6484 50.1864 57.8435 50.1198 59.1937 47.7552C60.1808 46.0264 60.2145 44.4422 59.2641 44.4422C58.6601 44.4422 58.7605 42.6118 59.4773 40.5535C60.4007 37.9018 60.9593 37.5461 61.9133 39.002C62.6038 40.0558 62.648 40.5936 62.2163 42.6911C61.7503 44.9557 61.7891 45.2128 62.7169 46L63.7228 46.8536L62.5175 46.5511C61.4915 46.2935 61.2656 46.4344 60.9985 47.4987C60.5873 49.137 58.6779 51.0156 57.424 51.0156C55.7195 51.0156 54.9251 49.7498 54.9848 47.1291C55.0147 45.8163 54.9484 44.5954 54.8376 44.416C54.7267 44.2366 53.6059 45.1199 52.3469 46.3789C50.4944 48.2314 49.7496 48.6679 48.4413 48.6679C47.5522 48.6679 46.5718 48.9209 46.2626 49.2301C45.8261 49.6666 45.4116 49.5805 44.408 48.8446C42.4216 47.3881 41.3763 45.0331 41.6725 42.6814C41.8107 41.5839 41.8618 40.6859 41.7861 40.6859C41.7105 40.6859 40.8165 41.0796 39.7996 41.5606C37.682 42.5625 34.7112 43.3423 35.8231 42.6045C36.327 42.2702 36.0556 42.1715 34.8154 42.2381C33.4775 42.31 33.1932 42.4785 33.4727 43.0336C34.2254 44.5282 34.4077 46.9873 33.8932 48.7046C33.3167 50.6288 32.6236 51.1712 31.5719 50.5212C30.778 50.0306 30.6944 43.7634 31.4714 42.9864C31.8165 42.6413 31.9124 42.8921 31.7904 43.8197L31.6158 45.1465L32.0642 43.7755C32.4234 42.6771 32.353 42.2834 31.7101 41.795C30.5982 40.9502 30.3176 41.0039 29.6869 42.1823C29.072 43.3313 29.2296 43.121 25.9515 47.1674C23.0649 50.7305 17.4812 55.4254 13.8424 57.3492C11.767 58.4464 10.47 58.7829 7.90078 58.8909C4.87606 59.018 4.49589 58.9248 3.13141 57.7221H3.1314ZM33.0206 47.9359C33.0206 47.5638 33.2319 47.2594 33.4902 47.2594C33.7484 47.2594 33.9597 47.0356 33.9597 46.7621C33.9597 46.4886 33.7484 46.3955 33.4902 46.5551C33.2295 46.7162 33.0174 46.363 33.0134 45.7611C33.0076 44.8889 32.9173 44.8146 32.5511 45.3812C31.9428 46.3225 31.9428 49.2786 32.5511 48.9027C32.8093 48.7431 33.0206 48.3081 33.0206 47.9359ZM60.7664 42.6814C60.5917 41.3861 60.4827 41.209 60.354 42.0113C60.1928 43.0164 60.4829 44.4422 60.8486 44.4422C60.934 44.4422 60.897 43.6498 60.7664 42.6814ZM32.0816 40.0094C32.0816 39.8955 31.8703 39.6717 31.612 39.5121C31.3538 39.3525 31.1425 39.4457 31.1425 39.7192C31.1425 39.9926 31.3538 40.2164 31.612 40.2164C31.8703 40.2164 32.0816 40.1233 32.0816 40.0094ZM30.2942 37.0424C29.6769 36.5572 29.4669 36.5845 29.1257 37.1943C28.8333 37.7167 28.9666 38.1264 29.5739 38.5726C30.3172 39.1186 30.4808 39.0973 30.7424 38.4207C30.9227 37.9544 30.7402 37.393 30.2942 37.0424ZM47.1506 33.3486C48.9212 30.9518 50.1057 27.535 49.1635 27.5423C48.5742 27.5471 46.9086 30.1454 45.4981 33.2608C43.5982 37.4569 44.096 37.4834 47.1506 33.3485V33.3486ZM70.9671 49.3121C70.2745 48.9465 69.2536 47.9124 68.6985 47.0143C67.5736 45.1941 67.5791 45.1969 66.3648 45.8467C65.3873 46.3698 62.601 45.9665 62.601 45.3019C62.601 45.0647 62.8651 44.9151 63.1879 44.9696C64.0527 45.1155 67.2911 44.3866 67.328 44.0378C67.7024 40.4941 68.2907 39.0434 70.258 36.8123C71.0282 35.9389 71.8564 35.5211 72.8177 35.5211C74.2925 35.5211 74.8093 36.1711 74.8082 38.0245C74.8073 39.3339 72.958 41.6816 70.449 43.5583C68.9402 44.6868 69.0681 45.8962 70.8745 47.5812C71.762 48.409 72.2407 48.531 73.3519 48.2123C75.9633 47.4633 83.6478 41.1374 84.3484 39.16C84.5085 38.708 84.9877 38.3383 85.4132 38.3383C85.9954 38.3383 86.1095 38.5999 85.8739 39.3947C85.7017 39.9758 85.5014 40.6625 85.4287 40.9207C84.4463 44.4124 84.1187 45.3121 83.5431 46.0993C82.6205 47.361 82.0226 46.6155 82.8848 45.2785C83.2647 44.6894 83.6975 43.7265 83.8467 43.1387C84.0593 42.301 83.442 42.6671 80.9893 44.8338C77.6277 47.8033 75.4279 49.1375 73.893 49.1375C73.3637 49.1375 72.9307 49.3487 72.9307 49.607C72.9307 50.2012 72.5401 50.1425 70.9671 49.3121ZM73.5259 38.0471C73.7605 36.8197 73.036 36.589 71.5104 37.4055C70.5949 37.8954 68.7049 41.6362 68.7049 42.9582C68.7049 44.0535 73.2659 39.4072 73.5259 38.0471ZM11.7266 45.628C11.5754 45.234 11.6688 44.9117 11.9342 44.9117C12.1996 44.9117 12.2915 44.709 12.1383 44.4613C11.9852 44.2135 12.1189 43.5963 12.4353 43.0896C12.8902 42.3611 12.8861 41.3988 12.4158 38.4925C11.7029 34.0874 11.7265 34.1843 10.9972 32.6786C10.2262 31.0868 8.66646 30.1071 7.98628 30.7873C7.70684 31.0667 7.20174 31.2953 6.86383 31.2953C6.36529 31.2953 6.36086 31.1129 6.84035 30.3274C7.29768 29.5783 7.74267 29.4203 8.80903 29.6287C10.3762 29.9349 11.8918 31.1363 11.8918 32.0724C11.8918 32.4197 12.1207 32.7039 12.4004 32.7039C12.6802 32.7039 12.8175 32.968 12.7055 33.2908C12.5935 33.6136 12.7957 34.7207 13.1548 35.751C13.8561 37.7634 13.8555 42.4274 13.1538 43.3797C12.9184 43.6993 12.8425 44.2649 12.9852 44.6366C13.1278 45.0084 12.9649 45.5447 12.623 45.8284C12.1578 46.2145 11.9323 46.1641 11.7266 45.628H11.7266ZM257.339 17.4104C255.824 16.589 255.652 15.8008 256.986 15.8008C257.503 15.8008 257.925 15.9974 257.925 16.2377C257.925 16.478 258.384 16.7421 258.945 16.8246C260.206 17.0101 260.684 18.1558 259.491 18.1297C259.017 18.119 258.049 17.7957 257.339 17.4104ZM210.738 3.12354C210.409 2.59172 210.831 1.71496 211.415 1.71496C211.628 1.71496 211.912 2.13753 212.048 2.65402C212.305 3.63741 211.282 4.00406 210.738 3.12354ZM211.677 0.503721C212.193 0.112198 213.038 -0.0952488 213.555 0.042712C214.071 0.180673 214.982 0.296421 215.578 0.299951C216.18 0.303529 216.533 0.515182 216.372 0.775899C216.212 1.03415 214.879 1.2387 213.41 1.23048C210.921 1.21653 210.802 1.16681 211.677 0.503721Z" fill="white"/>
</svg>
