<svg width="464" height="485" viewBox="0 0 464 485" fill="none" xmlns="http://www.w3.org/2000/svg">
<rect x="332" y="2" width="131" height="357" rx="19" fill="white" fill-opacity="0.2" stroke="white" stroke-width="2"/>
<rect x="229" y="2" width="62" height="482" rx="19" fill="white" fill-opacity="0.2" stroke="white" stroke-width="2"/>
<rect x="1" y="40" width="131" height="69" rx="19" fill="white" fill-opacity="0.2" stroke="white" stroke-width="2"/>
<rect opacity="0.5" x="1" y="376" width="462" height="108" rx="19" stroke="white" stroke-width="2"/>
<rect opacity="0.5" x="1" y="251" width="462" height="108" rx="19" stroke="white" stroke-width="2"/>
<rect opacity="0.5" x="1" y="126" width="462" height="108" rx="19" stroke="white" stroke-width="2"/>
<rect opacity="0.5" x="1" y="1" width="462" height="108" rx="19" stroke="white" stroke-width="2"/>
<path d="M18.8252 393.204H24.3726C26.5737 393.204 28.2827 393.846 29.4995 395.131C30.7231 396.41 31.335 398.211 31.335 400.535C31.335 402.907 30.7266 404.746 29.5098 406.052C28.2998 407.351 26.5874 408 24.3726 408H18.8252V393.204ZM21.4707 395.49V405.713H24.0239C25.5005 405.713 26.6387 405.269 27.4385 404.38C28.2383 403.492 28.6382 402.224 28.6382 400.576C28.6382 398.963 28.2314 397.712 27.418 396.823C26.6113 395.935 25.48 395.49 24.0239 395.49H21.4707ZM38.7896 398.577C38.0308 398.577 37.4053 398.826 36.9131 399.325C36.4209 399.824 36.1475 400.484 36.0928 401.304H41.3735C41.3462 400.47 41.1001 399.807 40.6353 399.315C40.1704 398.823 39.5552 398.577 38.7896 398.577ZM41.394 404.914H43.8037C43.5645 405.939 43.0005 406.749 42.1118 407.344C41.23 407.932 40.1328 408.226 38.8203 408.226C37.1729 408.226 35.8774 407.713 34.9341 406.688C33.9976 405.655 33.5293 404.237 33.5293 402.432C33.5293 400.627 34.001 399.199 34.9443 398.146C35.8877 397.086 37.1729 396.557 38.7998 396.557C40.3994 396.557 41.6504 397.059 42.5527 398.064C43.4619 399.062 43.9165 400.446 43.9165 402.217V403.037H36.0825V403.17C36.1167 404.107 36.3833 404.849 36.8823 405.396C37.3882 405.936 38.0581 406.206 38.8921 406.206C40.1772 406.206 41.0112 405.775 41.394 404.914ZM55.9854 396.782L52.0171 408H49.2178L45.229 396.782H47.9565L50.5508 405.457H50.7251L53.2988 396.782H55.9854ZM64.7935 392.834C66.9399 392.834 68.6387 393.532 69.8896 394.926C71.1475 396.321 71.7764 398.211 71.7764 400.597C71.7764 402.982 71.1509 404.876 69.8999 406.277C68.6489 407.672 66.9468 408.369 64.7935 408.369C62.6265 408.369 60.9141 407.672 59.6562 406.277C58.4053 404.883 57.7798 402.989 57.7798 400.597C57.7798 398.211 58.4087 396.321 59.6665 394.926C60.9312 393.532 62.6401 392.834 64.7935 392.834ZM64.7935 395.183C63.4741 395.183 62.4248 395.671 61.6455 396.649C60.873 397.626 60.4868 398.942 60.4868 400.597C60.4868 402.258 60.8696 403.577 61.6353 404.555C62.4077 405.532 63.4604 406.021 64.7935 406.021C66.106 406.021 67.145 405.532 67.9106 404.555C68.6831 403.57 69.0693 402.251 69.0693 400.597C69.0693 398.942 68.6831 397.626 67.9106 396.649C67.145 395.671 66.106 395.183 64.7935 395.183ZM80.6562 396.598C82.0781 396.598 83.2026 397.114 84.0298 398.146C84.8638 399.178 85.2808 400.593 85.2808 402.391C85.2808 404.182 84.8672 405.597 84.04 406.636C83.2197 407.668 82.1021 408.185 80.687 408.185C79.8872 408.185 79.1865 408.021 78.585 407.692C77.9902 407.357 77.5493 406.893 77.2622 406.298H77.0879V411.732H74.5449V396.782H76.9956V398.638H77.1699C77.4912 398.002 77.9595 397.503 78.5747 397.141C79.1968 396.779 79.8906 396.598 80.6562 396.598ZM79.8564 406.021C80.7383 406.021 81.4253 405.7 81.9175 405.057C82.4165 404.415 82.666 403.526 82.666 402.391C82.666 401.256 82.4165 400.368 81.9175 399.725C81.4253 399.083 80.7417 398.761 79.8667 398.761C78.9985 398.761 78.3115 399.086 77.8057 399.735C77.2998 400.385 77.0435 401.27 77.0366 402.391C77.0435 403.512 77.2964 404.397 77.7954 405.047C78.3013 405.696 78.9883 406.021 79.8564 406.021ZM87.5776 399.992C87.5776 398.98 87.9946 398.156 88.8286 397.521C89.6626 396.878 90.7427 396.557 92.0688 396.557C93.4019 396.557 94.4648 396.84 95.2578 397.408C96.0576 397.968 96.502 398.758 96.5908 399.776H94.2017C94.106 399.373 93.8735 399.059 93.5044 398.833C93.1421 398.601 92.667 398.484 92.0791 398.484C91.4912 398.484 91.0059 398.611 90.623 398.864C90.2402 399.117 90.0488 399.445 90.0488 399.848C90.0488 400.163 90.1821 400.422 90.4487 400.627C90.7222 400.833 91.1426 401 91.71 401.13L93.689 401.581C94.769 401.827 95.562 402.193 96.0679 402.678C96.5737 403.164 96.8267 403.816 96.8267 404.637C96.8267 405.71 96.3823 406.578 95.4937 407.241C94.605 407.897 93.4565 408.226 92.0483 408.226C90.647 408.226 89.5259 407.938 88.6851 407.364C87.8511 406.79 87.3862 405.994 87.2905 404.975H89.8027C89.9258 405.399 90.1821 405.727 90.5718 405.959C90.9683 406.185 91.481 406.298 92.1099 406.298C92.7524 406.298 93.2754 406.171 93.6787 405.918C94.082 405.659 94.2837 405.32 94.2837 404.903C94.2837 404.281 93.7676 403.857 92.7354 403.632L90.7461 403.17C89.666 402.924 88.8662 402.545 88.3467 402.032C87.834 401.513 87.5776 400.833 87.5776 399.992Z" fill="white"/>
<path d="M25.1519 283H18.8252V268.204H25.0083C26.4097 268.204 27.5103 268.535 28.3101 269.198C29.1099 269.854 29.5098 270.753 29.5098 271.895C29.5098 272.674 29.2568 273.368 28.751 273.977C28.2451 274.585 27.6196 274.947 26.8745 275.063V275.248C27.8726 275.344 28.6826 275.72 29.3047 276.376C29.9268 277.025 30.2378 277.832 30.2378 278.796C30.2378 280.095 29.7832 281.12 28.874 281.872C27.9717 282.624 26.731 283 25.1519 283ZM21.4707 270.306V274.428H24.0239C24.9604 274.428 25.6714 274.253 26.1567 273.905C26.6489 273.549 26.895 273.037 26.895 272.367C26.895 271.717 26.6729 271.211 26.2285 270.849C25.7842 270.487 25.1621 270.306 24.3623 270.306H21.4707ZM21.4707 280.898H24.5469C25.5244 280.898 26.2661 280.703 26.772 280.313C27.2778 279.917 27.5308 279.343 27.5308 278.591C27.5308 277.853 27.2676 277.292 26.7412 276.909C26.2217 276.526 25.4561 276.335 24.4443 276.335H21.4707V280.898ZM36.6875 281.185C37.4531 281.185 38.0923 280.966 38.605 280.529C39.1177 280.084 39.374 279.538 39.374 278.888V277.996L36.8413 278.16C35.4468 278.249 34.7495 278.755 34.7495 279.678C34.7495 280.143 34.9272 280.512 35.2827 280.785C35.645 281.052 36.1133 281.185 36.6875 281.185ZM35.939 283.185C34.8452 283.185 33.9531 282.877 33.2627 282.262C32.5723 281.646 32.2271 280.833 32.2271 279.821C32.2271 278.81 32.5928 278.017 33.3242 277.442C34.0625 276.868 35.1152 276.54 36.4824 276.458L39.374 276.284V275.34C39.374 274.787 39.1929 274.363 38.8306 274.069C38.4683 273.775 37.9453 273.628 37.2617 273.628C36.6738 273.628 36.1885 273.73 35.8057 273.936C35.4229 274.134 35.1733 274.421 35.0571 274.797H32.6577C32.7603 273.806 33.2388 273.02 34.0933 272.438C34.9546 271.851 36.0518 271.557 37.3848 271.557C38.8203 271.557 39.9277 271.888 40.707 272.551C41.4932 273.214 41.8862 274.144 41.8862 275.34V283H39.4355V281.462H39.2612C38.9468 282.002 38.4956 282.426 37.9077 282.733C37.3267 283.034 36.6704 283.185 35.939 283.185ZM54.6421 275.556H52.2222C52.0991 274.988 51.8257 274.537 51.4019 274.202C50.978 273.86 50.4277 273.689 49.751 273.689C48.876 273.689 48.1924 274.011 47.7002 274.653C47.2148 275.296 46.9722 276.198 46.9722 277.36C46.9722 278.536 47.2183 279.452 47.7104 280.108C48.2026 280.765 48.8828 281.093 49.751 281.093C50.4141 281.093 50.9575 280.939 51.3813 280.631C51.812 280.324 52.0923 279.879 52.2222 279.298H54.6421C54.4985 280.495 53.9961 281.448 53.1348 282.159C52.2803 282.87 51.1558 283.226 49.7612 283.226C48.0728 283.226 46.7568 282.709 45.8135 281.677C44.8701 280.645 44.3984 279.206 44.3984 277.36C44.3984 275.535 44.8701 274.113 45.8135 273.095C46.7568 272.069 48.0693 271.557 49.751 271.557C51.1592 271.557 52.2905 271.922 53.145 272.654C54.0063 273.378 54.5054 274.346 54.6421 275.556ZM59.8921 276.355L64.0347 271.782H66.9878L62.5171 276.591L67.2954 283H64.2192L60.6201 278.191L59.7178 279.093V283H57.1748V267.445H59.7178V276.355H59.8921ZM73.3452 273.577C72.5864 273.577 71.9609 273.826 71.4688 274.325C70.9766 274.824 70.7031 275.484 70.6484 276.304H75.9292C75.9019 275.47 75.6558 274.807 75.1909 274.315C74.7261 273.823 74.1108 273.577 73.3452 273.577ZM75.9497 279.914H78.3594C78.1201 280.939 77.5562 281.749 76.6675 282.344C75.7856 282.932 74.6885 283.226 73.376 283.226C71.7285 283.226 70.4331 282.713 69.4897 281.688C68.5532 280.655 68.085 279.237 68.085 277.432C68.085 275.627 68.5566 274.199 69.5 273.146C70.4434 272.086 71.7285 271.557 73.3555 271.557C74.9551 271.557 76.2061 272.059 77.1084 273.064C78.0176 274.062 78.4722 275.446 78.4722 277.217V278.037H70.6382V278.17C70.6724 279.107 70.939 279.849 71.438 280.396C71.9438 280.936 72.6138 281.206 73.4478 281.206C74.7329 281.206 75.5669 280.775 75.9497 279.914ZM81.0254 283V271.782H83.4761V273.577H83.6504C83.9238 272.934 84.3408 272.438 84.9014 272.09C85.4688 271.734 86.1626 271.557 86.9829 271.557C88.2271 271.557 89.1807 271.919 89.8438 272.644C90.5137 273.368 90.8486 274.4 90.8486 275.74V283H88.3057V276.345C88.3057 274.629 87.5503 273.771 86.0396 273.771C85.2808 273.771 84.6792 274.014 84.2349 274.5C83.7905 274.985 83.5684 275.641 83.5684 276.468V283H81.0254ZM97.9238 283.185C96.502 283.185 95.3774 282.665 94.5503 281.626C93.7231 280.58 93.3096 279.165 93.3096 277.381C93.3096 275.61 93.7231 274.206 94.5503 273.167C95.3843 272.121 96.5088 271.598 97.9238 271.598C98.6895 271.598 99.373 271.772 99.9746 272.121C100.576 272.469 101.027 272.951 101.328 273.566H101.502V267.445H104.045V283H101.584V281.226H101.41C101.089 281.841 100.621 282.323 100.005 282.672C99.397 283.014 98.7031 283.185 97.9238 283.185ZM100.774 274.735C100.269 274.086 99.5815 273.761 98.7134 273.761C97.8452 273.761 97.1616 274.086 96.6626 274.735C96.1636 275.378 95.9141 276.263 95.9141 277.391C95.9141 278.526 96.1602 279.415 96.6523 280.057C97.1514 280.7 97.8384 281.021 98.7134 281.021C99.5884 281.021 100.275 280.7 100.774 280.057C101.28 279.408 101.533 278.519 101.533 277.391C101.533 276.27 101.28 275.385 100.774 274.735Z" fill="white"/>
<path d="M21.4707 158H18.8252V143.204H28.2588V145.49H21.4707V149.797H27.6743V152.001H21.4707V158ZM30.9248 158V146.782H33.3755V148.525H33.5498C33.707 147.965 34.0591 147.503 34.606 147.141C35.1597 146.779 35.7954 146.598 36.5132 146.598C36.9712 146.598 37.3232 146.635 37.5693 146.71V149.069C37.3096 148.973 36.8755 148.925 36.2671 148.925C35.4399 148.925 34.7666 149.165 34.2471 149.643C33.7275 150.115 33.4678 150.74 33.4678 151.52V158H30.9248ZM44.2139 158.226C42.5322 158.226 41.2129 157.709 40.2559 156.677C39.2988 155.638 38.8203 154.209 38.8203 152.391C38.8203 150.586 39.3022 149.165 40.2661 148.125C41.23 147.08 42.5459 146.557 44.2139 146.557C45.8887 146.557 47.2046 147.076 48.1616 148.115C49.1255 149.154 49.6074 150.58 49.6074 152.391C49.6074 154.209 49.1255 155.638 48.1616 156.677C47.2046 157.709 45.8887 158.226 44.2139 158.226ZM42.1528 155.129C42.6382 155.771 43.3252 156.093 44.2139 156.093C45.1025 156.093 45.7861 155.771 46.2646 155.129C46.75 154.479 46.9927 153.567 46.9927 152.391C46.9927 151.222 46.75 150.313 46.2646 149.664C45.7793 149.014 45.0957 148.689 44.2139 148.689C43.3252 148.689 42.6382 149.014 42.1528 149.664C41.6675 150.313 41.4248 151.222 41.4248 152.391C41.4248 153.567 41.6675 154.479 42.1528 155.129ZM52.1709 158V146.782H54.6216V148.577H54.7959C55.0693 147.934 55.4863 147.438 56.0469 147.09C56.6143 146.734 57.3081 146.557 58.1284 146.557C59.3726 146.557 60.3262 146.919 60.9893 147.644C61.6592 148.368 61.9941 149.4 61.9941 150.74V158H59.4512V151.345C59.4512 149.629 58.6958 148.771 57.1851 148.771C56.4263 148.771 55.8247 149.014 55.3804 149.5C54.936 149.985 54.7139 150.641 54.7139 151.468V158H52.1709ZM65.8188 144.034H68.3516V146.854H70.751V148.884H68.3516V154.391C68.3516 154.944 68.4746 155.351 68.7207 155.611C68.9668 155.864 69.3564 155.99 69.8896 155.99C70.1221 155.99 70.4092 155.973 70.751 155.939V157.928C70.3271 158.01 69.8828 158.051 69.418 158.051C68.1328 158.051 67.21 157.815 66.6494 157.344C66.0957 156.872 65.8188 156.093 65.8188 155.006V148.884H64.0449V146.854H65.8188V144.034ZM77.8979 148.577C77.1392 148.577 76.5137 148.826 76.0215 149.325C75.5293 149.824 75.2559 150.484 75.2012 151.304H80.4819C80.4546 150.47 80.2085 149.807 79.7437 149.315C79.2788 148.823 78.6636 148.577 77.8979 148.577ZM80.5024 154.914H82.9121C82.6729 155.939 82.1089 156.749 81.2202 157.344C80.3384 157.932 79.2412 158.226 77.9287 158.226C76.2812 158.226 74.9858 157.713 74.0425 156.688C73.106 155.655 72.6377 154.237 72.6377 152.432C72.6377 150.627 73.1094 149.199 74.0527 148.146C74.9961 147.086 76.2812 146.557 77.9082 146.557C79.5078 146.557 80.7588 147.059 81.6611 148.064C82.5703 149.062 83.0249 150.446 83.0249 152.217V153.037H75.1909V153.17C75.2251 154.107 75.4917 154.849 75.9907 155.396C76.4966 155.936 77.1665 156.206 78.0005 156.206C79.2856 156.206 80.1196 155.775 80.5024 154.914ZM85.5781 158V146.782H88.0288V148.577H88.2031C88.4766 147.934 88.8936 147.438 89.4541 147.09C90.0215 146.734 90.7153 146.557 91.5356 146.557C92.7798 146.557 93.7334 146.919 94.3965 147.644C95.0664 148.368 95.4014 149.4 95.4014 150.74V158H92.8584V151.345C92.8584 149.629 92.103 148.771 90.5923 148.771C89.8335 148.771 89.2319 149.014 88.7876 149.5C88.3433 149.985 88.1211 150.641 88.1211 151.468V158H85.5781ZM102.477 158.185C101.055 158.185 99.9302 157.665 99.103 156.626C98.2759 155.58 97.8623 154.165 97.8623 152.381C97.8623 150.61 98.2759 149.206 99.103 148.167C99.937 147.121 101.062 146.598 102.477 146.598C103.242 146.598 103.926 146.772 104.527 147.121C105.129 147.469 105.58 147.951 105.881 148.566H106.055V142.445H108.598V158H106.137V156.226H105.963C105.642 156.841 105.173 157.323 104.558 157.672C103.95 158.014 103.256 158.185 102.477 158.185ZM105.327 149.735C104.821 149.086 104.134 148.761 103.266 148.761C102.398 148.761 101.714 149.086 101.215 149.735C100.716 150.378 100.467 151.263 100.467 152.391C100.467 153.526 100.713 154.415 101.205 155.057C101.704 155.7 102.391 156.021 103.266 156.021C104.141 156.021 104.828 155.7 105.327 155.057C105.833 154.408 106.086 153.519 106.086 152.391C106.086 151.27 105.833 150.385 105.327 149.735Z" fill="white"/>
<path d="M21.5015 18.2036V27.6577C21.5015 28.6763 21.8057 29.4897 22.4141 30.0981C23.0225 30.6997 23.8667 31.0005 24.9468 31.0005C26.0269 31.0005 26.8677 30.6997 27.4692 30.0981C28.0776 29.4897 28.3818 28.6763 28.3818 27.6577V18.2036H31.0273V27.9038C31.0273 29.5376 30.4771 30.8569 29.3765 31.8618C28.2759 32.8667 26.7993 33.3691 24.9468 33.3691C23.0942 33.3691 21.6177 32.8667 20.5171 31.8618C19.4165 30.8569 18.8662 29.5376 18.8662 27.9038V18.2036H21.5015ZM37.3643 33H34.7188V18.2036H37.3643V33ZM41.5273 36.1685H39.1895L44.5728 17.4448H46.9106L41.5273 36.1685ZM51.4839 18.2036V27.6577C51.4839 28.6763 51.7881 29.4897 52.3965 30.0981C53.0049 30.6997 53.8491 31.0005 54.9292 31.0005C56.0093 31.0005 56.8501 30.6997 57.4517 30.0981C58.0601 29.4897 58.3643 28.6763 58.3643 27.6577V18.2036H61.0098V27.9038C61.0098 29.5376 60.4595 30.8569 59.3589 31.8618C58.2583 32.8667 56.7817 33.3691 54.9292 33.3691C53.0767 33.3691 51.6001 32.8667 50.4995 31.8618C49.3989 30.8569 48.8486 29.5376 48.8486 27.9038V18.2036H51.4839ZM63.7886 33L68.6284 25.5454L63.8296 18.2036H66.957L70.3306 23.6382H70.5049L73.9297 18.2036H76.9033L71.9404 25.6069L76.8213 33H73.7656L70.3306 27.6885H70.1562L66.6699 33H63.7886Z" fill="white"/>
<circle opacity="0.2" cx="38.5" cy="449.5" r="22.5" fill="white"/>
<circle opacity="0.2" cx="38.5" cy="324.5" r="22.5" fill="#C73E3E"/>
<circle opacity="0.2" cx="38.5" cy="199.5" r="22.5" fill="#E8BC31"/>
<circle opacity="0.2" cx="93.5" cy="449.5" r="22.5" fill="white"/>
<circle opacity="0.2" cx="93.5" cy="324.5" r="22.5" fill="#C73E3E"/>
<circle opacity="0.2" cx="93.5" cy="199.5" r="22.5" fill="#E8BC31"/>
<circle opacity="0.2" cx="148.5" cy="449.5" r="22.5" fill="white"/>
<circle opacity="0.2" cx="148.5" cy="324.5" r="22.5" fill="#C73E3E"/>
<circle opacity="0.2" cx="148.5" cy="199.5" r="22.5" fill="#E8BC31"/>
<circle opacity="0.2" cx="148.5" cy="74.5" r="22.5" fill="#3E67C7"/>
<circle opacity="0.2" cx="204.5" cy="449.5" r="22.5" fill="white"/>
<circle opacity="0.2" cx="204.5" cy="324.5" r="22.5" fill="#C73E3E"/>
<circle opacity="0.2" cx="204.5" cy="199.5" r="22.5" fill="#E8BC31"/>
<circle opacity="0.2" cx="204.5" cy="74.5" r="22.5" fill="#3E67C7"/>
<circle cx="259.5" cy="449.5" r="22.5" fill="white"/>
<circle cx="259.5" cy="324.5" r="22.5" fill="#C73E3E"/>
<circle cx="259.5" cy="199.5" r="22.5" fill="#E8BC31"/>
<circle cx="259.5" cy="74.5" r="22.5" fill="#3E67C7"/>
<circle opacity="0.2" cx="314.5" cy="449.5" r="22.5" fill="white"/>
<circle opacity="0.2" cx="314.5" cy="324.5" r="22.5" fill="#C73E3E"/>
<circle opacity="0.2" cx="314.5" cy="199.5" r="22.5" fill="#E8BC31"/>
<circle opacity="0.2" cx="314.5" cy="74.5" r="22.5" fill="#3E67C7"/>
<circle opacity="0.2" cx="369.5" cy="449.5" r="22.5" fill="white"/>
<circle cx="369.5" cy="324.5" r="22.5" fill="#C73E3E"/>
<circle cx="369.5" cy="199.5" r="22.5" fill="#E8BC31"/>
<circle cx="369.5" cy="74.5" r="22.5" fill="#3E67C7"/>
<circle opacity="0.2" cx="425.5" cy="449.5" r="22.5" fill="white"/>
<circle cx="425.5" cy="324.5" r="22.5" fill="#C73E3E"/>
<circle cx="425.5" cy="199.5" r="22.5" fill="#E8BC31"/>
<circle cx="425.5" cy="74.5" r="22.5" fill="#3E67C7"/>
<circle cx="38.5" cy="74.5" r="22.5" fill="#3E67C7"/>
<circle cx="93.5" cy="74.5" r="22.5" fill="#3E67C7"/>
</svg>
