<svg width="254" height="125" viewBox="0 0 254 125" fill="none" xmlns="http://www.w3.org/2000/svg">
<path opacity="0.7" d="M207.311 99.689C204.6 100.161 204.194 100.153 204.469 99.6362C204.558 99.4686 205.17 99.3454 205.83 99.3623C207.215 99.3979 216.951 96.2835 220.187 94.7699C221.341 94.2302 223.344 93.1823 224.639 92.4413C225.935 91.7003 227.49 90.8163 228.097 90.4768C228.703 90.1374 229.71 89.4293 230.335 88.9033C230.96 88.3773 231.737 87.8656 232.062 87.7662C232.387 87.6669 233.236 86.9783 233.947 86.2362C234.659 85.494 235.276 84.9992 235.318 85.1366C235.36 85.274 235.593 85.0859 235.835 84.7186C236.078 84.3513 236.728 83.626 237.279 83.1069C238.999 81.4882 243.276 76.1763 243.162 75.8019C243.118 75.6597 243.244 75.4941 243.441 75.4337C243.83 75.3149 244.179 74.7414 247.234 69.2074C248.343 67.1973 249.201 65.3897 249.14 65.1905C249.079 64.9913 249.21 64.8758 249.43 64.9337C249.651 64.9917 249.775 64.8547 249.706 64.6293C249.637 64.4039 249.832 63.5477 250.139 62.7265C250.764 61.0522 251.1 59.5357 250.952 59.051C250.897 58.8734 251.004 58.4445 251.188 58.0979C251.372 57.7513 251.534 56.3062 251.546 54.8866C251.576 51.5855 250.36 48.1066 248.488 46.1362C246.849 44.4118 244.483 43.1331 243.132 43.2421C242.538 43.29 241.782 43.0946 241.453 42.8079C240.515 41.9926 240.066 42.3862 239.613 44.4179C238.895 47.645 238.157 50.2993 237.922 50.499C237.799 50.6045 237.754 50.8748 237.823 51.0998C237.892 51.3248 237.603 52.8258 237.183 54.4354C236.762 56.0449 236.443 57.447 236.475 57.5511C236.507 57.6551 236.321 58.3187 236.062 59.0257C235.803 59.7327 235.616 60.7487 235.645 61.2834C235.675 61.8181 235.535 62.5648 235.334 62.9428C234.927 63.7073 235.063 64.5703 235.713 65.3463C236.016 65.7082 235.989 65.9076 235.621 66.02C234.911 66.2369 234.759 66.9928 235.36 67.3124C236.1 67.7059 236.093 68.0892 235.34 68.3191C234.961 68.435 234.735 68.7503 234.823 69.0387C234.909 69.321 234.648 69.8452 234.243 70.2036C233.638 70.7385 233.376 70.7862 232.781 70.4697C231.388 69.7289 230.599 65.6397 231.573 64.2097C232.345 63.0772 232.701 59.9746 232.764 53.8317C232.778 52.5053 229.835 43.6952 229.164 43.052C228.451 42.3698 228.523 41.4093 229.339 40.6872C230.349 39.7934 233.225 38.9855 234.541 39.2257C236.537 39.59 238.312 39.1586 238.938 38.1572C239.245 37.6671 239.42 37.0182 239.327 36.7152C239.235 36.4123 239.301 36.121 239.474 36.0679C239.648 36.0149 239.82 35.3814 239.856 34.6601C239.892 33.9389 240.043 33.3117 240.192 33.2664C240.34 33.2211 240.407 33.0062 240.34 32.7889C240.274 32.5715 240.359 32.0891 240.529 31.7167C240.699 31.3443 241.061 29.9487 241.333 28.6152C241.605 27.2817 242.123 24.8486 242.484 23.2084C242.844 21.5682 243.091 20.0673 243.032 19.873C242.972 19.6787 243.051 19.4807 243.207 19.4331C243.363 19.3854 243.505 18.6779 243.523 17.8608C243.541 17.0438 243.683 16.3363 243.839 16.2886C243.995 16.241 244.051 15.9682 243.964 15.6825C243.877 15.3968 243.919 14.5123 244.058 13.7171C244.487 11.2644 244.549 3.9034 244.143 3.68739C243.803 3.5067 240.049 11.054 239.803 12.4114C239.673 13.132 239.393 14.0237 239.18 14.3929C238.798 15.0579 237.649 18.0833 237.115 19.8276C236.963 20.3254 236.709 20.9911 236.549 21.307C236.39 21.6228 236.107 22.7787 235.92 23.8756C235.733 24.9724 235.397 26.0131 235.173 26.1881C234.949 26.3631 234.515 27.3981 234.209 28.4882C233.903 29.5782 233.535 30.506 233.391 30.5499C233.247 30.5939 233.078 31.1695 233.014 31.8292C232.951 32.4888 232.605 33.5962 232.246 34.2901C231.887 34.9839 231.656 35.7564 231.733 36.0067C231.862 36.428 231.029 37.1575 230.072 37.4621C229.848 37.5336 229.195 37.3184 228.621 36.9847L227.577 36.3779L226.669 38.1347C226.17 39.1009 225.578 39.9475 225.354 40.0161C225.13 40.0846 224.703 40.7133 224.404 41.4131C224.106 42.113 223.702 42.7346 223.506 42.7945C223.31 42.8544 222.862 43.4609 222.511 44.1423C221.662 45.7883 221.108 46.1548 219.827 45.9191C219.238 45.8108 218.546 45.7865 218.289 45.8651C217.698 46.0456 217.602 45.7397 217.978 44.8825C218.414 43.8884 218.436 41.6606 218.005 42.1322C217.82 42.3333 217.201 43.0357 216.627 43.693C215.263 45.2558 212.55 46.4978 212.01 45.8064C211.534 45.197 210.774 45.3981 210.722 46.1475C210.667 46.9294 209.04 48.6895 208.107 48.9766C206.892 49.3503 206.192 48.8349 206.169 47.5499C206.159 46.9425 206.023 46.0306 205.868 45.5234C205.672 44.8815 205.815 44.3403 206.338 43.743C207.396 42.5357 208.166 40.9731 207.988 40.3921C207.905 40.1211 207.939 39.8132 208.062 39.7077C208.396 39.4228 209.437 35.479 209.298 35.0245C209.232 34.8088 209.313 34.5913 209.476 34.5412C209.725 34.4654 209.85 33.1108 209.648 32.6855C209.615 32.6168 209.712 32.42 209.863 32.2484C210.013 32.0767 210.531 29.7418 211.013 27.0597C211.495 24.3775 212.212 20.9498 212.605 19.4425C212.998 17.9352 213.278 16.2726 213.227 15.7478C213.176 15.223 213.346 14.2624 213.605 13.6131C213.986 12.6554 214.258 12.4233 215.046 12.3833C216.489 12.3099 216.967 13.409 216.402 15.5068C216.142 16.4705 215.818 17.3479 215.681 17.4566C215.544 17.5653 215.336 18.4532 215.218 19.4296C215.101 20.4061 214.92 21.3196 214.817 21.4598C214.488 21.9065 213.704 24.9273 213.695 25.7861C213.69 26.2415 213.556 26.6537 213.398 26.7022C213.239 26.7507 213.101 27.4156 213.09 28.1797C213.079 28.9438 212.95 29.8549 212.802 30.2044C212.654 30.5539 212.361 31.914 212.149 33.2269C211.938 34.5398 211.568 36.4442 211.327 37.459C210.905 39.2333 210.919 39.3221 211.687 39.7814C212.127 40.044 212.612 40.7161 212.766 41.2748C213.119 42.5595 213.458 42.641 214.692 41.7373C215.873 40.8728 216.515 39.9786 217.424 37.9343C217.558 37.6326 217.941 37.0533 218.275 36.647C218.608 36.2406 219.004 35.6983 219.155 35.4419C219.833 34.2853 221.49 32.7126 222.289 32.4686C222.848 32.2976 223.392 32.4268 223.794 32.826C224.348 33.3773 224.333 33.5673 223.67 34.4316C222.642 35.7711 221.616 37.9084 221.765 38.3979C221.833 38.6194 221.72 38.9283 221.514 39.0842C221.227 39.3016 221.262 39.4378 221.664 39.6678C222.08 39.9057 222.372 39.7351 223.072 38.8438C223.99 37.676 225.739 34.7102 226.995 32.1912C227.839 30.4971 228.934 29.3373 230.027 28.9791C230.451 28.8401 230.96 28.311 231.158 27.8033C231.356 27.2956 231.771 26.3047 232.081 25.6012C232.391 24.8978 232.835 23.6615 233.066 22.854C233.298 22.0465 233.721 20.8931 234.006 20.2908C234.976 18.2407 235.273 17.4239 235.171 17.09C235.115 16.9065 235.195 16.7182 235.348 16.6714C235.501 16.6246 236.112 15.1513 236.705 13.3974C237.299 11.6435 238.006 9.7257 238.277 9.13561C238.548 8.54551 238.947 7.42743 239.164 6.651C240.177 3.02593 242.399 0.398228 244.434 0.419847C245.45 0.430639 246.832 1.86832 246.989 3.07858C247.234 4.96014 247.21 7.51137 246.947 7.59171C246.8 7.63667 246.772 7.97708 246.886 8.34818C246.999 8.71928 246.931 9.07206 246.735 9.13214C246.538 9.19221 246.51 9.35768 246.672 9.49986C246.972 9.76348 246.663 12.8266 245.843 17.7049C245.375 20.4884 245.285 20.9191 244.616 23.5133C244.405 24.3345 244.297 25.2187 244.376 25.4783C244.455 25.7379 244.337 26.229 244.113 26.5697C243.889 26.9104 243.572 28.1069 243.407 29.2285C243.243 30.3502 242.993 31.3032 242.852 31.3464C242.71 31.3896 242.546 31.9794 242.486 32.657C242.427 33.3346 242.316 33.9909 242.241 34.1154C241.694 35.0176 240.799 39.1569 241.074 39.5096C241.263 39.7505 241.551 39.795 241.714 39.6085C242.038 39.2403 244.488 40.325 244.669 40.9162C244.73 41.1155 245.494 41.7225 246.366 42.2652C247.238 42.808 247.987 43.359 248.031 43.4899C248.075 43.6207 248.508 43.921 248.992 44.1572C250.217 44.7536 252.216 47.5018 252.789 49.3757C253.437 51.4959 253.638 56.082 253.174 58.1533C252.965 59.0851 252.647 60.492 252.467 61.2796C251.893 63.798 247.967 71.4901 245.798 74.3442C245.096 75.2692 244.4 76.2367 244.252 76.4943C244.104 76.7519 243.143 77.9549 242.118 79.1676C241.092 80.3803 240.205 81.4872 240.147 81.6274C240.01 81.9555 236.376 85.5039 235.033 86.621C234.467 87.092 233.171 88.0121 232.154 88.6657C231.136 89.3194 229.483 90.4261 228.479 91.125C227.475 91.824 225.712 92.8455 224.562 93.3952C215.605 97.673 212.606 98.7672 207.31 99.6891L207.311 99.689ZM236.655 47.9981C237.013 46.7815 237.246 45.5928 237.174 45.3566C237.101 45.1205 237.194 44.8808 237.38 44.8241C237.565 44.7674 237.647 44.4932 237.562 44.2149C237.477 43.9366 237.559 43.6624 237.745 43.6057C237.931 43.549 237.949 43.0652 237.785 42.5305C237.52 41.6619 237.316 41.5671 235.874 41.6393C234.986 41.6838 233.83 41.8515 233.305 42.0119L232.351 42.3037L233.953 47.5161C235.509 52.5827 235.561 52.6933 235.78 51.4694C235.904 50.7768 236.298 49.2147 236.655 47.998L236.655 47.9981ZM91.8923 109.127C91.4049 108.796 90.77 108.682 90.4003 108.859C88.4378 109.8 87.4336 110.015 87.2843 109.527C87.1793 109.183 87.5887 108.81 88.558 108.367C89.8126 107.792 90.173 107.333 91.5191 104.596C92.362 102.881 93.4397 101.195 93.9139 100.847C94.4032 100.489 94.8338 99.7378 94.9094 99.1103C94.9828 98.5022 95.3618 97.8123 95.7518 97.5772C96.1417 97.342 96.5488 96.7033 96.6564 96.1576C96.764 95.6121 96.9709 95.1293 97.1161 95.0849C97.2614 95.0405 97.6447 94.1348 97.9678 93.0723C98.2909 92.0098 98.7409 90.7516 98.9679 90.2764C99.3792 89.4155 99.5886 88.9432 101.233 85.1684C101.71 84.0737 102.297 82.7365 102.538 82.1967C103.698 79.5957 104.505 77.1671 104.363 76.7025C104.305 76.5139 103.756 76.4001 103.143 76.4496C102.53 76.4991 101.172 76.0919 100.125 75.5448C98.6221 74.7593 98.0504 74.6407 97.4061 74.9807C96.3204 75.5537 96.2482 75.1006 97.1134 73.1428C97.7687 71.66 97.9456 71.5027 99.104 71.3733C100.703 71.1946 101.938 71.883 101.926 72.9473C101.913 74.1852 102.832 74.5236 104.676 73.9598C105.581 73.6831 106.282 73.3281 106.234 73.1709C106.186 73.0137 106.391 72.6608 106.688 72.3865C107.14 71.9708 109.997 64.8018 110.575 62.6346C110.67 62.2802 110.846 61.7716 110.968 61.5045C111.35 60.6632 112.158 58.397 112.343 57.649C112.636 56.4649 113.282 54.2017 113.459 53.7378C114.013 52.2894 114.193 49.6033 113.8 48.6589C113.142 47.0812 112.388 47.0298 110.357 48.424L108.638 49.6035L109.579 50.3271C110.518 51.0487 110.52 51.0567 110.348 53.2724C110.252 54.4943 110.001 56.3756 109.79 57.4531C109.579 58.5306 109.464 59.6031 109.536 59.8365C109.607 60.0699 109.524 60.304 109.352 60.3566C109.18 60.4092 108.877 61.3735 108.678 62.4995C107.917 66.8083 107.607 68.064 107.201 68.488C106.97 68.729 106.683 69.4613 106.564 70.1152C106.445 70.7692 106.236 71.245 106.1 71.1726C105.963 71.1003 105.993 70.5569 106.165 69.9651C106.423 69.0789 106.382 68.8618 105.931 68.7341C105.475 68.6049 105.45 68.5011 105.777 68.1141C105.994 67.8584 106.269 67.6724 106.389 67.7007C106.781 67.7936 109.376 56.7027 109.19 55.725C109.091 55.2006 109.161 54.6635 109.347 54.5314C109.533 54.3993 109.485 53.6369 109.24 52.8373C108.789 51.362 108.329 51.0782 107.031 51.475C106.449 51.6529 103.25 54.6238 102.839 55.3684C102.715 55.593 102.429 55.8331 102.204 55.9019C101.812 56.0219 99.6756 59.8989 98.5536 62.528C98.1134 63.5597 98.1246 64.0736 98.6157 65.3737C99.2117 66.9513 99.76 67.3958 101.949 68.0761C102.631 68.2881 102.577 68.3369 101.485 68.4957C99.9193 68.7232 97.4538 67.3769 97.0566 66.0777C96.6116 64.6222 99.1276 57.6715 100.428 56.7649C100.678 56.5904 100.306 56.3705 99.4814 56.2058C98.2034 55.9503 98.067 55.9873 97.1788 56.8306C95.9382 58.0084 95.3708 58.1506 95.1246 57.3453C94.6297 55.7264 97.7144 52.5728 99.3616 53.0137C100.199 53.2379 101.662 52.9125 101.289 52.585C101.16 52.4721 101.379 52.2593 101.774 52.1121C102.17 51.9648 103.569 50.8316 104.883 49.5938C106.198 48.3559 107.522 47.2661 107.825 47.172C108.129 47.078 108.706 46.6779 109.107 46.2833C109.573 45.8236 110.532 45.4144 111.774 45.1445C113.33 44.8064 113.951 44.8561 114.916 45.3962C115.997 46.001 116.162 46.2634 116.535 47.9833C116.88 49.5674 116.79 50.441 116.015 53.0527C115.5 54.7883 114.821 56.8471 114.507 57.6279C114.193 58.4087 113.852 59.5052 113.749 60.0646C113.646 60.624 113.477 61.1944 113.374 61.3321C113.27 61.4698 112.871 62.4256 112.487 63.4561C112.103 64.4866 111.631 65.5105 111.44 65.7313C111.248 65.9521 111.142 66.2966 111.203 66.4969C111.303 66.8247 110.991 67.621 109.217 71.5675C108.482 73.2002 109.374 73.233 111.097 71.6366C111.807 70.9781 112.577 70.489 112.808 70.5497C113.039 70.6104 113.683 70.3382 114.239 69.9449C114.795 69.5516 115.554 69.069 115.925 68.8725C116.297 68.676 117.412 67.8832 118.404 67.1109C119.931 65.9226 120.409 65.2357 121.515 62.6442C122.234 60.9599 123.08 59.4033 123.396 59.1852C123.712 58.9671 123.928 58.649 123.876 58.4783C123.824 58.3076 124.303 57.5665 124.94 56.8315C125.578 56.0964 126.142 55.3631 126.194 55.2019C126.301 54.8734 128.84 52.584 130.707 51.1331C131.38 50.6102 132.795 49.8084 133.851 49.3514C135.486 48.6444 135.915 48.5846 136.733 48.9503C137.801 49.4277 138.402 50.7376 137.657 50.9653C137.394 51.0456 137.168 51.2549 137.153 51.4303C137.139 51.6058 136.274 52.9493 135.231 54.416C133.935 56.2377 133.547 57.0175 134.007 56.8768C134.697 56.6658 135.275 57.1505 135.6 58.2134C135.701 58.5436 135.523 60.0596 135.205 61.5823C134.355 65.6508 133.875 70.672 134.226 71.8197C134.589 73.0048 136.015 73.4585 137.076 72.7262C137.899 72.1584 139.932 69.6815 140.302 68.7956C140.451 68.4404 140.706 68.109 140.869 68.0592C141.288 67.9312 143.948 62.5938 143.813 62.1525C143.752 61.9522 143.983 61.2998 144.327 60.7027C144.671 60.1057 145.039 59.15 145.145 58.5789C145.251 58.0078 145.468 57.2773 145.628 56.9556C145.788 56.6338 146.01 55.8723 146.12 55.2634C146.438 53.5198 147.596 52.2283 148.816 52.2564C149.523 52.2726 149.947 52.5381 150.206 53.1271C150.583 53.9826 150.36 56.3041 149.886 56.4488C149.745 56.4918 149.492 57.1089 149.322 57.8202C149.153 58.5314 148.662 59.7576 148.231 60.545C147.801 61.3325 147.519 62.2071 147.605 62.4887C147.691 62.7703 147.615 63.0454 147.437 63.0999C146.971 63.2425 147.126 66.1659 147.613 66.4252C148.069 66.6676 149.052 66.014 148.913 65.5604C148.862 65.3947 149.189 65.1465 149.64 65.0088C150.111 64.8646 150.631 64.3148 150.864 63.7122C151.087 63.1367 151.438 62.6146 151.643 62.5518C151.848 62.4891 151.974 62.2997 151.922 62.1309C151.871 61.9621 152.511 60.4799 153.344 58.8371C154.178 57.1944 155.131 55.0619 155.463 54.0983C155.794 53.1348 156.191 52.3078 156.345 52.2607C156.499 52.2136 156.556 51.9474 156.471 51.669C156.385 51.3907 156.464 51.1178 156.645 51.0625C156.825 51.0072 157.071 50.4241 157.191 49.7668C157.374 48.7677 157.586 48.5363 158.485 48.3569C160.416 47.9713 160.693 48.7413 159.595 51.4369C159.055 52.7633 158.678 54.0623 158.758 54.3236C158.838 54.585 158.779 54.8368 158.627 54.8832C158.333 54.9732 156.49 60.1499 156.6 60.5781C156.635 60.7179 156.557 61.529 156.425 62.3808C156.294 63.2326 156.356 64.5039 156.564 65.206L156.942 66.4823L157.691 65.6154C159.308 63.7451 160.703 61.1135 162.116 57.2671C162.356 56.6147 162.877 55.4836 163.274 54.7535C163.671 54.0234 163.964 53.3045 163.924 53.1559C163.884 53.0075 163.953 52.6543 164.077 52.3713C164.471 51.4729 166.159 46.6029 166.308 45.9373C166.386 45.5856 166.825 44.7087 167.284 43.9887C168.083 42.7336 168.159 42.6917 169.125 42.9732C169.68 43.1346 170.181 43.4233 170.24 43.6148C170.378 44.0668 169.022 48.4523 168.497 49.2511C168.275 49.5894 168.16 50.0842 168.241 50.3507C168.323 50.6173 168.209 50.788 167.988 50.73C167.768 50.6721 167.657 50.8535 167.743 51.1332C167.828 51.4129 167.669 52.1152 167.39 52.6937C166.673 54.1766 166.039 58.4182 166.274 60.1559C166.383 60.9606 166.743 62.1371 167.074 62.7701C167.622 63.8173 167.777 63.8904 168.792 63.5801C170.356 63.1019 171.068 63.2161 171.302 63.9831C171.757 65.4714 171.301 66.1332 169.422 66.7076C167.929 67.164 167.474 67.1494 166.623 66.6175C165.256 65.7638 164.537 64.7793 164.002 63.0313L163.556 61.5714L161.467 65.275C160.319 67.312 159.232 68.94 159.053 68.8929C158.873 68.8458 158.575 69.0379 158.39 69.319C158.139 69.7017 157.745 69.7604 156.831 69.5518C155.458 69.2385 154.805 68.648 153.976 66.9701L153.408 65.8197L152.003 67.1443C151.231 67.8729 149.73 68.8234 148.667 69.2566C146.805 70.0158 146.691 70.0153 145.495 69.2406L144.253 68.437L142.38 70.7C139.103 74.6577 138.444 75.1864 136.332 75.5543C133.687 76.0148 132.224 75.174 131.514 72.7865C131.231 71.8329 131.002 70.7043 131.007 70.2783C131.017 69.3093 130.515 69.8039 129.724 71.5409C129.424 72.2004 128.98 72.8007 128.737 72.8749C128.494 72.9492 128.278 73.2644 128.256 73.5753C128.234 73.8863 128.024 74.1996 127.789 74.2716C127.553 74.3435 126.619 75.0443 125.711 75.8289C123.51 77.7331 122.039 78.177 121.174 77.1988C120.404 76.3279 119.911 74.8211 119.782 72.9382C119.717 71.9933 119.575 71.6182 119.312 71.6985C119.105 71.7619 119.201 71.4743 119.525 71.0594C120.003 70.4471 120.054 68.8895 119.591 69.031C119.524 69.0515 118.39 69.8134 117.07 70.7241C115.75 71.6348 114.421 72.456 114.117 72.549C113.813 72.6421 113.455 72.9799 113.321 73.2997C113.162 73.6808 112.343 74.1058 110.947 74.5326C108.718 75.2141 106.541 76.5832 106.722 77.1895C106.781 77.3845 105.863 79.6761 104.683 82.2818C103.502 84.8875 102.168 87.9516 101.716 89.091C101.265 90.2304 100.763 91.4522 100.601 91.8062C99.7808 93.5938 98.9098 96.2497 99.021 96.6237C99.1789 97.1549 99.2568 97.1282 100.976 95.9525C101.754 95.4207 103.933 94.3307 105.818 93.5302C109.548 91.9469 109.454 91.9794 110.991 91.7471C113.447 91.3759 116.749 90.5339 126.16 87.8794C135.014 85.3817 136.166 84.9902 136.55 84.3472C136.937 83.6994 137.122 83.6379 138.326 83.7576C139.906 83.9147 140.867 85.1902 140.035 86.0263C139.41 86.6551 114.625 94.2251 111.029 94.8862C107.689 95.4997 103.061 96.9009 101.314 97.8279C100.385 98.3206 99.7009 99.048 99.1428 100.136C98.6946 101.009 98.1887 101.767 98.0186 101.819C97.578 101.953 97.337 103.447 97.7039 103.769C98.1966 104.202 97.0735 104.855 96.541 104.445C96.157 104.15 96.1309 104.177 96.4094 104.58C96.6278 104.896 96.5506 105.21 96.2015 105.425C95.8961 105.613 95.5853 106.272 95.5109 106.89C95.2699 108.888 93.318 110.095 91.8923 109.127L91.8923 109.127ZM124.698 72.9294C125.151 72.5887 125.48 72.172 125.429 72.0034C125.377 71.8347 126.22 70.6557 127.302 69.3833C128.384 68.1109 129.393 66.693 129.545 66.2326C129.696 65.7721 129.983 65.084 130.184 64.7035C130.804 63.5248 132.451 58.7736 132.352 58.4484C132.3 58.2789 131.77 58.7064 131.174 59.3984C130.578 60.0904 129.949 60.6996 129.777 60.7522C129.456 60.8505 127.584 62.5391 124.83 65.2165C123.443 66.5637 123.216 67.0321 122.832 69.333C122.593 70.7609 122.476 72.4991 122.571 73.1956C122.727 74.3368 122.8 74.4169 123.308 74.0055C123.619 73.7544 124.244 73.2701 124.698 72.9294ZM127.367 59.6413C130.253 56.6802 131.929 54.8067 132.591 53.8024C133.412 52.5571 132.894 52.4813 131.685 53.6698C131.271 54.0769 130.153 55.1171 129.2 55.9812C128.246 56.8454 127.405 57.786 127.33 58.0716C127.255 58.3572 127.022 58.6436 126.811 58.708C126.367 58.8438 125.275 60.6413 125.396 61.0376C125.492 61.3488 126.176 60.8641 127.367 59.6413ZM6.15071 124.084C5.92434 124.007 5.32566 123.481 4.82032 122.915C3.92106 121.909 3.91234 121.852 4.4101 120.253C4.89418 118.698 8.16517 112.546 10.0419 109.662C11.1092 108.022 12.3363 106.936 13.0647 106.987C13.6261 107.026 14.036 105.834 13.7654 104.949C13.6819 104.676 12.8879 103.979 12.0008 103.4C10.1744 102.209 9.74455 101.345 10.5665 100.519C11.275 99.8063 12.274 99.9679 13.267 100.956C13.6692 101.356 14.1118 101.648 14.2507 101.606C14.3895 101.563 14.5552 100.766 14.6188 99.8331C14.6824 98.9006 14.8656 98.0976 15.026 98.0486C15.1863 97.9996 15.2247 97.6558 15.1112 97.2847C14.9977 96.9136 15.0744 96.5582 15.2816 96.4948C15.5003 96.428 15.4846 96.0506 15.2443 95.5952C15.0166 95.1637 14.9749 94.8487 15.1517 94.8951C15.4497 94.9734 15.5489 92.7055 15.2858 91.8296C15.222 91.6172 15.3708 91.2864 15.6165 91.0945C15.8622 90.9026 15.9484 90.3703 15.8082 89.9115C15.6679 89.4528 15.6763 88.9372 15.8268 88.7658C16.4272 88.0819 15.8097 87.4939 14.9161 87.8986C12.7119 88.8967 9.80959 90.5303 8.89993 91.2849C8.35299 91.7386 7.71486 92.1681 7.48186 92.2393C7.24885 92.3106 6.54602 92.796 5.92001 93.3181L4.7818 94.2673L6.03826 94.4555C7.73284 94.7094 7.99018 95.5511 6.43961 95.7683C2.9087 96.2628 0.739276 95.7969 0.825443 94.5627C0.848384 94.2341 1.39401 93.69 2.03796 93.3536C2.6819 93.0172 3.3263 92.5834 3.46997 92.3897C3.88056 91.836 6.31369 90.1076 7.71302 89.3756C8.41268 89.0095 9.12467 88.6235 9.29523 88.5177C9.46578 88.4119 11.1856 87.5215 13.1171 86.5391C15.2072 85.4759 17.0175 84.3145 17.5889 83.67C18.7199 82.3945 19.4346 82.1098 20.2162 82.6235C20.6608 82.9156 21.2269 82.8117 22.7914 82.1507C23.8943 81.6847 27.8661 80.348 31.6176 79.1802C35.3692 78.0125 38.405 76.947 38.3639 76.8126C38.3229 76.6782 38.7064 76.1679 39.2162 75.6785C39.726 75.1891 40.5434 74.2409 41.0327 73.5713C41.522 72.9017 42.2306 72.2331 42.6074 72.0855C42.9841 71.9379 43.4313 71.7286 43.6011 71.6203C44.3225 71.1603 45.1271 71.1853 45.6276 71.6831C46.5444 72.5949 46.1418 78.0225 44.8686 81.9157C44.5368 82.9302 44.1319 84.5376 43.9688 85.4878C43.8057 86.4379 43.5371 87.4696 43.3719 87.7804C42.7912 88.8724 41.9866 94.8882 42.2265 96.3436C42.3743 97.2404 42.7353 98.08 43.1506 98.4931C43.6879 99.0275 43.8748 99.6034 44.0341 101.215C44.1452 102.339 44.2846 103.282 44.3439 103.31C44.4454 103.358 47.3955 100.297 48.6424 98.8496C49.3925 97.9792 50.9385 97.9139 51.7644 98.7178C52.663 99.5925 54.0371 102.802 53.7878 103.444C53.5689 104.008 52.0646 104.611 51.8503 104.221C51.7787 104.09 51.5693 103.615 51.3849 103.164C50.9182 102.023 49.8114 100.694 49.4257 100.812C49.2488 100.866 48.946 101.207 48.7528 101.571C48.5595 101.934 48.2664 102.273 48.1013 102.323C47.9362 102.374 47.3926 103.086 46.8933 103.906C46.3847 104.741 45.5656 105.561 45.0307 105.77C43.8051 106.249 41.7054 105.385 40.9843 104.104C40.6902 103.582 39.9769 102.904 39.3992 102.596C38.4007 102.066 38.349 101.959 38.3546 100.442C38.3626 98.2955 38.6059 96.7418 38.9505 96.6365C39.1063 96.5888 39.1873 96.3981 39.1306 96.2125C38.953 95.6317 38.3243 96.0507 37.0958 97.5686C36.4434 98.3747 35.5628 99.2433 35.1389 99.4989C34.7149 99.7545 34.3266 100.122 34.2758 100.315C34.225 100.508 33.2189 101.556 32.04 102.644C30.7368 103.845 29.9593 104.826 30.0566 105.144C30.1749 105.531 30.0754 105.609 29.6765 105.442C29.2803 105.277 28.7999 105.602 27.8745 106.663C27.1806 107.458 26.5292 108.064 26.4269 108.01C26.3247 107.956 25.7421 108.393 25.1323 108.982C22.1607 111.853 19.3555 110.355 20.0749 106.281C20.2235 105.439 20.256 104.46 20.1471 104.104C19.9734 103.535 19.7691 103.535 18.4702 104.097C16.9008 104.778 16.1513 105.707 15.8407 107.358C15.3483 109.976 15.1585 110.623 14.2694 112.712C13.076 115.515 10.57 120.06 10.1422 120.196C9.9651 120.252 9.4347 121.003 8.96351 121.864C8.11109 123.422 6.93566 124.35 6.15071 124.084L6.15071 124.084ZM9.69108 116.679C10.1314 115.953 10.3551 115.286 10.1881 115.197C10.0211 115.108 9.48815 115.755 9.00369 116.635C7.95478 118.54 8.54043 118.578 9.69108 116.679ZM11.2896 113.97C11.2966 113.691 11.1314 113.603 10.9042 113.765C10.6855 113.921 10.501 114.267 10.4943 114.536C10.4873 114.815 10.6525 114.902 10.8798 114.741C11.0985 114.585 11.2829 114.238 11.2896 113.97ZM25.8664 104.879C27.0023 103.822 28.0668 102.915 28.232 102.865C28.3971 102.814 28.5481 102.643 28.5674 102.485C28.5867 102.327 29.5104 101.367 30.6201 100.351C31.7298 99.3352 32.8901 98.2438 33.1986 97.9256C33.5071 97.6074 34.3278 96.7624 35.0223 96.0478C37.328 93.6757 38.3442 91.8194 38.7681 89.205C38.9914 87.8282 39.0753 86.3789 38.9546 85.9842C38.8339 85.5894 38.8753 85.2237 39.0464 85.1713C39.2176 85.119 39.3669 84.4508 39.3783 83.6865C39.3897 82.9222 39.4627 82.1113 39.5406 81.8846C39.6184 81.6579 39.6613 81.1057 39.6359 80.6574C39.5984 79.9968 39.3376 79.8052 38.2598 79.6463C37.1171 79.4778 35.9112 79.7856 29.6899 81.8335C23.118 83.9967 22.4251 84.2876 22.1824 84.9855C22.0354 85.4083 22.0223 86.1048 22.1532 86.5332C22.2842 86.9616 22.3046 87.3386 22.1986 87.3711C21.8028 87.4921 20.7415 86.7419 20.5852 86.2307C20.2597 85.1661 19.1221 86.0756 18.7709 87.6812C18.5807 88.5509 18.3012 89.3004 18.1498 89.3467C17.9984 89.393 17.9701 89.7434 18.087 90.1255C18.2038 90.5075 18.0821 92.3293 17.8165 94.1738C17.1703 98.6623 17.1519 98.874 17.2904 100.215C17.4004 101.279 17.4823 101.355 18.2608 101.117C18.7285 100.974 19.1585 100.677 19.2165 100.456C19.2744 100.236 19.6781 99.9464 20.1134 99.8133C20.624 99.6572 21.4265 98.6261 22.3742 96.9087C23.1822 95.4443 23.9778 94.205 24.1422 94.1548C24.3066 94.1045 25.1005 93.2885 25.9063 92.3414C26.7122 91.3943 27.4525 90.6624 27.5516 90.7151C27.6506 90.7677 28.2675 90.4127 28.9226 89.9261C30.5686 88.7035 31.3405 88.5111 32.4441 89.0487C33.0915 89.3641 33.5145 89.9093 33.7763 90.7655C34.1491 91.9851 33.7783 95.1348 33.079 96.6884C32.5549 97.8525 29.4187 100.603 27.7843 101.332C24.6986 102.708 23.6225 103.585 23.4789 104.839C23.4047 105.488 23.2892 105.87 23.2224 105.687C23.1555 105.505 23.0288 105.619 22.9407 105.94C22.7754 106.544 23.0797 107.022 23.5395 106.882C23.6834 106.838 24.7305 105.936 25.8664 104.879ZM28.6182 97.747C29.9927 96.9741 31.8963 92.153 30.6802 92.5248C29.9644 92.7437 28.2593 94.1835 27.5041 95.2068C27.0475 95.8256 26.5733 96.3627 26.4504 96.4003C26.0596 96.5197 24.6902 98.4512 24.7824 98.7528C24.9678 99.3589 26.4367 98.9738 28.6182 97.747ZM72.5123 99.7578C72.0909 99.2183 72.648 98.1388 73.4788 97.8848C73.728 97.8086 74.2182 97.1926 74.5682 96.5158C74.9182 95.8391 75.4311 95.1085 75.7078 94.8923C75.9845 94.6762 76.2697 93.9346 76.3414 93.2445C76.4131 92.5543 76.708 91.6012 76.9967 91.1264C77.2853 90.6517 77.4451 90.0135 77.3518 89.7083C77.2585 89.403 77.2744 88.9674 77.3871 88.7402C77.4999 88.513 77.4436 87.4594 77.2621 86.399L76.9321 84.471L75.8472 86.5549C75.2505 87.7011 74.6206 88.6822 74.4474 88.7351C74.2742 88.7881 74.1983 89.0464 74.2786 89.3092C74.3589 89.572 74.0309 90.1278 73.5495 90.5444C73.0682 90.961 72.7334 91.4947 72.8055 91.7304C72.9487 92.1989 71.4163 94.085 70.717 94.301C70.4775 94.375 70.0599 94.8191 69.7889 95.2879C69.5179 95.7568 68.6929 96.5048 67.9555 96.9502C66.2779 97.9635 64.6507 97.9627 63.7538 96.9489C62.9609 96.0526 62.2337 93.7637 62.4284 92.7768C62.6712 91.5453 61.8283 91.7098 60.9408 93.0672C60.4943 93.75 60.0448 94.7293 59.9419 95.2435C59.839 95.7576 59.5699 96.2348 59.3439 96.304C58.8378 96.4587 57.8078 98.9879 57.721 100.289C57.6494 101.362 56.4055 101.985 55.5101 101.396C54.8553 100.966 54.9005 100.16 55.7154 97.7381C56.0669 96.6934 56.302 95.667 56.2378 95.4572C56.1737 95.2475 56.2438 95.0383 56.3936 94.9925C56.5435 94.9467 56.7486 94.1785 56.8495 93.2854C56.9503 92.3922 57.176 91.2027 57.351 90.642C57.526 90.0812 57.6176 89.1784 57.5546 88.6356C57.443 87.6745 57.41 87.6643 56.2885 88.2443C54.4869 89.1761 53.7777 89.8238 53.9484 90.382C54.0349 90.6649 54.0369 90.9174 53.9528 90.9431C53.4959 91.0828 51.8281 90.6864 51.7462 90.4187C51.6935 90.2463 51.2211 89.9228 50.6964 89.6997C49.8793 89.3524 49.8001 89.2233 50.1448 88.8004C50.6635 88.1638 51.5983 87.8714 51.9966 88.2211C52.833 88.9555 56.145 87.0202 57.2125 85.1733C57.867 84.0409 57.9931 83.9974 58.9551 84.5721C59.819 85.0882 60.0621 86.2172 59.6819 87.9481C58.9493 91.2837 58.5633 92.6953 58.2973 93.0118C58.0867 93.2624 58.1524 93.4436 58.526 93.6423C58.9315 93.8579 59.2064 93.7335 59.7387 93.0939C60.1172 92.639 60.3816 92.1185 60.3262 91.9372C60.2708 91.756 60.4532 91.538 60.7315 91.4529C61.0098 91.3678 61.1679 91.0705 61.0828 90.7922C60.9856 90.4742 61.2489 90.188 61.7914 90.0222C62.2811 89.8725 62.5198 89.6398 62.3431 89.4846C62.1717 89.3341 62.1922 89.1619 62.3887 89.1018C62.5852 89.0417 62.9456 88.641 63.1895 88.2114C64.1239 86.5658 64.8017 85.7249 66.2532 84.4112C67.0789 83.6639 67.9446 82.7979 68.177 82.4867C68.4093 82.1756 68.8895 81.9413 69.244 81.966C70.2378 82.0354 70.1336 83.17 69.0784 83.7701C67.6229 84.5977 65.9074 86.1571 64.6779 87.7701C63.3981 89.4489 63.371 89.9082 64.5736 89.5405C65.0374 89.3987 65.3705 89.1308 65.3138 88.9453C65.2571 88.7597 65.4384 88.5383 65.7167 88.4532C66.5604 88.1953 66.443 88.7714 65.3514 90.2464C64.7373 91.0762 64.3965 91.9324 64.5168 92.343C64.6287 92.7247 64.6227 93.2246 64.5034 93.4538C64.3827 93.6857 64.5586 94.3603 64.8997 94.9742C65.4867 96.0307 65.5712 96.0572 66.8759 95.5947C67.6801 95.3096 68.6934 94.5838 69.3472 93.8247C69.9567 93.1169 70.6016 92.4932 70.7803 92.4386C70.9591 92.3839 71.2203 92.006 71.361 91.5988C71.5016 91.1916 72.0886 90.2303 72.6654 89.4625C74.0879 87.569 76.2492 83.8355 75.9996 83.7028C75.6881 83.5372 76.1953 81.1917 76.5672 81.078C76.748 81.0227 76.8247 80.7445 76.7376 80.4596C76.5865 79.9655 76.9953 78.0165 77.3546 77.5172C77.4482 77.3872 77.4925 76.9764 77.453 76.6044C77.4134 76.2325 77.5868 75.6898 77.8382 75.3986C78.1992 74.9804 78.4868 74.9981 79.2049 75.4825C79.7052 75.8199 80.1088 76.3522 80.1019 76.6652C80.0711 78.0653 79.613 80.5157 79.368 80.5906C79.2197 80.636 79.1576 81.2038 79.2301 81.8524C79.3025 82.501 79.2408 83.717 79.0929 84.5546C78.945 85.3922 78.907 86.349 79.0085 86.6809C79.11 87.0128 79.048 87.3286 78.8709 87.3827C78.6938 87.4369 78.6191 88.0823 78.7049 88.8169C78.869 90.221 78.5376 91.5544 77.4617 93.8196C77.1049 94.5708 76.849 95.3034 76.8931 95.4476C76.9372 95.5918 76.7632 95.774 76.5066 95.8524C76.2499 95.9309 76.0533 96.323 76.0697 96.7238C76.0861 97.1246 75.9245 97.506 75.7107 97.5713C75.4968 97.6367 75.3687 97.5118 75.426 97.2937C75.4857 97.0663 75.333 97.0512 75.068 97.2582C74.8138 97.4567 74.677 97.8519 74.7639 98.1363C75.126 99.3206 73.2348 100.683 72.5124 99.7578L72.5123 99.7578ZM178.653 60.9374C176.388 61.2818 175.538 61.044 174.308 59.7223C173.541 58.8975 173.249 58.2453 173.013 56.8233C172.845 55.8142 172.814 54.8667 172.945 54.7179C173.076 54.5691 173.067 54.0678 172.925 53.6039C172.783 53.1401 172.833 52.8041 173.035 52.8573C173.238 52.9106 173.367 52.5034 173.323 51.9524C173.163 49.9629 176.956 42.4423 179.637 39.4363C180.972 37.9385 181.702 37.396 182.756 37.1185C184.824 36.5738 185.587 37.0949 186.324 39.5558C188.023 45.2329 186.713 51.4497 183.615 52.4056C181.907 52.9332 178.678 50.0959 179.413 48.7131C180.143 47.3401 181.989 47.4921 182.062 48.9313C182.136 50.3711 183.129 50.1602 183.714 48.5805C184.304 46.9882 184.444 45.432 184.1 44.3046C183.962 43.8528 183.962 43.4483 184.102 43.4057C184.241 43.3631 184.164 42.5363 183.93 41.5683C183.513 39.8396 183.492 39.8167 182.72 40.2822C182.288 40.5428 181.418 41.3964 180.788 42.1791C179.453 43.8371 176.388 49.2442 176.526 49.6965C176.578 49.8664 176.401 50.3731 176.132 50.8224C175.864 51.2717 175.691 51.7936 175.749 51.9821C175.807 52.1707 175.697 52.6594 175.505 53.0682C175.313 53.477 175.325 54.6721 175.532 55.724C175.874 57.4684 175.991 57.659 176.863 57.8924C178.106 58.2251 180.079 57.9909 180.209 57.4953C180.265 57.2819 180.564 57.0297 180.874 56.9349C181.496 56.745 184.538 53.433 185.085 52.3514C185.671 51.1913 187.569 48.617 187.916 48.511C188.097 48.4556 188.254 48.2599 188.265 48.0759C188.295 47.6 190.813 43.9494 192.592 41.8033C194.322 39.7169 195.794 38.782 196.733 39.1744C197.904 39.664 197.862 40.8238 196.596 42.9199C195.925 44.0303 195.411 45.0638 195.453 45.2166C195.496 45.3693 195.32 46.087 195.063 46.8114C194.415 48.6409 194.138 50.6665 194.554 50.5393C195.118 50.367 196.646 48.6567 196.922 47.8898C197.063 47.4977 197.633 46.7617 198.189 46.2542C199.467 45.088 200.187 43.604 200.711 41.0601C201.258 38.4022 202.918 35.6622 203.973 35.6734C205.384 35.6884 205.776 36.756 205.27 39.2093C205.016 40.4419 204.469 42.1599 204.055 43.0272C203.409 44.3808 203.381 44.7714 203.86 45.787C204.89 47.969 205.941 49.848 206.316 50.1771C206.84 50.6379 206.488 52.0554 205.796 52.2664C204.741 52.5881 202.892 51.4593 201.817 49.8374L200.776 48.2675L199.04 50.0822C195.289 54.0023 195.184 54.0893 194.076 54.1786C192.339 54.3188 191.148 52.2089 191.42 49.4738C191.497 48.6932 191.492 48.0183 191.409 47.9739C191.325 47.9295 190.323 49.4335 189.181 51.3161C188.04 53.1986 186.613 55.2148 186.012 55.7963C185.411 56.3779 184.335 57.6201 183.622 58.5567C182.6 59.8972 182.199 60.2073 181.735 60.0135C181.331 59.8448 181.111 59.8997 181.036 60.1878C180.975 60.4191 180.814 60.6215 180.679 60.6376C180.544 60.6536 179.632 60.7885 178.653 60.9374L178.653 60.9374Z" fill="white"/>
</svg>
