<svg width="137" height="79" viewBox="0 0 137 79" fill="none" xmlns="http://www.w3.org/2000/svg">
<path opacity="0.7" d="M44.3424 72.1888C43.6731 71.503 44.5217 70.921 45.9636 71.0769C46.526 71.1379 47.4817 71.1753 48.0872 71.1599C48.6926 71.1449 52.1604 71.4674 55.7934 71.8765C63.0904 72.6983 67.4918 73.1256 71.4204 73.3937C72.8501 73.4911 74.6798 73.6633 75.4866 73.7757C76.7715 73.9547 82.5668 74.4212 87.0645 74.7072L88.5734 74.803L86.7969 73.9986C85.8199 73.5563 81.78 72.3354 77.8194 71.2851C73.8588 70.2352 66.6494 68.2694 61.7986 66.9169C52.3068 64.2706 26.504 58.1135 19.988 56.9403C17.7959 56.5456 13.6188 55.6504 10.7058 54.9505C7.7926 54.2509 5.46963 53.862 5.54365 54.0859C5.66679 54.4583 9.03076 55.8514 11.2304 56.4407C12.1817 56.6957 12.561 58.0635 11.87 58.7475C11.4902 59.1233 7.93952 58.1168 7.26908 57.4429C6.38414 56.5535 -0.429972 54.6703 -16.5229 50.8677L-34.4364 46.6352L-34.214 45.7089C-33.8604 44.2357 -32.4032 44.2689 -25.0643 45.9174C-21.3 46.7628 -17.5558 47.5586 -16.7438 47.6862C-5.55426 49.4386 -4.51601 49.6334 9.01298 52.5201C30.9691 57.2048 69.9223 66.8101 83.3923 70.8605C85.413 71.4682 89.4628 72.6478 92.392 73.482C99.8211 75.5975 100.314 75.7755 100.752 76.5024C101.561 77.8424 97.7377 78.7019 93.4617 78.1413C92.5282 78.019 91.5216 77.9427 91.2248 77.9713C90.928 77.9999 89.3 77.8081 87.607 77.5445C85.9139 77.2811 83.276 76.9511 81.7449 76.8111C80.2138 76.6712 75.7973 76.1984 71.9305 75.7605C68.0637 75.3224 62.9754 74.7766 60.6232 74.5471C55.7753 74.0742 52.6218 73.7005 49.5584 73.2357C48.3971 73.0594 46.8662 72.8729 46.1566 72.8206C45.447 72.7682 44.6306 72.4838 44.3424 72.1887L44.3424 72.1888ZM74.705 53.6299C74.1506 52.7282 74.2864 52.4658 77.1193 48.9652L79.7065 45.7682L78.8211 44.6507C78.2749 43.9613 78.0542 43.1993 78.245 42.6615C78.4307 42.138 78.3211 41.729 77.9707 41.6379C76.8669 41.3542 77.2938 40.3978 78.7307 39.9384C79.5218 39.6855 80.6821 39.0743 81.309 38.5803C82.473 37.6633 84.2628 37.7099 84.5786 38.6655C84.6716 38.9477 84.0994 39.5935 83.3068 40.1013C81.0259 41.5627 82.0365 41.832 84.552 40.4298C86.7083 39.2302 88.2829 39.0527 88.5876 39.9746C86.9806 42.665 84.5909 45.0147 82.294 46.6979C81.823 47.2448 80.8667 48.2978 80.1683 49.0377C79.4699 49.7775 78.8569 50.5558 78.8062 50.7673C78.6581 51.3839 83.3961 49.3117 87.8212 46.8246C91.078 44.994 92.0999 44.182 92.8825 42.8024C94.195 40.4888 96.0793 38.285 97.6193 37.2626C98.3134 36.8018 98.9278 36.2314 98.9845 35.9951C99.0413 35.7586 99.9192 35.028 100.936 34.3713C101.952 33.7146 104.45 31.4944 106.487 29.4377C110.05 25.8392 113.328 23.3594 115.115 22.9103C115.608 22.7866 116.32 22.9378 116.811 23.271C118.198 24.2113 117.444 25.6825 113.986 28.7778C112.244 30.338 109.292 32.9925 107.427 34.6766C102.657 38.985 102.769 38.8908 98.727 41.9752C94.7268 45.0277 94.4095 45.902 97.3678 45.7202C98.2692 45.6649 99.1364 45.7499 99.2948 45.9092C99.4531 46.0683 100.498 45.32 101.618 44.2461C103.799 42.1526 108.405 39.2796 109.749 39.174C110.257 39.1341 110.782 39.4871 111.131 40.1025C111.677 41.0652 111.661 41.1291 110.584 42.2078C109.285 43.5126 105.554 45.8543 103.745 46.5007C102.028 47.114 102.014 47.6458 103.713 47.7419C105.332 47.8336 107.625 47.0804 110.451 45.529C111.541 44.9307 112.752 44.5176 113.141 44.6112C114.39 44.911 114.088 46.0745 112.478 47.1593C109.977 48.8467 110.336 49.4875 113.133 48.3316C117.803 46.4023 118.445 46.249 118.964 46.9401C119.316 47.409 119.293 47.9624 118.886 48.8025C118.568 49.4599 118.099 50.7297 117.844 51.6242C117.413 53.13 117.465 53.2888 118.566 53.7736C119.219 54.0614 120.381 54.2389 121.147 54.172C122.723 54.0311 127.805 51.8737 128.318 51.128C128.739 50.5167 130.437 50.4518 130.632 51.0395C130.775 51.473 127.605 53.524 123.884 55.406C121.554 56.5839 117.713 57.5532 117.016 57.1389C116.741 56.9755 116.026 56.6042 115.426 56.3139C114.216 55.7274 113.214 53.2958 113.569 51.8062C113.838 50.676 113.305 50.4881 112.07 51.2778C109.875 52.6818 107.697 52.5503 106.884 50.9648C106.296 49.8177 105.557 49.5267 104.897 50.1827C104.644 50.4343 103.636 50.6958 102.657 50.7643C101.678 50.8326 100.653 50.9263 100.381 50.9722C100.109 51.0182 99.538 50.4889 99.1122 49.7965C98.3484 48.5541 98.31 48.5398 96.2028 48.7119C94.5651 48.8458 93.7672 48.7095 92.7788 48.1272C91.2247 47.2112 90.8372 47.3281 85.4719 50.3335C81.6233 52.4893 78.9135 53.6146 76.5438 54.0415C74.9658 54.3257 75.159 54.3692 74.7023 53.626L74.705 53.6299ZM101.025 38.2676C102.532 37.0983 103.799 35.9959 103.842 35.8177C103.884 35.6392 105.635 34.0899 107.732 32.3741C109.829 30.6583 111.587 29.0803 111.638 28.8674C111.689 28.6546 112.248 28.0313 112.88 27.4824C113.512 26.9335 114.012 26.2812 113.99 26.0328C113.945 25.5184 109.989 28.6424 106.132 32.2388C104.699 33.575 103.352 34.6938 103.139 34.725C102.665 34.7943 98.8372 38.4317 98.7189 38.9247C98.6721 39.1196 98.2992 39.443 97.8898 39.6435C97.4803 39.8441 97.1044 40.1804 97.0538 40.3908C96.8741 41.1396 98.326 40.3632 101.025 38.2676ZM-22.0169 29.6892C-22.2633 28.7514 -20.7291 26.7204 -18.8237 25.4618C-18.268 25.0947 -17.7796 24.6542 -17.7385 24.483C-17.648 24.1062 -12.9129 20.6449 -9.44223 18.4187C-8.05613 17.5297 -5.84694 16.0158 -4.53292 15.0547C-1.83115 13.0784 -1.66463 12.977 4.72544 9.42083C12.1637 5.28117 16.3405 2.58863 17.505 1.18241C18.8645 -0.459417 20.3151 -0.316868 20.1023 1.43738C20.0194 2.12125 20.213 2.66419 20.5705 2.75003C21.3685 2.9416 24.6821 2.14297 25.1948 1.63549C25.9177 0.919834 30.5526 0.325173 32.4817 0.700666C34.0857 1.01306 34.4822 1.27923 35.0872 2.45272C36.4793 5.15202 34.6834 7.95174 29.6363 10.9504C24.1178 14.2291 17.4699 16.323 13.975 15.883C12.5704 15.7062 12.0028 15.4149 11.3977 14.5685C10.6956 13.5839 10.7001 13.2733 11.4452 11.2955C11.898 10.0936 12.5891 8.95314 12.9811 8.761C13.769 8.37482 14.1208 7.59167 13.4732 7.66551C13.2473 7.69116 11.3193 9.0614 9.18882 10.7103C7.05838 12.3593 3.97545 14.6633 2.33785 15.8304C0.70024 16.9975 -1.74714 18.7668 -3.10075 19.762C-5.72203 21.6893 -9.45549 24.1741 -14.5355 27.3725C-20.292 30.9968 -21.5692 31.3922 -22.0168 29.6889L-22.0169 29.6892ZM-13.7158 24.7349C-12.6595 23.8442 -10.2281 22.1955 -8.31268 21.0712C-6.39725 19.9469 -3.38748 17.9405 -1.6243 16.6125C0.138872 15.2845 2.11294 13.8173 2.7625 13.3521C4.86301 11.8479 5.02231 11.7157 5.09404 11.4169C5.13286 11.2553 5.55446 10.8569 6.03077 10.5323C6.50717 10.2075 6.69704 9.89417 6.45295 9.83557C6.20883 9.77696 3.72783 11.2926 0.939651 13.2037C-9.17198 20.1344 -10.6016 21.1292 -11.6655 21.9755C-12.2605 22.4488 -13.0977 23.0647 -13.5259 23.344C-14.4347 23.9368 -16.2634 25.6312 -16.3404 25.9519C-16.5118 26.6659 -15.3873 26.1447 -13.7157 24.7349L-13.7158 24.7349ZM20.0553 12.8437C21.4933 12.403 24.4827 11.1877 26.6983 10.143C30.2091 8.48768 30.8128 8.04201 31.3965 6.67471C31.7648 5.81176 31.9931 4.8846 31.9037 4.61424C31.5095 3.42171 27.0666 3.46362 22.242 4.70902C17.5674 5.91419 16.1849 6.27473 15.9698 6.34472C15.8567 6.38148 15.9254 6.67431 16.1229 6.99544C16.3915 7.43213 16.213 7.81234 15.4135 8.50659C13.996 9.73746 13.0392 11.1742 13.2621 11.737C13.5846 12.5511 15.2291 13.5404 16.3479 13.5934C16.9489 13.6215 18.6171 13.2844 20.0552 12.8437L20.0553 12.8437ZM15.5538 32.4262C15.5139 31.8777 15.6187 30.9209 15.7866 30.2999C16.151 28.9524 15.8486 28.8211 14.1607 29.5939C12.5259 30.3427 8.0268 31.1623 6.95854 30.9058C6.19441 30.7223 5.93751 30.0597 5.77836 27.862C5.72452 27.1184 5.50626 27.1134 3.13652 27.8022C-0.437329 28.8409 -1.98731 28.867 -2.5826 27.8987C-2.84251 27.476 -2.97422 26.7931 -2.87534 26.3812C-2.61176 25.2833 3.00338 21.8645 4.5575 21.8557C5.2807 21.8514 6.22581 21.6568 6.65784 21.4229C7.29371 21.0786 7.66842 21.15 8.6248 21.7982C9.62284 22.4744 9.95247 22.519 10.7477 22.0863C11.5204 21.6656 11.7939 21.6966 12.2729 22.2591C12.8125 22.8927 12.731 23.066 11.194 24.5526C9.17573 26.5047 8.36498 27.7513 9.01263 27.9068C10.0585 28.1579 16.2017 26.6281 17.791 25.7209C21.1174 23.8219 22.5498 25.6928 19.9843 28.5856C19.1534 29.5226 18.5454 30.4061 18.6333 30.549C18.8078 30.8327 21.6053 30.5009 22.0444 30.1443C22.9026 29.4473 26.1661 27.0271 26.7683 26.641C28.3113 25.6516 29.8526 27.797 28.5304 29.0937C28.139 29.4776 27.7381 30.1281 27.6393 30.5397C27.5404 30.9515 27.2087 31.4413 26.902 31.6287C26.5005 31.8741 26.4558 32.0813 26.7424 32.3692C27.204 32.8331 32.625 31.7591 33.6383 31.003C34.015 30.7217 34.5339 30.5398 34.7912 30.5983C35.5559 30.7713 37.8053 29.6163 43.0466 26.3563C47.602 23.5229 50.3874 22.1382 51.1689 22.3186C51.3398 22.3581 51.3509 22.9275 51.1934 23.5839C50.9688 24.5194 50.2243 25.1569 47.7499 26.5326C44.0394 28.5956 41.4836 30.7034 39.9073 33.0007C38.7938 34.6235 38.7859 34.6733 39.5131 35.4932C40.5131 36.6208 40.2172 37.5092 38.7804 37.6923C37.9373 37.7996 37.459 37.6596 37.1178 37.205C36.4163 36.2703 36.057 34.2964 36.4455 33.5108C36.9065 32.579 36.3205 32.522 34.3704 33.3086C26.7725 36.3749 22.8234 36.0146 23.7066 32.3359C23.9539 31.3059 23.4453 31.1133 22.4519 31.8602C20.9753 32.9709 17.899 33.9677 16.7781 33.6986C15.9481 33.4994 15.6063 33.1436 15.5541 32.4249L15.5538 32.4262ZM4.35339 24.8252C6.80704 23.4206 6.8178 22.9227 4.38155 23.5201C3.10042 23.8342 1.3918 25.0148 1.22744 25.6994C1.05491 26.418 2.06339 26.136 4.35339 24.8252ZM67.0874 43.8446C67.072 42.4384 67.8366 40.616 69.5522 37.983C70.3246 36.7961 71.1737 35.3305 71.439 34.7262C71.7041 34.1217 72.2658 33.0437 72.6866 32.3304C73.1075 31.6172 73.396 30.8653 73.3281 30.6597C73.26 30.4543 73.4351 30.2101 73.7166 30.1181C74.2109 29.9559 75.5228 28.4039 75.8543 27.5884C75.943 27.3695 76.1889 26.9377 76.4006 26.6285C77.2397 25.401 77.8095 23.9116 77.471 23.8303C76.8975 23.6927 75.3957 24.8649 75.2228 25.5852C75.1356 25.9483 74.7717 26.4346 74.414 26.6659C74.0566 26.897 72.7545 28.0128 71.521 29.1448C68.6818 31.7507 68.5881 31.8217 64.7062 34.3072C60.2935 37.1327 56.1087 39.2169 53.4877 39.8945C51.7068 40.355 50.692 40.3192 48.0368 39.7026C44.3153 38.8387 43.6222 38.1943 44.3028 36.2339C44.624 35.3093 45.228 34.8004 46.664 34.2452C48.9401 33.3652 49.7544 33.5833 49.7464 35.0707C49.7376 36.7267 51.6772 37.1942 55.2211 36.3904C61.1633 35.0427 61.8082 34.7477 66.4184 31.2657C67.4476 30.4883 68.4358 29.6569 68.6145 29.4179C69.7841 27.8536 78.8175 19.7135 80.016 19.144C81.5628 18.4089 82.3996 19.3915 81.9218 21.3816C81.5976 22.7321 77.7182 29.5157 75.8737 31.9575C74.7683 33.4208 71.7145 38.2838 71.8067 38.4338C71.9105 38.6025 74.8403 35.2531 77.3523 32.0942C80.7813 27.7823 83.1584 25.5674 86.4093 23.6555C91.0116 20.9487 93.6397 20.9676 95.9161 23.7241C97.2086 25.2893 98.251 31.7577 97.6285 34.3506C97.1351 36.4059 95.4115 38.6121 94.475 38.3872C94.2804 38.3405 94.562 36.933 95.1003 35.2592C95.883 32.8261 95.9835 32.0411 95.6003 31.3422C95.3368 30.8614 95.1255 30.2729 95.1307 30.034C95.1447 29.3793 93.999 26.1626 93.6135 25.7751C93.4278 25.5883 92.4538 25.1158 91.4492 24.7242C89.8798 24.1128 89.3881 24.1159 87.958 24.7453C87.0425 25.1482 85.5673 26.2441 84.6797 27.1806C83.7921 28.117 82.5681 29.2215 81.9598 29.6349C81.3514 30.0482 80.8957 30.4877 80.9469 30.6114C80.9979 30.735 80.1981 31.8529 79.1694 33.0955C78.1406 34.338 76.0967 36.8337 74.6274 38.6413C70.71 43.4609 68.5997 45.2683 67.2639 44.9476C67.173 44.9258 67.0937 44.4294 67.0873 43.8445L67.0874 43.8446ZM117.037 41.0161C117.113 40.7012 117.997 39.6832 119.003 38.7541C120.008 37.8251 120.957 36.8034 121.112 36.4838C121.267 36.1643 121.844 35.6056 122.395 35.2422C122.946 34.879 123.443 34.3851 123.501 34.1449C123.671 33.4372 127.947 31.239 129.701 30.9574C130.591 30.8147 131.851 30.7474 132.502 30.808C133.153 30.8687 134.03 30.8562 134.451 30.7809C135.407 30.609 136.765 31.7679 136.567 32.589C136.401 33.284 134.841 33.5784 132.74 33.3119C130.798 33.066 130.027 33.3313 126.392 35.4988C125.151 36.2389 123.449 37.4998 122.611 38.3009C120.839 39.9943 117.962 41.8439 117.334 41.6932C117.095 41.6358 116.961 41.3311 117.037 41.0162L117.037 41.0161Z" fill="white"/>
</svg>
