<svg width="286" height="78" viewBox="0 0 286 78" fill="none" xmlns="http://www.w3.org/2000/svg">
<path opacity="0.7" d="M190.113 0.000389118C189.734 -0.00261085 189.319 0.0118202 188.865 0.0407532C186.296 0.204328 185.351 0.532107 183.385 1.94047C182.078 2.87652 180.452 4.23062 179.771 4.9502C179.091 5.66976 177.08 7.78946 175.302 9.66043C173.524 11.5314 171.518 13.7814 170.843 14.6604C169.644 16.2237 169.509 16.2653 164.672 16.5757C161.468 16.7813 158.983 16.6904 157.612 16.3166C155.64 15.7788 155.542 15.6736 156.179 14.7652C157.506 12.8705 162.225 9.57914 167.151 7.11293C169.457 5.95859 169.508 5.89505 167.894 6.18716C165.532 6.61465 160.939 9.13216 157.57 11.8466C155.33 13.6506 154.779 14.3805 154.779 15.538C154.779 16.7814 155.018 17.0356 156.511 17.3771C157.463 17.5951 160.435 17.6482 163.114 17.495C168.584 17.1821 168.47 17.0043 165.25 20.8569C163.076 23.4569 162.657 23.6515 162.217 22.2638C161.688 20.597 160.515 20.635 159.468 22.3523C158.369 24.1553 158.202 26.1852 159.08 27.0632C159.535 27.5187 159.956 27.4679 160.936 26.8373C161.633 26.3888 162.38 25.7223 162.598 25.3568C162.824 24.9771 163.844 24.6928 164.978 24.6928C166.175 24.6928 166.841 24.4965 166.656 24.198C166.488 23.9258 165.905 23.7026 165.361 23.7026C164.541 23.7026 164.822 23.1568 166.999 20.5177C168.444 18.7657 170.019 17.1908 170.499 17.0178C170.98 16.8447 171.261 16.5228 171.125 16.3029C170.989 16.083 173.826 12.8799 177.428 9.18452C184.187 2.25198 186.101 0.937227 189.439 0.937227C192.11 0.937227 193.011 1.59659 192.752 3.36298C192.215 7.01837 183.177 13.0259 174.946 15.1981C170.971 16.247 170.896 16.9097 174.857 15.9859C178.21 15.2036 185.53 11.8671 188.185 9.91107C191.567 7.41891 193.629 4.84594 193.629 3.11689C193.629 0.861495 192.764 0.0204022 190.113 0.000389118ZM90.8722 2.54658C90.5893 2.55308 90.199 2.59285 89.6977 2.67223C86.4721 3.18303 81.5021 5.82324 74.401 10.7978C66.5178 16.3202 66.2316 16.4692 64.8796 15.7456C62.7513 14.6066 35.9553 11.3113 30.8918 11.566C25.9137 11.8164 24.1199 12.5359 23.0969 14.6916C20.8704 19.3837 26.0009 23.7756 35.436 25.2546C40.5355 26.054 48.4936 25.4868 53.1747 23.9903C56.5824 22.901 64.7116 18.9907 66.2872 17.6831C66.9613 17.1237 69.7262 17.5742 70.1862 18.3185C70.606 18.9978 69.1811 21.0044 66.5176 23.4851C65.2582 24.6582 64.3762 25.7661 64.5574 25.9473C64.8868 26.2768 68.6652 23.5725 69.694 22.2709C70.2865 21.5215 78.8099 21.1398 78.8098 21.8628C78.8098 22.0757 79.3113 22.4359 79.9237 22.6635C81.2825 23.1684 84.7224 22.2151 89.2029 20.0913C94.5239 17.5691 94.3879 17.614 93.6273 18.6206C92.2264 20.4748 90.694 21.7234 89.8188 21.7234C89.2395 21.7234 88.6941 22.3099 88.3234 23.3315C88.0023 24.2161 86.8995 25.9613 85.8729 27.2097C84.8463 28.4581 83.4499 30.2232 82.7694 31.1315C82.0889 32.0399 81.0809 33.2452 80.5298 33.8105C79.9788 34.3758 78.7718 35.8964 77.8476 37.1894C76.9234 38.4823 76.0382 39.5457 75.8802 39.5533C75.7222 39.5606 75.0473 40.4516 74.3802 41.5331C73.5006 42.9589 72.8204 43.5107 71.9056 43.5402C68.879 43.6379 28.4938 50.2117 17.4408 52.406C13.278 53.2324 3.53049 55.0839 0.11937 55.6963C-0.561134 55.8185 -1.89794 56.1223 -2.85065 56.3714C-3.80334 56.6205 -6.36437 57.1519 -8.54198 57.5518C-13.9582 58.5464 -14.6963 58.6962 -20.9149 60.0635C-23.9091 60.7218 -26.9153 61.3707 -27.5958 61.5055C-30.1234 62.0062 -37.8607 63.7895 -41.4537 64.7001C-43.4952 65.2175 -46.9472 66.0289 -49.1248 66.5028C-51.3024 66.9768 -56.2019 68.0881 -60.0127 68.9722C-72.8827 71.9581 -82.1215 73.5762 -85.5111 73.4383C-88.3635 73.3222 -88.6973 74.0279 -86.8548 76.2775C-85.6163 77.7896 -84.4903 77.9255 -80.9467 76.9903C-76.809 75.8984 -77.5282 75.1634 -81.7716 76.1472C-83.6219 76.5763 -85.0052 76.1744 -85.0052 75.2078C-85.0052 75.021 -82.9457 74.59 -80.4278 74.2501C-74.3406 73.4284 -68.9942 72.2949 -52.0942 68.2443C-46.378 66.8743 -40.6988 65.5247 -39.4739 65.245C-38.249 64.9654 -33.906 63.9537 -29.823 62.997C-22.3571 61.2477 -6.85233 58.0435 2.3459 56.3487C5.06791 55.8471 8.76514 55.1079 10.5613 54.7061C12.3575 54.3042 14.4727 53.8697 15.2624 53.7406C17.2214 53.4203 18.8416 53.1331 28.5767 51.3813C33.2041 50.5486 39.0658 49.5456 41.6032 49.1521C44.1407 48.7586 47.1475 48.2317 48.2848 47.9816C50.4022 47.5159 69.1609 44.7508 73.6133 44.2479C74.9743 44.0942 78.7602 43.5396 82.0266 43.0155C85.293 42.4913 89.0795 41.9363 90.4405 41.7818C91.8015 41.6273 93.8055 41.3929 94.8943 41.2616C112.156 39.1801 118.237 38.5049 123.847 38.0468C127.522 37.7467 133.869 37.1887 137.952 36.8066C146.426 36.0135 157.391 35.1598 163.192 34.8411C168.608 34.5437 185.414 33.6622 191.155 33.3743C193.741 33.2447 201.981 32.9058 209.466 32.6217C216.952 32.3376 228.533 31.8785 235.202 31.6009C250.079 30.9817 262.084 30.8591 262.828 31.319C263.699 31.8574 266.798 32.1475 267.065 31.7155C267.657 30.758 266.26 29.9954 263.347 29.6869C259.869 29.3185 257.922 28.3004 257.054 26.3946C256.149 24.4091 256.352 23.3481 257.7 23.0099C259.584 22.5368 264.78 17.9518 265.884 15.7873C267.786 12.0599 266.645 10.614 263.602 12.8948C260.709 15.0625 256.872 19.0535 255.93 20.8738C255.347 21.9995 254.275 23.0739 253.242 23.5665C250.929 24.6694 250.254 23.9459 251.573 21.7781C252.125 20.8697 252.685 20.2355 252.817 20.368C253.496 21.0469 262.238 12.3854 263.201 10.079C263.889 8.43232 263.813 7.37074 263.006 7.37074C262.535 7.37074 257.472 12.1008 257.472 12.5413C257.472 12.7345 256.638 13.7217 255.617 14.7352C254.596 15.7488 252.898 17.6438 251.844 18.9468C249.959 21.2755 247.528 22.7043 244.213 23.4324C242.979 23.7036 242.555 23.5997 242.312 22.9663C241.926 21.96 243.05 19.7436 243.946 19.7436C244.553 19.7436 244.827 19.106 244.652 18.0985C244.613 17.8741 244.816 17.8366 245.105 18.0151C245.687 18.3745 249.054 15.2026 250.01 13.3948C250.346 12.761 250.489 11.9018 250.329 11.4853C250.074 10.8192 249.875 10.8332 248.683 11.5999C246.902 12.7446 244.868 15.0211 242.626 18.3791C241.945 19.398 241.165 20.2387 240.893 20.2462C240.621 20.2541 239.841 20.6957 239.161 21.228C237.684 22.3829 233.167 22.602 232.303 21.5607C231.344 20.4052 233.097 16.2798 234.547 16.2788C234.771 16.2787 236.016 15.2463 237.314 13.9846C239.898 11.4718 241.416 8.80353 240.951 7.59144C240.714 6.97359 240.181 7.25145 238.35 8.9482C237.083 10.122 235.8 11.3784 235.5 11.7398C235.2 12.1013 234.342 13.0805 233.593 13.9162C232.845 14.752 232.232 15.6523 232.232 15.9162C232.232 16.1802 231.586 17.132 230.796 18.0321C229.512 19.4935 229.332 19.5669 229.109 18.7163C228.937 18.0589 228.425 17.7625 227.453 17.7612C226.077 17.7589 221.34 19.2043 220.849 19.7762C220.638 20.0223 218.3 21.2808 215.355 22.7332C214.129 23.3379 209.804 23.4783 209.617 22.9194C209.526 22.6451 209.9 21.9391 210.449 21.3504C211.402 20.3277 211.809 18.7534 211.12 18.7534C210.941 18.7534 209.883 19.7001 208.769 20.8569C206.431 23.2855 204.977 24.198 203.442 24.198C202.394 24.198 202.406 24.1419 203.775 22.713C205.347 21.0723 206.283 20.7712 205.786 22.0665C205.512 22.7806 205.633 22.7623 206.599 21.9428C208.127 20.6473 208.46 20.1464 208.469 19.1252C208.482 17.6062 207.13 18.1837 204.096 20.9923C201.389 23.4984 200.717 24.6514 201.692 25.1173C202.349 25.4309 205.618 24.6428 206.757 23.8966C207.741 23.2521 207.896 23.2609 208.17 23.976C208.502 24.8405 210.179 24.7452 215.022 23.5867C216.857 23.1478 217.619 23.1663 218.565 23.6726C220.182 24.5379 224.194 23.6357 227.44 21.6772C228.751 20.886 229.898 20.2384 229.99 20.2384C230.081 20.2384 230.398 20.9355 230.695 21.7872L231.235 23.3354L235.171 23.1075C237.335 22.9822 239.432 22.6092 239.831 22.2781C240.435 21.7769 240.612 21.9284 240.888 23.1843C241.166 24.4492 241.455 24.6928 242.677 24.6928C243.479 24.6928 245.354 24.2641 246.844 23.7403L249.554 22.7879V24.0528C249.554 25.2308 249.682 25.2998 251.41 25.058C252.431 24.9152 253.587 24.719 253.979 24.6218C254.376 24.5233 254.785 24.8765 254.902 25.4193C255.018 25.955 255.651 27.1001 256.31 27.9642L257.509 29.5358L253.655 29.8366C251.536 30.0023 247.24 30.24 244.11 30.3646C218.808 31.3716 213.769 31.5623 198.33 32.0963C190.437 32.3694 182.42 32.7088 180.514 32.8509C175.925 33.1932 170.864 33.4989 163.934 33.8522C150.619 34.531 119.971 37.1979 110.237 38.5247C108.331 38.7844 105.325 39.1346 103.556 39.3026C99.6177 39.6767 86.086 41.3698 82.0266 41.9966C80.3934 42.2488 78.0746 42.5873 76.8736 42.7486L74.6901 43.0415L76.6263 40.8827C79.1458 38.0734 81.9783 34.5662 82.2089 33.97C82.3089 33.7112 83.088 32.7646 83.9406 31.8665C84.7932 30.9684 86.2704 29.1889 87.2231 27.9122C91.2508 22.5145 91.5398 22.3141 95.6371 22.0685C97.6786 21.9461 99.7635 21.6737 100.27 21.463C101.094 21.1208 101.155 21.2507 100.841 22.6804L100.489 24.2807L102.641 24.1433C103.824 24.0679 105.321 23.6722 105.966 23.2638C106.625 22.8467 108.035 22.5695 109.182 22.631C110.307 22.6912 111.868 22.3977 112.653 21.9793C113.956 21.2847 114.133 21.2917 114.693 22.0574C115.267 22.8423 115.461 22.8344 117.718 21.9383C119.045 21.4116 120.27 20.9158 120.441 20.8367C120.612 20.7575 120.87 21.1461 121.014 21.7C121.249 22.5958 121.543 22.6728 123.676 22.3966C124.995 22.2258 126.798 21.7931 127.682 21.435C129.236 20.806 129.291 20.8252 129.291 21.9962C129.291 23.5598 130.292 23.5505 132.171 21.9695C134.877 19.6928 137.765 14.2997 136.278 14.2997C136.038 14.2997 134.95 15.1907 133.861 16.2795C132.772 17.3683 131.663 18.2586 131.395 18.2586C131.128 18.2586 130.344 18.7031 129.654 19.2462C128.158 20.4226 123.288 21.7903 122.667 21.2084C122.419 20.9762 122.795 19.8336 123.536 18.5698C125.292 15.5731 124.393 15.2185 121.751 17.8661C119.23 20.3937 117.572 21.7234 116.942 21.7234C115.827 21.7234 116.067 20.6944 117.669 18.5965C118.617 17.3547 119.393 16.2138 119.393 16.0614C119.393 15.3406 118.322 15.9719 116.114 17.9943C114.787 19.2097 113.311 20.5458 112.835 20.9637C112.049 21.6526 108.505 22.0704 108.505 21.4741C108.505 21.337 108.95 20.3935 109.494 19.3778C111.173 16.2456 110.532 14.4957 108.253 15.9891C107.594 16.4209 106.705 16.7743 106.278 16.7743C105.851 16.7743 104.863 17.4277 104.082 18.2267C103.301 19.0257 101.693 19.9405 100.51 20.2593C97.612 21.04 93.6573 21.3184 93.6573 20.7416C93.6573 20.3072 100.443 13.2778 103.803 10.2314C105.692 8.51884 107.515 6.34632 107.515 5.80761C107.515 4.80941 106.067 5.54909 104.212 7.49444C103.11 8.65128 101.564 10.2094 100.778 10.9566C99.9921 11.7038 99.126 12.5477 98.8538 12.8316C95.3496 16.4863 85.1039 21.7234 81.4582 21.7234C79.8056 21.7234 80.0074 20.4775 81.7792 19.7436C82.2614 19.5439 82.6329 19.3145 82.884 19.1017C85.0665 17.7922 86.6043 16.9336 88.5584 15.5367C88.8992 15.2645 89.759 14.5967 90.4692 14.0523C92.2191 12.7108 95.6576 9.09409 96.7328 7.46384C98.6421 4.5687 97.3008 3.56519 93.7647 5.24316C91.4853 6.32479 79.7994 18.0586 79.7994 19.2658C79.7994 19.828 76.5338 20.7268 74.4791 20.7306C73.4944 20.7323 72.8711 20.486 72.8711 20.0952C72.8711 19.7441 75.9886 16.3485 79.7994 12.5497C83.6102 8.75086 86.7283 5.39905 86.7283 5.10124C86.7283 4.80341 87.675 4.26253 88.8318 3.89943C91.3102 3.12155 92.0979 2.51842 90.8722 2.54658ZM96.1449 5.41438C96.2556 5.41032 96.3404 5.43478 96.3962 5.49056C96.755 5.84935 95.2835 8.85575 94.7491 8.85575C94.5469 8.85575 94.0515 9.38892 93.6482 10.0406C92.8128 11.3905 88.6385 14.7877 86.382 15.9546C86.0538 16.1243 85.7255 16.3564 85.4295 16.6076L82.632 18.3966L82.6203 18.4201C82.5073 18.4419 82.3842 18.4716 82.2388 18.5177C81.2551 18.83 81.2601 18.7875 82.3625 17.4728C86.9391 12.0149 94.4845 5.47544 96.1449 5.41438ZM84.9106 5.50423C84.9842 5.50223 85.0375 5.51523 85.0669 5.54459C85.1954 5.67307 84.2297 6.74553 82.9211 7.92803C81.6125 9.11052 78.8606 11.8072 76.8053 13.9208C74.7499 16.0344 72.9679 17.7417 72.8457 17.7144C70.3668 17.1599 68.687 16.7145 68.5476 16.5751C68.3913 16.4188 70.1263 15.1799 79.0572 9.06864C80.4182 8.13732 81.7685 7.18151 82.0578 6.94496C82.9137 6.24527 84.396 5.51767 84.9106 5.50423ZM204.263 6.87596C202.286 6.87596 199.338 9.28724 194.368 14.9696C192.737 16.8351 191.05 18.7453 190.62 19.215C189.287 20.6717 181.364 22.9073 179.376 22.3875C178.166 22.071 177.887 21.228 178.993 21.228C179.716 21.228 181.256 18.6443 181.256 17.4318C181.256 16.4614 176.861 18.7795 173.266 21.646C168.976 25.0664 169.548 26.3727 174.284 23.9727C175.603 23.3045 176.808 22.8833 176.962 23.0372C177.522 23.5972 183.622 23.2028 185.691 22.4728C188.601 21.446 188.926 21.522 187.957 23.0008C187.497 23.7032 187.242 24.5936 187.39 24.9799V24.9806C187.793 26.0321 189.766 25.8277 191.363 24.5691C195.061 21.6561 194.557 21.8167 196.693 22.8738C198.007 23.5241 198.805 23.6751 199.142 23.3374C199.48 22.9996 199.148 22.664 198.121 22.3061C196.957 21.9006 196.599 21.4772 196.599 20.5119C196.599 18.7579 195.612 18.9354 193.978 20.9826C192.546 22.7771 188.68 25.116 188.68 24.1876C188.68 23.5714 189.386 22.635 191.316 20.6877C192.187 19.8097 192.571 19.0376 192.334 18.6441C192.029 18.136 192.109 18.1369 192.74 18.6479C193.402 19.184 193.906 19.0302 195.929 17.6727C199.215 15.4671 204.846 9.89645 205.468 8.23664C205.962 6.91582 205.927 6.87598 204.263 6.87598V6.87596ZM203.732 7.86553C205.605 7.86553 202.142 11.8647 196.447 16.2795C193.829 18.3091 191.946 18.6108 194 16.6714C194.477 16.2218 195.114 15.5601 195.417 15.2007C197.372 12.8828 203.059 7.86553 203.732 7.86553ZM261.718 10.4807C261.734 10.4837 261.747 10.4906 261.757 10.5009C261.926 10.6695 261.309 11.7939 260.387 13.0002C259.465 14.2066 258.614 15.1008 258.496 14.9872C258.379 14.8736 257.618 15.3963 256.804 16.1486L255.324 17.5165L256.368 16.0315C258.012 13.6947 261.218 10.3844 261.718 10.4807V10.4807ZM238.836 10.8349C239.089 10.8349 238.762 11.3364 238.109 11.9488C235.264 14.6182 234.146 15.327 236.171 13.178C237.384 11.8896 238.584 10.8349 238.836 10.8349ZM33.1704 12.4866C37.6845 12.5354 44.3277 13.3171 55.7964 15.0451C58.5184 15.4553 61.8035 15.9315 63.0965 16.1037C64.3894 16.2759 65.4473 16.5661 65.4473 16.7482C65.4473 16.9304 64.5007 17.5386 63.3439 18.0998C62.187 18.6609 59.6892 19.9692 57.7931 21.0066C55.8971 22.0441 53.1135 23.1895 51.607 23.5528C48.793 24.2314 38.8387 24.7629 35.7524 24.3992C32.0362 23.9613 27.1949 22.0208 25.522 20.2983C22.4436 17.1286 23.6333 13.6681 28.0813 12.8544C29.5065 12.5937 31.1185 12.4644 33.1704 12.4866ZM264.875 13.9149C266.167 13.8172 263.559 17.6631 260.293 20.2638C257.518 22.4731 256.669 22.732 257.537 21.1043C258.291 19.6893 262.873 14.8584 264.073 14.2131C264.426 14.023 264.69 13.9289 264.875 13.9149ZM247.485 14.9253C247.548 14.9529 247.266 15.2683 246.622 15.967C245.283 17.4211 245.018 17.563 245.372 16.6395C245.505 16.2934 246.111 15.7076 246.718 15.3374C247.179 15.0566 247.437 14.9039 247.485 14.9253ZM108.557 17.2691C108.801 17.2691 109 17.5606 109 17.9168C109 18.2731 108.673 18.9972 108.273 19.5255C107.646 20.3543 107.544 20.3725 107.53 19.6603C107.508 18.4958 108.035 17.2691 108.557 17.2691ZM133.6 18.0601C133.83 18.1061 133.524 18.6641 132.721 19.7912C131.608 21.3547 131.017 21.5813 130.637 20.5906C130.502 20.2385 131.143 19.4604 132.068 18.8537C132.916 18.2979 133.42 18.0243 133.6 18.0601ZM105.468 18.9754C105.487 18.9767 105.503 18.9809 105.516 18.9891C106.213 19.4202 106.407 21.7 105.79 22.2124C104.958 22.9032 102.071 23.4271 102.071 22.8875C102.071 22.1687 104.906 18.9384 105.468 18.9754ZM226.806 18.9976C227.095 19.0147 227.324 19.0921 227.471 19.2384C228.121 19.8889 226.04 21.5127 223.359 22.4454C219.892 23.6519 219.387 23.3873 221.509 21.476C223.169 19.9814 225.552 18.9232 226.806 18.9976ZM176.019 21.3003C176.043 21.3045 176.063 21.3145 176.078 21.3296C176.198 21.4499 176.015 21.934 175.67 22.4057C175.325 22.8774 174.893 23.1129 174.709 22.9291C174.525 22.7454 174.709 22.2613 175.117 21.853C175.474 21.4957 175.85 21.2703 176.019 21.3003ZM160.87 23.3185C161.1 23.2954 161.354 23.3992 161.608 23.6524C162.019 24.0642 161.879 24.4928 161.069 25.3028L159.975 26.3972V25.0795C159.975 24.0353 160.364 23.3693 160.87 23.3185ZM283.546 27.2169C283.227 27.2189 282.92 27.2865 282.674 27.4389C282.262 27.6933 282.441 28.0782 283.264 28.711C284.626 29.7572 285.297 29.6932 285.472 28.5C285.574 27.8016 284.504 27.2113 283.546 27.2169Z" fill="white"/>
</svg>
