<svg width="131" height="72" viewBox="0 0 131 72" fill="none" xmlns="http://www.w3.org/2000/svg">
<path opacity="0.7" d="M126.779 68.5604C122.86 66.5685 119.826 64.7441 120.342 64.69C120.631 64.6596 121.134 64.8303 121.459 65.0692C121.784 65.3082 122.471 65.6386 122.985 65.8036C123.499 65.9685 125.66 66.7873 127.788 67.623C134.66 70.3226 141.426 70.8832 145.427 69.0844C146.805 68.4649 146.927 68.2935 147.009 66.8599C147.107 65.1364 146.076 62.2577 143.912 58.2093C142.128 54.8732 139.823 49.1106 139.021 45.9818C138.202 42.7837 138.15 38.2919 138.905 35.9772L139.512 34.1196L132.145 38.7312C128.094 41.2676 124.733 43.5296 124.678 43.7578C124.532 44.3577 119.809 48.7754 118.528 49.5113C117.348 50.1887 116.222 49.9799 115.879 49.0204C115.559 48.1268 117.845 45.8798 121.064 43.9239C123.966 42.1606 124.274 41.6878 123.756 39.7913C123.446 38.654 123.352 38.5976 121.767 38.5962C119.838 38.5946 118.883 38.818 117.28 39.6462C116.108 40.2513 115.308 40.7821 110.315 44.2681C106.839 46.6939 105.6 47.2937 104.945 46.8661C104.195 46.3758 104.858 43.9805 106.242 42.1847C107.709 40.2806 109.166 37.7707 109.399 36.7477C109.867 34.6874 106.564 33.3792 101.305 33.5419L98.6852 33.623L98.0625 35.2557C97.3751 37.0578 95.2026 40.3888 94.2506 41.1003C93.9156 41.3507 93.4678 41.8296 93.2556 42.1645C93.0434 42.4995 92.3879 42.8411 91.799 42.9237C88.4566 43.3926 86.9749 41.5199 87.9552 38.0656C88.4792 36.2188 88.4691 35.9999 87.8744 36.3112C86.6725 36.9404 82.998 37.7681 81.1788 37.8195C79.1816 37.876 77.9601 37.3833 76.706 36.0157C76.2317 35.4985 75.6993 35.1655 75.5229 35.2757C75.3465 35.3859 75.3968 35.1857 75.6347 34.8308C75.9044 34.4283 75.9023 34.2415 75.6291 34.3343C75.3882 34.4162 74.7424 33.7681 74.194 32.8942L73.1969 31.3051L71.6232 34.2087C69.2262 38.6315 68.2515 39.6439 67.4127 38.582C67.0631 38.1393 67.1863 37.3203 68.0173 34.5632C69.7039 28.967 72.92 22.5756 76.3731 17.9577C76.9616 17.1707 77.4588 16.4558 77.478 16.3692C77.4973 16.2825 76.7043 16.4047 75.7159 16.6407C69.2076 18.1946 64.7526 17.1911 62.9862 13.7734L62.3909 12.6215L61.7796 13.848C61.4434 14.5225 61.1029 15.237 61.0229 15.4357C60.943 15.6344 60.8082 15.9144 60.7234 16.0579C60.4304 16.5541 60.3001 16.8581 59.5675 18.753C59.0809 20.0117 58.6502 20.6156 58.2951 20.5368C57.9999 20.4714 57.7958 20.2491 57.8415 20.0428C57.8873 19.8365 58.1066 19.708 58.3289 19.7573C58.5513 19.8066 58.6636 19.6523 58.5785 19.4143C58.3648 18.8163 60.3707 13.7662 61.3875 12.3427C62.3847 10.9464 62.9839 11.0015 63.9323 12.5765C65.5468 15.2579 68.1388 16.223 72.5037 15.7681C76.69 15.3317 78.8531 14.4722 80.3046 12.6684C80.7635 12.0982 81.2773 11.7217 81.4465 11.8318C81.8834 12.1162 82.6252 11.2851 82.5711 10.5718C82.5072 9.72973 85.2896 6.68576 86.0997 6.71154C86.4677 6.7232 86.876 7.1049 87.007 7.55963C87.3212 8.65002 85.7303 10.7992 82.9033 13.1034C81.0925 14.5794 79.4629 16.4476 77.653 19.1225C74.1372 24.3187 72.0079 28.2194 70.287 32.6165C69.1938 35.4097 69.3045 35.9922 70.4972 33.7229C70.9694 32.8246 71.4865 32.1185 71.6463 32.1539C71.8061 32.1894 71.8978 31.9669 71.8501 31.6596C71.8023 31.3523 72.0792 30.9035 72.4652 30.6623C72.8512 30.4211 73.1059 30.1296 73.0312 30.0145C72.9565 29.8996 73.457 28.8995 74.1434 27.7923C75.3751 25.8056 77.1926 24.0238 78.993 23.0382C79.7808 22.6069 82.3104 21.9258 82.7569 22.0248C83.11 22.1031 84.4839 24.2607 84.7071 25.0875C84.9998 26.172 84.6115 28.2036 84.0766 28.3854C83.8692 28.4559 83.4952 28.9722 83.2456 29.5328C82.7264 30.6988 78.8221 33.5812 77.6253 33.6822C76.9781 33.7368 76.8985 33.8609 77.2065 34.3351C77.8708 35.3581 79.0096 36.1474 80.2028 36.4119C81.5353 36.7073 84.9418 36.4205 85.7946 35.9411C86.1131 35.7621 87.2028 35.2682 88.2163 34.8436C90.4295 33.9165 93.3226 31.4503 92.4294 31.2523C91.3735 31.0182 90.7677 26.9522 91.6646 26.1185C93.0932 24.7906 96.6223 24.9393 97.9678 26.384C98.9069 27.3924 99.4003 29.4814 99.0609 31.0121C98.7426 32.4479 98.8169 32.4888 101.233 32.2082C102.214 32.0944 104.274 32.1724 105.811 32.3816C108.288 32.7187 108.719 32.8858 109.603 33.8494C110.151 34.4475 110.775 34.8774 110.989 34.8046C111.793 34.5314 110.112 39.332 108.696 41.3545C105.762 45.5443 105.846 45.7566 109.508 43.3921C111.323 42.2205 112.836 41.1333 112.871 40.976C112.906 40.8188 114.027 40.0262 115.364 39.2148C118.078 37.5668 121.228 36.771 123.256 37.2208C124.572 37.5125 124.74 37.7054 125.683 40.0017C126.02 40.8216 126.374 40.6599 132.363 36.9574C139.559 32.5088 141.708 30.8173 143.396 28.2744C144.775 26.1957 145.799 25.3762 146.753 25.5877C148.521 25.9796 146.761 29.0908 143.803 30.8019C142.869 31.3424 142.686 31.6201 142.942 32.1089C143.196 32.5919 143.155 32.6777 142.758 32.4959C142.392 32.3283 141.921 32.9921 141.092 34.8445C139.058 39.3875 139.435 43.8362 142.512 51.6029C143.358 53.7383 144.625 56.5867 145.327 57.9327C147.789 62.6532 148.944 66.1251 148.588 67.7313C148.2 69.48 142.42 72.4295 141.364 71.4177C141.213 71.2731 140.994 71.3121 140.878 71.5042C140.508 72.113 129.069 69.7244 126.779 68.5604L126.779 68.5604ZM118.594 47.6775C118.639 47.4712 118.601 47.2857 118.508 47.2651C118.416 47.2446 118.196 47.3731 118.021 47.5506C117.845 47.7281 117.884 47.9137 118.106 47.963C118.328 48.0123 118.548 47.8838 118.594 47.6775ZM92.6754 40.5864C94.1306 39.6473 95.6525 37.5214 96.8893 34.7005L97.4003 33.5349L95.729 33.1706C94.8097 32.9706 93.8504 32.8903 93.597 32.9931C92.5745 33.408 89.9168 37.222 89.6608 38.6419C89.1629 41.4031 90.2868 42.1281 92.6753 40.5866L92.6754 40.5864ZM119.798 46.5469C120.002 46.242 119.972 46.0772 119.726 46.1606C119.491 46.2407 119.263 46.465 119.22 46.6591C119.1 47.1986 119.4 47.1404 119.798 46.5469ZM78.7676 31.2733C81.1327 29.8033 82.4335 28.3382 82.7862 26.7471C83.4757 23.637 81.7083 22.8604 78.5892 24.9031C77.4381 25.657 76.3274 26.5618 76.1209 26.9137C75.9144 27.2657 75.5853 27.5181 75.3895 27.4747C74.9672 27.3811 74.5992 28.7493 74.9734 29.0221C75.1155 29.1258 75.3894 29.9095 75.5819 30.7638C75.7744 31.6181 76.1237 32.3596 76.3581 32.4115C76.5924 32.4635 77.6767 31.9513 78.7676 31.2733L78.7676 31.2733ZM97.7342 30.9439C97.8172 29.4227 97.2322 27.6573 96.4828 27.1677C96.204 26.9855 95.3712 26.8148 94.6321 26.7883C93.1002 26.7333 92.4585 27.5485 92.8515 29.0501C93.0602 29.8474 93.3626 30.0593 94.5098 30.2117C95.2816 30.3142 95.9863 30.6033 96.0759 30.854C96.1655 31.1048 96.0114 31.2719 95.7334 31.2255C95.0914 31.1184 96.4058 32.0028 97.1256 32.1623C97.5229 32.2504 97.6802 31.9356 97.7342 30.944L97.7342 30.9439ZM117.558 63.1883C117.603 62.982 117.813 62.8513 118.023 62.8978C118.233 62.9444 118.367 63.1512 118.321 63.3575C118.275 63.5638 118.066 63.6945 117.856 63.648C117.646 63.6014 117.512 63.3946 117.558 63.1883ZM54.3326 40.2133C53.7966 39.6607 53.8524 37.9952 54.5118 34.8663C55.0937 32.1051 55.0835 32.0251 53.9483 30.457C51.9985 27.7638 47.7349 25.7864 43.674 25.6919C42.3178 25.6603 42.1562 25.7682 41.9226 26.8611C41.781 27.5233 41.6747 28.7695 41.6864 29.6304C41.6996 30.6043 41.5347 31.3275 41.2499 31.5445C40.6163 32.0275 39.002 31.2732 37.644 29.8597L36.5051 28.6744L36.1746 29.5937C35.9928 30.0993 35.626 30.4646 35.3594 30.4055C35.0156 30.3293 35.0305 29.8099 35.4108 28.6183L35.9469 26.9386L34.9284 27.3148C32.3698 28.26 25.2689 27.4271 23.1645 25.9349C22.5869 25.5253 22.4979 25.681 22.1464 27.7163C21.8352 29.5173 21.638 29.9426 21.1215 29.9265C20.4102 29.9043 20.3378 29.4879 20.4677 26.1664C20.5208 24.8097 20.3274 23.6097 19.9947 23.2314C19.3916 22.5456 19.35 22.5812 17.3059 25.5291C16.1206 27.2386 13.5512 28.0314 10.9671 27.4849C8.43939 26.9504 6.69241 25.6453 4.47274 22.6333C3.64636 21.512 2.6968 20.2846 2.36261 19.9059C1.58052 19.0195 0.324841 15.7487 0.486578 15.0191C0.585812 14.5715 0.79301 14.5759 1.50906 15.0406C2.8903 15.9371 3.90692 16.0321 5.99548 15.4597C7.05076 15.1705 8.87082 14.6831 10.0401 14.3766C12.4732 13.7387 12.7485 13.6477 16.9278 12.0987C21.4824 10.4107 21.4495 10.4435 23.7372 5.30054C23.9782 4.75878 24.3004 4.34324 24.4533 4.37713C24.6062 4.41103 25.072 3.85026 25.4885 3.13098C26.4419 1.48425 28.1589 0.742785 30.1756 1.10693C31.0367 1.26244 32.0828 1.32655 32.5001 1.24943C33.5801 1.04985 34.0223 1.87869 33.2863 2.72304C32.9646 3.09215 32.7347 3.72422 32.7754 4.12767C32.8302 4.67109 32.7833 4.7098 32.5945 4.277C31.9445 2.78642 25.1755 16.6986 23.9842 21.9737L23.4356 24.4026L25.3575 25.3952C26.8745 26.1786 27.8327 26.4235 29.9055 26.5573C35.3877 26.9112 36.3505 26.606 36.8935 24.342C37.1018 23.4734 37.9121 20.0712 38.6941 16.7817C39.7702 12.2546 40.4358 10.2021 41.4322 8.33803C42.1562 6.98354 42.8558 5.81052 42.9869 5.73137C43.1179 5.6522 43.6848 5.03666 44.2466 4.36345C45.6471 2.68516 47.8622 1.32459 49.8687 0.910111C52.1268 0.443668 52.8618 0.656627 53.1244 1.8535C53.3647 2.94869 53.164 3.20553 49.6854 6.25281C47.7768 7.92485 44.5197 10.0063 43.9942 9.88979C43.5016 9.78057 44.7459 8.47355 45.4368 8.37448C45.7632 8.32769 46.0796 8.06634 46.1401 7.79372C46.2005 7.52109 46.5236 7.12468 46.858 6.91282C48.0509 6.15702 51.7861 2.50187 51.6227 2.25022C51.4035 1.9127 49.376 2.28648 48.2225 2.87711C46.6287 3.6931 45.2102 5.18861 43.5203 7.83457C42.0281 10.1711 41.7071 11.0728 39.9875 17.7576C38.9472 21.8018 38.1698 25.1267 38.2599 25.1464C39.2244 25.3577 41.1418 24.6813 41.7002 23.9336C43.2809 21.8168 45.8408 20.9244 48.5879 21.5325C49.555 21.7465 50.4431 21.636 51.278 21.1976C52.4546 20.5799 52.5637 20.366 53.2264 17.3767C53.743 15.0462 54.1304 14.0532 54.6935 13.6159C55.377 13.0851 55.4195 13.0886 55.0912 13.6493C54.868 14.0304 54.8988 14.2174 55.1695 14.1254C55.4146 14.0421 55.5844 13.6482 55.5468 13.2501C55.4566 12.2965 56.4538 11.0498 57.7605 10.4826C58.57 10.1312 59.0143 10.1595 59.7032 10.6067C60.5158 11.1341 60.5475 11.3374 60.0542 12.8602C59.4514 14.7209 57.1213 17.7295 55.3541 18.9287L54.2029 19.7099L54.1773 23.0217C54.1631 24.8432 54.0121 26.4206 53.8418 26.527C53.6714 26.6335 52.5284 25.9265 51.3018 24.9559L49.0715 23.1913L47.3237 23.9459L45.5759 24.7006L48.6966 25.5711C51.8285 26.4447 53.9864 27.7629 55.1054 29.4859C55.5451 30.1628 55.6585 29.906 56.4849 26.3615C56.9802 24.2374 57.4383 22.1129 57.503 21.6402C57.5677 21.1676 57.7907 20.8186 57.9986 20.8647C58.2168 20.9131 58.0916 22.2586 57.7026 24.0455C57.3314 25.7488 57.027 27.2307 57.0254 27.3386C57.0237 27.4465 56.853 28.5082 56.646 29.6981C56.3929 31.1528 56.4426 32.1597 56.7979 32.7714C57.7401 34.3938 56.2304 40.9546 54.9843 40.6529C54.8224 40.6132 54.5291 40.4158 54.3325 40.2133L54.3326 40.2133ZM13.8567 26.2479C14.5338 26.0839 15.4697 25.5388 15.9364 25.0365C16.8128 24.0934 18.8516 19.1864 19.2 17.182C19.3086 16.5568 19.7496 15.0764 20.1799 13.8922L20.9623 11.7391L17.9235 12.97C16.2521 13.6471 14.581 14.3517 14.2097 14.5359C13.1333 15.07 9.41349 15.9962 8.84825 15.8709C8.56461 15.808 8.30096 15.899 8.26236 16.0731C8.22376 16.2472 6.81758 16.5052 5.13752 16.6464L2.08287 16.9031L2.99216 18.3522C3.54088 19.2267 3.71538 19.844 3.43222 19.9088C3.16394 19.9702 3.18228 20.0135 3.47504 20.0097C3.75667 20.0061 4.53103 20.8051 5.19584 21.7853C7.49488 25.1748 10.9456 26.9529 13.8567 26.2479ZM40.1652 29.281C40.0778 28.7064 40.0974 27.8254 40.2087 27.3231C40.3201 26.8208 40.3168 26.3889 40.2014 26.3633C39.7488 26.263 37.4826 26.9777 37.435 27.2358C37.3783 27.5435 39.6254 30.1335 40.0504 30.2504C40.2011 30.2913 40.2527 29.8555 40.1652 29.281L40.1652 29.281ZM23.8877 17.0408C24.304 15.8345 25.5192 13.1378 26.5882 11.0482C27.6571 8.95853 28.4974 7.24121 28.4555 7.23192C28.1919 7.17348 24.0392 9.93884 23.9784 10.2133C23.9371 10.3992 23.7592 10.5194 23.5828 10.4803C23.4065 10.4412 22.7814 11.5526 22.1937 12.9502C21.2608 15.1687 21.1824 15.5896 21.5756 16.2667C21.8233 16.6933 21.991 18.2547 21.9483 19.7365L21.8705 22.4307L22.5007 20.8324C22.8473 19.9533 23.4714 18.2471 23.8877 17.0408L23.8877 17.0408ZM20.8704 19.7448C20.8692 19.0798 20.7102 18.5006 20.5169 18.4578C20.0457 18.3533 19.9595 18.8779 20.2386 20.15C20.5371 21.5102 20.8731 21.2947 20.8704 19.7448L20.8704 19.7448ZM45.8898 23.8257C46.2838 23.7875 46.6364 23.6196 46.6734 23.4525C46.7104 23.2854 47.0585 23.1381 47.4468 23.1252C47.9443 23.1087 47.8844 23.0288 47.2442 22.8547C46.2837 22.5935 43.4202 23.6756 43.2691 24.3569C43.2201 24.5778 43.6286 24.5643 44.1768 24.3268C44.7251 24.0894 45.4959 23.8639 45.8898 23.8257ZM52.7727 23.9363C52.7377 23.658 52.6359 22.9048 52.5464 22.2624L52.3836 21.0945L51.4473 21.7765L50.5109 22.4585L51.595 23.4104C52.9268 24.5799 52.8493 24.5453 52.7727 23.9363ZM56.3642 16.5753C57.1529 15.9857 59.3581 12.148 59.1193 11.7804C58.843 11.355 57.1234 12.4435 56.9686 13.1419C56.8934 13.4812 56.6391 13.8844 56.4036 14.0378C56.1682 14.1912 55.6482 15.3066 55.2481 16.5165C54.6718 18.2589 54.6481 18.5417 55.1337 17.8765C55.4709 17.4147 56.0246 16.8291 56.3642 16.5753ZM27.4075 6.48702C29.7174 4.62826 31.2296 2.79677 31.1068 2.00673C31.0564 1.68245 30.8835 1.5723 30.7046 1.75043C30.5319 1.92229 29.717 2.2567 28.8935 2.4936C27.4247 2.91619 25.7629 4.78677 24.3291 7.63157C23.865 8.55232 23.8912 8.61248 24.6401 8.34646C25.0898 8.1867 26.3352 7.34996 27.4075 6.48702ZM81.7213 10.777C81.8968 10.5995 82.1161 10.471 82.2087 10.4915C82.3013 10.512 82.3396 10.6976 82.2939 10.9039C82.2481 11.1102 82.0288 11.2387 81.8065 11.1894C81.5842 11.1401 81.5458 10.9545 81.7213 10.777Z" fill="white"/>
</svg>
