<svg width="454" height="454" viewBox="0 0 454 454" fill="none" xmlns="http://www.w3.org/2000/svg">
<rect width="140" height="140" rx="30" fill="white" fill-opacity="0.16"/>
<rect y="157" width="140" height="140" rx="30" fill="#3E67C7"/>
<rect y="314" width="140" height="140" rx="30" fill="white" fill-opacity="0.16"/>
<rect x="157" width="140" height="140" rx="30" fill="#3E67C7"/>
<rect x="157" y="157" width="140" height="140" rx="30" fill="white" fill-opacity="0.16"/>
<rect x="157" y="314" width="140" height="140" rx="30" fill="#E8BC31"/>
<rect x="314" width="140" height="140" rx="30" fill="white" fill-opacity="0.16"/>
<rect x="314" y="157" width="140" height="140" rx="30" fill="#C73E3E"/>
<rect x="314" y="314" width="140" height="140" rx="30" fill="#3E67C7"/>
<path d="M434 227C434 214.79 424.863 204.632 413.062 203.017V196.055V190H406.993H355.069H349V196.055V257.945V264H355.069H406.993H413.062V257.945V250.983C424.896 249.368 434 239.244 434 227ZM406.993 244.962C398.226 243.65 391.517 236.115 391.517 227C391.517 217.918 398.226 210.35 406.993 209.038V244.962ZM355.069 257.945V196.055H406.993V202.95C394.855 204.295 385.448 214.555 385.448 227C385.448 239.479 394.855 249.705 406.993 251.05V257.945H355.069ZM413.062 244.861V209.139C421.525 210.72 427.931 218.12 427.931 227C427.931 235.88 421.525 243.28 413.062 244.861Z" fill="white"/>
<path d="M257.059 364.972L238.049 383.884L193.897 340L189 344.872L233.152 388.794L223.396 398.499L198.524 373.757L193.627 378.628L218.499 403.37L201.648 420.095L194.707 427H204.501H257.059H264V420.095V367.811V358.067L257.059 364.972ZM257.059 420.095H211.442L223.357 408.242L227.252 412.116L232.149 407.245L228.254 403.37L238.01 393.665L248.46 404.061L253.357 399.189L242.907 388.794L257.021 374.754V420.095H257.059Z" fill="white"/>
<path d="M99.9781 185H93.98V256.977H99.9781V185Z" fill="white"/>
<path d="M33.9995 185H28.0015V256.977H33.9995V185Z" fill="white"/>
<path d="M99.9771 256.977V250.979H28.0002V256.977H99.9771Z" fill="white"/>
<path d="M99.9824 209.065V203.033H28.0056V209.065H99.9824Z" fill="white"/>
<path d="M111.974 202.994H105.976V268.973H111.974V202.994Z" fill="white"/>
<path d="M111.973 268.974V262.976H45.9944V268.974H111.973Z" fill="white"/>
<path d="M99.9771 190.999V185H28.0002V190.999H99.9771Z" fill="white"/>
<path d="M111.974 202.994H102.977V209.026H111.974V202.994Z" fill="white"/>
<path d="M45.9932 260.003V269H52.0246V260.003H45.9932Z" fill="white"/>
<path d="M39.9971 199.995C41.6534 199.995 42.9961 198.652 42.9961 196.996C42.9961 195.34 41.6534 193.997 39.9971 193.997C38.3408 193.997 36.998 195.34 36.998 196.996C36.998 198.652 38.3408 199.995 39.9971 199.995Z" fill="white"/>
<path d="M48.9942 199.995C50.6505 199.995 51.9932 198.652 51.9932 196.996C51.9932 195.34 50.6505 193.997 48.9942 193.997C47.3378 193.997 45.9951 195.34 45.9951 196.996C45.9951 198.652 47.3378 199.995 48.9942 199.995Z" fill="white"/>
<path d="M57.9912 199.995C59.6475 199.995 60.9903 198.652 60.9903 196.996C60.9903 195.34 59.6475 193.997 57.9912 193.997C56.3349 193.997 54.9922 195.34 54.9922 196.996C54.9922 198.652 56.3349 199.995 57.9912 199.995Z" fill="white"/>
</svg>
