<svg width="132" height="110" viewBox="0 0 132 110" fill="none" xmlns="http://www.w3.org/2000/svg">
<path opacity="0.7" fill-rule="evenodd" clip-rule="evenodd" d="M84.37 33.721C83.3621 32.7878 82.6832 32.121 81.761 30.9034C81.3862 30.4086 81.5152 30.3974 81.6421 29.9963C81.7329 29.7094 81.7916 29.4798 81.8906 29.1959C82.1698 28.3919 82.3518 28.263 82.7239 27.6718C83.0188 27.2024 82.8339 27.2849 83.3006 26.4758C83.6565 25.858 83.4603 25.7151 84.197 25.6171C85.5495 25.4383 84.9576 25.1521 85.5531 25.3635C85.9908 25.518 87.3678 25.8575 87.5836 26.11C87.9913 26.5876 87.8248 26.2893 87.8976 26.9416C87.3572 27.0912 86.4518 27.187 85.892 27.2718C84.8175 27.4346 85.0124 27.3207 83.7979 27.7903C83.9147 28.807 83.5825 28.8321 84.4526 30.4463C84.9103 30.4494 85.3351 30.5516 85.8515 30.4722C86.7899 30.3275 87.5989 29.8254 89.6543 29.6781C90.2075 29.6386 90.1135 29.5806 90.3141 29.7154L89.7701 30.329C88.1584 31.628 85.7806 32.4768 84.37 33.721ZM60.1357 37.6451C60.3641 37.8768 60.5573 37.8706 60.7948 38.155C62.0881 39.7054 60.7796 39.3344 60.5298 40.2551C60.3356 40.3203 59.9519 40.3687 59.7506 40.3844C59.2463 40.4235 58.4011 39.4561 58.2633 38.9248L60.1357 37.6451ZM-12.6241 68.0031C-12.8205 67.4913 -12.4837 67.2822 -11.9937 67.0513C-10.9571 66.5622 -11.1097 66.8494 -10.9014 67.2059L-12.6241 68.0031ZM11.9047 41.196C12.0387 40.6421 12.0639 40.6774 12.6348 40.2599C15.1093 38.4519 17.1564 36.3202 19.8245 34.4859C22.8652 32.3953 26.4652 30.3225 29.7349 28.4889C36.8591 24.4935 44.2909 20.7848 51.8345 17.5395C59.2785 14.3375 66.7286 11.0132 74.3474 8.48548C77.9726 7.28231 81.5512 6.21738 85.1753 5.16534C89.1771 4.00352 89.2623 4.04499 92.9924 3.38355C94.6198 3.09445 94.5145 2.95621 95.6452 2.65593L95.7127 2.98566C96.1844 2.83532 96.097 2.70733 96.5184 2.82909C96.7507 2.8957 96.9369 2.96275 97.1675 2.98307C97.426 3.54445 97.6576 3.84121 97.2485 4.23363C96.7015 4.75862 94.1374 5.92449 93.3824 6.29077C87.8417 8.98305 82.549 11.4567 76.8963 13.9611C59.1698 21.8149 40.6819 28.7921 22.8036 36.4645C20.9766 37.2481 19.1449 38.0587 17.3336 38.8799C16.4623 39.275 12.4685 41.2751 11.9047 41.196ZM-59.6779 108.599L-59.5902 108.787C-58.9384 109.548 -59.2744 109.235 -58.8561 109.288C-58.6301 109.316 -58.4265 109.548 -58.2468 109.679C-57.9022 109.93 -57.7412 109.705 -57.2999 109.463C-56.5811 109.068 -55.8611 108.677 -55.1476 108.293C-53.6738 107.497 -52.2425 106.716 -50.7353 105.967C-47.6322 104.424 -44.4728 102.994 -41.3514 101.486C-35.3845 98.6046 -29.5974 95.2004 -23.7255 92.1206C-20.744 90.5565 -17.7713 88.9884 -14.7547 87.4832C-13.1975 86.7067 -11.587 86.0085 -10.0439 85.2268L3.65442 78.3558C4.05814 78.1502 4.3893 78.0727 4.78334 77.8703L17.1663 71.5251C17.566 71.3234 17.853 71.128 18.271 70.9493C22.3141 69.2227 27.1437 66.8163 31.0411 64.889C37.1408 61.8728 43.283 58.8602 49.2938 55.6999C59.9829 50.0808 70.5522 44.8114 81.6091 39.9478C83.7708 38.9969 83.9298 38.051 84.513 38.5243C84.7201 38.6919 85.0605 39.1092 85.2012 39.396C84.6462 40.0103 84.2786 41.0294 83.7291 41.6755C83.2639 42.2213 83.0453 42.2463 82.4481 42.6253C82.173 42.8 82.0012 43.5738 82.0568 43.8898C83.2645 44.3624 83.1517 44.0619 83.8976 44.0461L84.6789 43.6818C84.8649 43.4431 86.3319 42.3197 86.4297 41.3464C86.4634 41.0117 86.2837 40.9352 86.4539 40.6518C86.6625 40.305 86.7121 40.4699 86.7163 39.9982C86.7242 39.0707 87.2147 38.0171 88.0346 37.5251C88.3178 37.3551 88.5061 37.2691 88.6927 37.0159C88.9787 36.6273 88.8002 36.7727 89.3248 36.4926C90.2471 35.9993 90.464 35.5264 92.2945 34.6052C94.6915 33.3988 96.7396 32.9153 99.1456 32.0602C100.342 31.6358 101.509 31.0179 102.666 30.4703C108.489 27.7153 114.265 25.3027 120.229 22.9034C121.413 22.4268 122.586 21.9922 123.718 21.3938C126.14 20.1144 130.631 19.3635 131.286 17.1387C131.496 16.4291 131.257 16.2625 131.262 15.6172L130.75 14.5193L129.994 13.4716C129.613 13.6552 129.356 13.9028 128.932 13.9473C128.557 13.9867 128.384 13.8329 128.018 13.8803C127.453 13.953 126.536 14.6278 126.071 14.9561C124.713 15.9158 123.376 16.4939 121.891 17.2807C120.477 18.0293 118.886 18.6483 117.406 19.2339C115.909 19.8258 114.39 20.7196 112.86 21.3891C106.809 24.034 100.744 26.6995 94.6664 29.2888C94.4001 29.0295 93.8925 27.5617 93.6841 27.1133C93.3362 26.9424 92.5565 26.8002 92.0585 26.8035L90.6865 26.9752C90.6093 26.9882 90.5109 27.0063 90.44 27.0059C89.8572 27.0014 89.5428 25.4466 87.8046 24.4574L85.6764 23.3524C85.4045 23.259 85.2058 23.2225 84.9934 23.0492L84.5252 23.2736C84.222 23.0825 84.1247 23.0801 83.9196 22.6482L83.5537 23.0279C83.2046 21.9969 83.122 20.6583 81.6616 20.6096C80.948 20.5856 80.5452 21.0768 80.4772 21.559C80.277 22.9847 82.0515 23.937 81.783 24.7546C81.6526 25.1523 81.5229 25.0751 81.2646 26.1085C81.0226 27.075 80.6286 27.4742 80.38 28.1319C80.1638 28.7025 80.3202 28.6506 80.0189 28.7204C79.7428 28.5289 79.438 27.7757 79.185 27.4219C78.5926 26.5961 78.5156 27.0751 78.3114 26.4455C77.9777 25.4183 77.254 24.5719 76.779 23.5889C75.792 21.5483 74.7812 19.5214 73.8003 17.4779C75.6839 16.6895 77.547 15.9709 79.4343 15.1307C84.6197 12.8219 91.1179 9.62235 95.9667 6.91561C97.1998 6.22766 98.5915 6.04236 99.1819 5.16875C99.354 4.91489 99.3684 4.97626 99.7155 4.84372C100.711 4.46456 102.717 3.21557 102.624 2.3468C102.5 1.19448 102.111 0.571209 101.224 0.460882C99.7472 0.276639 98.2259 0.384018 96.8025 0.962822C96.383 1.13306 96.5868 0.988979 96.2286 1.04984C95.4622 1.17998 94.3757 1.51918 93.5912 1.72124C89.3227 2.8211 84.4447 3.90617 80.3628 5.47073C76.6631 6.88943 72.9668 8.39281 69.276 9.84503L52.5616 16.444L46.9693 18.8662L39.6041 22.3006L32.0273 26.0404C29.5722 27.2826 27.1522 28.5711 24.7579 29.9C21.6411 31.6294 14.7698 36.0487 12.2368 38.3295C11.3277 39.1479 11.2647 39.4058 10.2892 40.1094C9.14033 40.938 8.47049 42.1737 7.39427 43.0797C6.36228 43.9486 5.16186 44.4296 3.87486 44.938C2.60248 45.4407 1.22677 46.1485 -0.0291948 46.7329C-2.60758 47.9328 -5.17455 49.2055 -7.80877 50.2397C-9.08149 50.7388 -10.3952 51.1509 -11.6122 51.811C-12.2061 52.133 -12.7476 52.514 -13.3243 52.8425C-13.8531 53.1431 -14.6774 53.4537 -15.2587 53.7099C-16.5878 54.2956 -17.8144 54.9903 -19.1235 55.5883C-20.4278 56.1836 -21.727 56.78 -23.0221 57.3951C-25.5916 58.6145 -28.1501 59.864 -30.6909 61.1355C-35.7433 63.6653 -40.8493 66.0699 -45.9095 68.5777C-48.9722 70.0954 -52.0142 71.6442 -54.907 73.4448C-55.4456 73.7804 -56.0888 74.0512 -56.6659 74.3961C-58.7194 75.624 -61.3562 76.9641 -63.0762 78.5823C-63.5571 79.0348 -63.9152 79.3861 -63.6955 80.0103C-62.8869 82.3059 -61.9241 82.0525 -59.5837 81.7976C-58.3554 81.6635 -57.1816 81.473 -55.9869 80.808C-55.8146 81.0521 -55.9283 81.1331 -55.6783 81.0636C-55.4403 80.9979 -55.2247 80.8838 -55.1226 80.8938L-47.6538 79.7909C-46.2072 79.627 -44.8492 79.4642 -43.4352 79.3988C-40.7102 79.271 -37.8392 78.9778 -35.0958 78.7622C-33.6892 78.6512 -32.338 78.5001 -30.9154 78.3543C-28.8012 78.1378 -26.7928 78.1558 -24.6982 78.0057C-24.3219 77.9784 -24.0025 77.9512 -23.6342 77.9134C-22.9706 77.8448 -23.1759 77.9355 -22.6867 77.5406L-20.9975 77.8816C-20.4352 77.9922 -19.8607 78.0209 -19.2891 78.076C-17.1382 78.2812 -17.2486 79.2727 -15.9527 78.7448C-15.3435 76.7828 -20.3742 75.0237 -21.3819 73.2099L-20.565 71.6587C-20.2808 71.173 -19.7416 70.7298 -19.1416 70.3888C-18.9571 70.5291 -18.6957 70.6841 -18.4806 70.8351C-15.0087 73.2757 -15.1095 70.9727 -14.0575 69.9007C-13.7054 69.5417 -12.9014 69.5919 -12.4621 69.6134C-9.36147 69.7643 -9.52902 67.9013 -7.59479 67.5791C-6.17294 67.3429 -5.56662 67.6714 -4.22796 66.4062C-3.35973 65.5856 -3.16391 64.5976 -2.59545 64.7787C-2.32558 64.865 -2.16568 64.9351 -1.87383 64.9901C-0.316244 65.2827 0.058444 65.0285 1.00038 63.7162C1.54977 62.9513 2.27394 61.9067 3.01661 61.2371C3.38879 61.6108 3.50633 61.9544 4.01882 62.1859C5.04475 62.6495 5.76279 61.7711 6.07253 60.8758C6.19051 60.534 6.96626 60.1549 7.33566 59.9448C8.70935 60.711 10.1818 60.2223 11.1122 58.6807C11.4749 58.0797 10.5319 56.571 10.0233 56.2441C8.33138 55.1565 6.65682 57.2449 5.49926 58.4183C5.20924 58.7118 5.13192 58.6924 4.97231 59.0698C4.84604 59.3676 4.65084 59.4654 4.24767 59.4951C4.04314 59.3597 3.67279 59.0261 3.45977 58.8312C3.05809 58.4651 3.13786 58.4855 2.56507 58.5801C1.65516 58.7301 1.53268 59.3016 1.06156 59.895C0.658306 60.402 0.291251 60.9486 -0.12795 61.4772C-0.460994 61.8968 -0.942758 62.6589 -1.30097 63.0085C-1.88542 62.656 -2.50999 61.7415 -3.03628 61.4724C-3.70509 61.6348 -4.38485 62.8666 -4.57587 63.2795C-4.87595 63.9284 -5.28785 64.6285 -6.08647 65.1233C-7.5145 66.0081 -7.45146 65.679 -8.35147 64.7616C-9.18616 63.9096 -9.7355 64.6145 -9.90395 65.5072C-10.1809 65.4067 -10.6313 65.0905 -10.9084 64.9629C-11.2067 64.8251 -11.5868 64.7405 -12.0158 64.7785C-12.9378 64.8604 -13.5548 65.6649 -14.0199 66.2603C-14.8921 67.3776 -15.744 69.0186 -17.1631 69.9025C-17.2938 69.7555 -18.5053 68.6356 -18.6764 68.5372C-19.1343 68.2755 -20.0164 68.1457 -20.6729 68.4693C-22.1182 69.1809 -22.3573 70.3878 -23.1565 71.5987C-23.9059 71.244 -24.2261 70.9644 -24.786 70.2669L-26.2477 68.4445C-26.036 68.0052 -26.0397 67.9813 -25.461 67.6241C-24.3141 66.9168 -22.7405 66.4361 -21.6541 65.6862C-22.1039 64.9131 -21.9371 64.6869 -22.7237 64.5957C-24.2107 64.4222 -26.2711 65.9136 -27.4614 66.5506C-27.9065 65.5002 -28.05 64.3105 -29.5375 64.7697C-29.3895 65.1828 -29.2694 65.5891 -29.1351 66.0129C-29.0005 66.4386 -28.8028 66.8479 -28.6729 67.2558C-29.6273 68.2829 -31.3814 68.8675 -31.1033 70.2569C-30.0898 69.8793 -29.2727 69.5223 -28.3108 69.0274C-28.0772 69.6494 -28.0114 70.4055 -27.9555 71.0298L-27.708 72.9431C-27.7582 73.2706 -28.1604 74.1952 -28.4871 74.5393C-29.0593 75.1407 -29.6998 75.0118 -30.3423 75.1203C-29.5698 76.1928 -27.9354 76.4918 -27.114 75.415C-26.5263 74.6445 -27.1898 74.9075 -26.4792 74.475L-26.7076 73.8083L-26.3714 73.5751C-26.5988 72.8917 -26.539 73.1984 -26.431 72.6633C-26.3831 72.4282 -26.4307 72.5167 -26.2858 72.2935C-26.1826 72.1355 -26.1373 72.0704 -25.9616 71.9641C-24.5496 72.6846 -21.9245 74.8172 -20.9283 76.2136C-21.2977 76.2624 -21.6692 76.2016 -22.0296 76.2059C-22.4339 76.2106 -22.8109 76.3616 -23.1438 76.3078C-25.2787 75.9636 -27.5856 76.4318 -29.7458 76.6801C-31.2559 76.8537 -32.7594 77.0031 -34.2739 77.1471C-35.7406 77.2875 -37.1961 77.3388 -38.7112 77.4937C-41.7399 77.804 -44.6549 77.9699 -47.6734 78.2982C-49.1737 78.461 -50.7296 78.7082 -52.2356 78.9915C-53.2424 79.1812 -56.3077 79.5824 -56.8322 79.719C-57.2246 78.6949 -56.7926 77.9965 -56.052 77.344C-55.2984 76.6804 -54.4314 76.1459 -53.5858 75.6542L-53.5937 75.2514C-52.9363 75.1017 -52.8939 75.0579 -52.2523 74.7189L-48.5075 72.7312C-43.446 70.031 -38.4105 67.3075 -33.2615 64.7587C-32.4324 64.3486 -13.0144 54.9202 -11.7382 54.482C-10.5213 55.0832 -10.1774 56.0113 -8.56298 55.4732L-9.64629 53.6983C-9.43948 53.3804 -5.152 51.4792 -4.25614 51.0249C-3.62687 50.7054 -3.16505 50.5235 -2.5198 50.2331C-1.28943 49.6793 -0.0584504 49.1226 1.16901 48.5677C5.05253 46.81 4.74065 46.6205 5.21189 47.4781C5.20279 47.4928 5.18489 47.5079 5.17596 47.5165L4.89091 47.7648L5.20209 48.3631C4.96457 48.5936 4.92124 48.6429 4.9733 48.9954C5.30982 51.2785 7.10044 52.9665 8.92247 54.1256C9.59757 54.5556 11.6695 55.3046 12.4955 55.507L18.7604 56.96C19.3365 57.0698 20.8019 57.3204 21.3514 57.313C21.9139 57.3058 22.2126 57.1558 22.6009 57.6866L22.2203 57.851C22.2342 57.8996 22.2731 58.0201 22.2788 58.059C22.3049 58.2268 22.3086 58.0723 22.2753 58.1977C21.5621 58.1325 20.9152 58.6202 20.2177 58.9914C18.0616 60.1378 15.8405 61.1499 13.6036 62.1179C10.7002 63.3744 7.73005 64.5341 4.78318 65.6283C1.95736 66.6774 -0.930749 67.4501 -3.78572 68.4259C-5.70312 69.0809 -10.8098 70.7146 -11.6042 72.568C-10.8589 73.988 -8.82954 72.8641 -7.50278 72.2583C-3.02177 70.2135 1.66931 68.7477 6.28653 67.0584C9.2499 65.9742 21.8549 61.3847 24.4138 59.0074L24.6745 59.2284C24.8609 58.8587 24.6217 58.9236 25.1291 58.7005C25.3866 58.5875 25.6598 58.496 25.8964 58.3461C24.7379 55.3453 24.5055 56.1177 23.7007 55.8743C23.5417 55.8263 23.3332 55.705 23.175 55.6479C22.1604 55.2795 20.6983 55.2365 19.6068 55.0237C19.4116 54.9858 19.1977 54.9594 18.9926 54.9069L17.272 54.4879C15.6499 54.1994 14.1392 53.7712 12.5571 53.3994L11.4183 53.0548C11.0261 52.9319 10.6809 52.8081 10.3059 52.641C8.27835 51.7373 7.40006 51.3439 6.97071 48.8781C6.86716 48.2824 7.44129 47.1607 7.73643 46.6279C8.81719 44.6754 10.4045 44.4584 12.6131 43.3442C14.597 42.3427 16.6713 41.5287 18.7087 40.65L36.7408 32.9068C40.722 31.2005 44.7188 29.6003 48.7056 27.9218C52.7047 26.2377 56.6719 24.5267 60.7056 22.9525C64.7268 21.3825 68.7546 19.76 72.6948 17.9549C72.8648 18.3528 72.9975 19.1524 73.1357 19.6352C73.3003 20.2089 73.4989 20.7999 73.7287 21.3712C74.2254 22.6082 74.8295 23.6998 75.4352 24.8819C75.248 25.0233 75.2362 25.0603 75.1355 25.2266C75.2501 25.5746 75.3887 25.6389 75.5431 25.9331L75.2174 25.9769C75.3883 26.5165 75.4412 27.0052 75.2801 27.5407C75.0763 28.2202 73.9933 29.3712 73.4719 29.8788C72.921 30.4155 72.6984 30.456 71.9443 30.7002C71.364 30.1413 71.0624 29.472 70.5368 28.9012C70.2803 28.6224 69.9969 28.4541 69.6736 28.4392L68.7117 28.3833C68.4112 28.7542 68.1064 29.5349 68.126 30.044C68.182 31.5362 68.9297 31.5041 69.0821 31.6445C69.5634 32.6092 69.3909 32.3309 70.2569 32.3664L71.1217 33.7858C70.8848 34.1612 70.2173 34.6368 69.7093 34.7905C68.3817 35.1931 68.937 32.7803 67.4232 30.4921C66.0291 31.0807 65.7746 31.8646 65.0752 32.7759C64.1932 33.9249 61.9244 35.9038 60.4106 35.1006C60.1913 34.9843 60.3702 35.0524 60.2006 34.8808C60.052 34.7297 59.8457 34.6529 59.6169 34.4444C58.5103 33.4357 57.9545 33.4746 57.095 32.8688L55.5097 33.7451C55.4878 34.124 55.5511 34.2142 55.6022 34.5739C55.6432 34.8619 55.4945 35.4569 55.4097 35.7235C55.1597 36.509 54.3408 37.594 54.1532 38.7352C54.1249 38.9073 54.0877 39.3491 54.0574 39.4481C53.8807 40.0339 52.9932 41.5869 52.6377 42.0259C51.7071 43.1722 51.0856 43.2516 49.7155 43.2607L49.4601 42.7716L49.0923 42.8904C48.355 42.1692 47.6472 41.2781 46.9152 40.5026C45.9226 39.4505 45.7737 38.9926 44.2386 39.5948C44.3295 41.6976 44.3288 41.5541 44.8804 43.4116C45.0329 43.9263 44.5406 44.0814 45.018 44.4601C44.6134 44.9336 44.7206 45.717 44.8796 46.3242L44.4631 46.3719C44.4342 46.5535 44.5305 46.6216 44.4816 46.7871C44.1103 46.6067 42.1137 44.7483 41.6997 44.1428C41.4999 43.8498 41.357 43.8626 41.112 43.7006C40.7402 43.4545 40.428 42.6371 40.1761 42.1674L37.4624 37.1797C37.146 36.6035 36.808 36.2686 36.4948 35.7605C36.191 35.9357 35.723 36.0447 35.7299 36.4318C35.7345 36.7077 37.4346 43.4414 37.6327 44.5765C37.6875 44.8935 37.6422 44.7621 37.5242 45.0038C37.2834 45.4977 37.4921 46.641 37.3594 47.2414C36.8005 49.7689 34.2937 51.9214 31.7049 52.1666C31.114 52.2219 30.2789 52.1118 29.9219 51.9241C29.7099 51.8125 28.6317 51.1318 28.5892 50.6988C28.5627 50.4368 29.1294 49.4471 29.5555 49.174C30.6855 48.4502 31.9197 49.6527 33.0709 49.7103C33.4757 49.7306 33.5455 49.3972 33.6241 49.116C33.8984 48.1368 33.3704 47.1349 32.5635 46.5885C32.0601 46.2479 31.5742 46.1481 30.8225 46.2219C29.0116 46.3987 26.5946 47.82 26.4939 49.893C26.3438 52.9763 30.5801 54.7154 33.7608 53.9737C36.2112 53.4026 38.6876 51.1638 38.9892 48.6315C39.0705 47.9476 39.0951 45.6235 38.8742 44.8864L39.4583 44.6549C40.0262 45.1329 40.149 45.4057 40.7738 45.5264C40.8473 45.8986 40.7228 45.9002 41.0481 46.0574C41.2324 46.1466 41.3992 46.1892 41.5467 46.3685C41.7898 46.6636 42.1112 47.2237 42.3228 47.5587L42.6938 47.5308L42.7281 47.7799C42.7514 47.8446 42.8299 47.9794 42.8712 48.0657L43.254 47.9125C43.7604 49.0422 43.6458 48.1922 44.4224 48.7694C44.9027 49.1258 45.1365 49.1229 45.6971 49.2008C46.4845 48.3645 46.2752 46.6478 46.4775 45.4538C46.5597 44.9674 46.2561 44.7913 46.3004 44.3567C46.3468 43.8963 46.2242 43.7878 46.6191 43.4845C46.8524 43.305 47.3128 43.3993 47.5025 43.5269C47.9286 43.8139 47.9127 43.7408 48.2317 44.2479L48.5636 44.1696C48.6947 44.3602 48.866 44.6036 49.013 44.7765C49.2257 45.0261 49.2786 44.9362 49.598 44.981L50.8392 45.1704C52.7956 45.3905 54.3959 43.9133 55.0529 42.2016C55.157 41.9301 55.1595 41.7013 55.2055 41.4191C55.2554 41.1148 55.8695 40.8775 56.0118 39.9784C56.6567 39.7794 56.6389 39.4613 57.0373 40.1374C57.3303 40.6356 57.3044 40.6477 57.7107 40.967C58.2134 41.3624 58.777 41.8457 59.3171 42.0908C60.4688 42.6137 62.3454 42.4225 62.6874 40.8563C63.0458 39.2134 62.3012 38.1147 63.5818 37.201C64.659 36.4332 65.9848 35.3292 66.7512 34.4164C67.5702 34.781 67.8654 35.5895 68.5768 36.0888C69.09 36.4495 70.0822 36.685 70.8891 36.4342C71.7645 36.1623 72.5608 35.5292 72.426 34.5614C72.3419 33.959 72.3564 33.9596 72.7371 33.4544C72.9579 33.1603 73.4584 32.9239 73.8138 32.6551L73.7328 32.3546C74.0615 32.205 74.1319 32.3176 74.4654 32.0745C75.3075 31.4585 76.0131 30.5032 76.3989 29.5875C76.5821 29.1514 76.7562 28.7847 76.5147 28.4729L77.0982 28.053C77.4073 28.2887 77.4756 28.2568 77.745 28.6706L79.4486 31.2606C79.3016 31.4111 79.1102 31.5561 78.9817 31.6992C78.8721 31.821 78.6632 32.5533 78.5968 32.7771L78.0712 35.4666C80.2609 33.5445 79.7266 32.4173 81.1636 32.8828C81.2171 33.1426 81.1165 33.2568 81.3193 33.3879C81.4429 33.4681 81.6943 33.5414 81.7983 33.6207C82.0121 33.7841 82.3884 34.6295 82.507 34.928C76.4242 37.8897 70.3893 41.0153 64.3256 44.0258C58.3196 47.0077 52.3917 50.0673 46.4598 53.1556C43.4599 54.7176 40.4492 56.2778 37.4034 57.7545C34.3209 59.2498 31.2163 60.6869 28.1321 62.1823C21.9941 65.1591 15.8073 68.1024 9.7046 71.1374C-2.18554 77.0516 -14.1624 83.1882 -25.729 89.61C-31.4364 92.7791 -37.082 96.0292 -42.9012 99.0506C-45.8112 100.562 -48.6202 102.219 -51.5354 103.72C-54.5455 105.271 -57.0337 106.662 -59.6779 108.599Z" fill="white"/>
</svg>
