<svg width="319" height="71" viewBox="0 0 319 71" fill="none" xmlns="http://www.w3.org/2000/svg">
<path opacity="0.7" d="M31.7419 31.5292C27.6311 30.1939 26.4984 28.1907 27.9173 24.765C28.3856 23.6341 28.7977 22.5364 28.833 22.3256C28.8683 22.1147 27.2741 22.5851 25.2905 23.3707C17.2866 26.5405 12.5009 27.4418 7.84016 26.6573C2.52556 25.7627 -0.0348516 23.4578 0.530865 20.0772C1.08338 16.7754 3.00742 14.1474 7.2963 10.8363C13.9413 5.70633 24.4098 1.68477 33.9573 0.594304C39.7554 -0.0679483 45.1274 0.255099 44.9599 1.25592C44.8811 1.72722 44.1804 1.87098 42.3726 1.7867C36.8701 1.53022 27.9788 2.82138 22.7616 4.6346C17.2321 6.55639 9.31681 11.3411 6.43659 14.5029C3.23449 18.0181 2.37569 21.6391 4.33349 23.3703C5.56084 24.4556 8.44016 25.1595 11.2112 25.0517C17.6558 24.8009 30.23 19.6317 35.9443 14.8838C37.0547 13.9613 38.5931 12.7313 39.3631 12.1507C40.1332 11.57 41.161 10.5749 41.6472 9.93926C42.1333 9.30366 43.6825 7.85657 45.0899 6.72347C46.9916 5.19229 47.9411 4.70957 48.7877 4.84375C49.4142 4.94333 50.0168 5.24468 50.1269 5.51412C50.3751 6.12187 45.8737 10.804 42.7551 13.1819C41.4792 14.1548 39.5505 15.7804 38.4692 16.7943C37.3879 17.8083 35.7973 19.1064 34.9345 19.679C32.9554 20.9924 30.7311 23.9657 30.444 25.6815C30.2932 26.5825 30.5607 27.4682 31.294 28.4963C32.2872 29.8887 32.5415 30.0132 34.8324 30.2282C36.2257 30.3589 38.1455 30.1849 39.2403 29.8286C40.3071 29.4813 41.337 29.2235 41.529 29.2557C42.0974 29.3508 49.4787 26.5117 55.2191 23.99C61.4803 21.2394 65.7481 19.8384 67.1507 20.0732C69.1818 20.413 69.8537 23.4663 68.3283 25.4246C67.9392 25.9241 66.4283 27.2614 64.9706 28.3965C61.3424 31.2217 60.3617 32.325 60.8592 33.0224C61.1508 33.4313 61.5837 33.4875 62.5172 33.2378C64.3105 32.7582 69.9569 30.2313 72.511 28.7652C76.9599 26.2115 79.4445 25.0239 81.3703 24.5308C83.2058 24.0608 83.4204 24.086 84.27 24.8707C84.7746 25.3369 85.1674 25.8382 85.1429 25.9847C85.1183 26.1312 84.2919 27.406 83.3063 28.8176C82.3208 30.2292 81.2997 32.1304 81.0372 33.0425C80.635 34.4404 80.7099 34.8963 81.5142 35.9466C82.3957 37.0978 82.7792 37.2446 86.5554 37.8766C91.9621 38.7813 96.4799 38.3227 97.0602 36.8101C97.8435 34.7686 99.4356 33.0211 102.594 30.7361C107.692 27.0472 113.054 25.7541 117.154 27.2245C118.361 27.6574 119.603 28.3311 119.915 28.7217C120.227 29.1124 120.678 29.4647 120.916 29.5046C121.311 29.5708 123.643 27.8755 128.445 24.0295C129.432 23.2387 131.566 21.5907 133.186 20.3672C134.806 19.1437 136.036 18.0085 135.919 17.8447C135.802 17.6809 134.424 17.2545 132.857 16.8972C126.406 15.4269 122.578 13.1989 122.263 10.7309C121.881 7.74905 133.093 4.266 144.698 3.76118C146.383 3.68788 150.523 3.48491 153.898 3.3101C171.153 2.41634 175.345 2.35198 186.353 2.81171C195.058 3.17523 198.874 3.46235 206.951 4.36149C211.291 4.84475 217.819 5.56558 221.457 5.96355C225.094 6.36155 230.149 7.11768 232.69 7.64398C247.333 10.6766 256.171 12.5981 256.746 12.8735C257.105 13.0459 258.854 13.5451 260.632 13.9834C262.41 14.4215 264.088 14.9106 264.361 15.0701C264.818 15.3371 268.912 16.548 273.989 17.9173C275.132 18.2256 278.82 19.5564 282.184 20.8745C285.548 22.1924 289.495 23.7296 290.955 24.2902C297.634 26.8561 303.632 29.8568 307.995 32.8152C309.068 33.5429 311.094 34.8734 312.497 35.7718C314.996 37.3715 317.892 40.7435 318.619 42.8982C319.118 44.3791 318.484 47.3916 317.384 48.7685C316.237 50.203 311.877 52.8674 309.63 53.5068C307.656 54.0686 302.885 54.1229 301.986 53.5939C300.766 52.8756 301.433 52.4406 303.64 52.5154C310.026 52.7321 317.633 47.7235 316.391 44.1204C316.228 43.6499 315.628 42.7455 315.058 42.1107C314.487 41.4759 313.173 39.9851 312.138 38.7977C311.103 37.6104 309.128 35.9789 307.748 35.1721C306.368 34.3653 304.88 33.3978 304.441 33.0221C303.531 32.2427 293.971 27.6133 292.904 27.4346C292.516 27.3698 290.615 26.5444 288.678 25.6004C282.412 22.5463 277.557 20.7116 269.362 18.3009C267.198 17.6643 264.411 16.7915 263.169 16.3613C255 13.5329 226.656 7.98822 213.731 6.69045C196.017 4.91175 192.265 4.58103 189.966 4.59527C188.65 4.60343 184.562 4.49227 180.882 4.34825C174.444 4.09631 172.307 4.05232 166.159 4.04502C164.606 4.04317 159.374 4.34205 154.533 4.70918C149.692 5.0763 144.796 5.42448 143.653 5.48287C139.15 5.71291 129.067 7.92409 127.09 9.11522C124.301 10.7951 124.233 11.9075 126.837 13.2572C129.866 14.8271 133.994 16.1806 136.097 16.2934C137.458 16.3664 138.302 16.1138 139.201 15.3645C140.313 14.438 140.538 14.4039 141.455 15.0227C142.178 15.5099 142.398 15.9849 142.211 16.6543C141.883 17.8313 141.197 17.6103 162.763 23.2777C169.476 25.0416 171.274 25.5638 188.625 30.7848C193.972 32.3938 199.662 34.0259 201.271 34.4118C209.993 36.5049 222.071 40.0493 226.121 41.7047C227.463 42.2533 229.89 43.1409 231.515 43.6773C234.366 44.6187 234.586 44.6264 237.908 43.9007C240.671 43.2972 242 42.6894 244.651 40.8161C249.135 37.6468 258.166 32.9709 262.753 31.4429C267.244 29.9468 270.108 31.4738 269.077 34.8157C268.487 36.7303 265.11 41.6969 263.147 43.538C261.432 45.1467 255.101 48.0489 253.787 47.8289C253.251 47.7392 252.431 47.2353 251.966 46.7091C251.198 45.8413 251.187 45.6171 251.846 44.2991C252.745 42.5002 252.634 42.4696 248.273 43.3156C244.892 43.9715 241.285 45.868 241.079 47.0977C240.964 47.7864 244.305 49.8386 247.186 50.8485C248.089 51.1651 250.145 52.1255 251.754 52.983C254.11 54.2383 254.819 54.4612 255.394 54.1266C255.787 53.8981 257.065 53.8573 258.235 54.0359C259.98 54.3017 260.477 54.564 261.003 55.4939C261.356 56.1171 261.572 57.0643 261.482 57.5987C261.353 58.3722 261.912 59.0375 264.224 60.8606C267.643 63.5569 269.843 66.1845 269.966 67.7193C270.208 70.7334 267.375 71.177 257.953 69.6004C251.639 68.5437 251.076 68.381 249.469 67.1456C247.885 65.9272 247.435 65.7925 243.78 65.4419C240.233 65.1016 239.636 64.9321 238.167 63.8486C235.009 61.5188 233.619 59.2736 233.438 56.2086C233.333 54.4265 234.751 50.0097 235.793 48.8769C236.436 48.1767 236.467 47.9803 236.017 47.4588C235.106 46.404 232.549 46.3131 228.307 47.1845C219.691 48.9547 216.053 49.4934 213.891 49.3193C212.069 49.1728 211.487 49.3211 210.75 50.1196C209.134 51.8683 205.341 54.5891 202.491 56.043C199.67 57.4824 197.825 57.6331 197.011 56.4908C196.303 55.4996 197.07 52.5464 198.559 50.5227C199.322 49.4864 199.888 48.5578 199.818 48.4592C199.748 48.3607 198.278 48.7139 196.551 49.2441C194.825 49.7744 191.597 50.5423 189.378 50.9505C187.158 51.3587 184.21 51.9549 182.826 52.2754C179.605 53.0213 174.907 53.3134 172.53 52.9157C169.574 52.421 167.078 50.4844 167.344 48.8924C167.45 48.2626 167.294 48.1161 166.687 48.2735C162.424 49.3797 158.006 49.7714 155.045 49.3056C151.325 48.7203 150.333 47.913 150.284 45.4326C150.242 43.3245 151.15 42.1483 155.067 39.2354C160.088 35.5009 159.98 34.2232 154.641 34.2118C151.506 34.205 145.458 35.9349 139.248 38.6145C137.414 39.4058 134.803 40.4538 133.445 40.9435C132.087 41.4332 130.297 42.0787 129.467 42.3778C126.021 43.6204 120.811 43.7351 118.684 42.6153C117.095 41.7786 115.489 39.3843 115.695 38.1571C115.892 36.9775 115.453 37.0548 112.303 38.7545C106.066 42.12 100.007 42.8178 97.8256 40.4217C96.9038 39.4091 96.89 39.4067 94.2216 39.8134C86.9776 40.9185 80.5777 39.2605 78.9542 35.8582C78.3224 34.5339 78.6823 32.315 79.9407 29.7773C80.4779 28.6941 80.9433 27.6654 80.975 27.4915C81.1131 26.7343 79.814 27.1343 76.441 28.8878C74.4554 29.92 70.925 31.6329 68.5957 32.6943C60.298 36.4754 57.012 36.9047 56.7618 34.2405C56.5995 32.512 57.3238 31.6433 62.5094 27.3467C64.9023 25.364 66.8535 23.4419 66.8453 23.0753C66.8027 21.1608 62.5815 22.1984 55.4733 25.8707C53.0729 27.1108 50.2906 28.3418 49.2904 28.6063C48.2902 28.8708 46.8322 29.4043 46.0504 29.7918C45.2686 30.1794 43.3916 30.8794 41.8794 31.3474C39.4513 32.099 38.2273 32.2523 34.7783 32.2367C34.3006 32.2346 32.9344 31.9151 31.7418 31.5286L31.7419 31.5292ZM264.605 68.6461C267.226 68.1799 267.691 67.4177 266.458 65.608C265.899 64.789 265.173 64.0737 264.843 64.0185C264.513 63.9632 263.618 63.2269 262.854 62.3821C261.175 60.5254 260.269 60.3029 259.531 61.5661C258.697 62.9917 254.441 64.9722 251.632 65.2413C250.23 65.3757 250.289 66.0564 251.779 66.9359C253.435 67.9133 262.174 69.0786 264.605 68.6462L264.605 68.6461ZM247.011 62.5111C247.413 60.6782 248.559 58.8937 250.556 56.9855C251.233 56.3382 251.817 55.6314 251.854 55.415C251.942 54.8894 249.421 53.4511 244.516 51.2285C238.836 48.6551 238.994 48.6602 237.728 51.0078C235.806 54.5705 235.54 59.2006 237.149 61.0634C238.313 62.4102 240.744 63.4411 243.683 63.8349L246.633 64.2299L247.011 62.5111ZM106.682 39.0867C110.296 37.9661 114.034 35.974 114.924 34.6941C115.867 33.3386 115.114 33.4684 109.666 35.6007C106.945 36.6657 103.834 37.8147 102.753 38.154C101.672 38.4933 100.87 38.9728 100.971 39.2195C101.331 40.1015 103.578 40.0493 106.682 39.0867V39.0867ZM158.755 47.7477C160.609 47.6782 163.569 47.2272 165.333 46.7455C168.267 45.9444 168.609 45.7294 169.349 44.224C170.936 40.9962 177.616 36.3861 180.103 36.8023C181.322 37.0064 182.56 38.4678 182.378 39.4889C182.288 39.9979 181.537 41.2709 180.71 42.3178C179.436 43.9304 178.531 44.4898 174.784 45.9783C170.085 47.8454 169.347 48.6387 171.075 49.9664C173.304 51.6784 179.588 51.2869 191.599 48.6875C197.934 47.3163 200.616 46.5409 201.992 45.6824C204.021 44.416 210.694 41.9214 211.632 42.0784C213.389 42.3725 214.044 43.4612 213.475 45.1404C213.1 46.2475 213.123 46.7593 213.562 47.1113C214.394 47.7786 218.282 47.5285 223.367 46.4804C229.256 45.2667 229.82 45.1196 229.626 44.8478C229.28 44.362 221.191 41.5728 216.367 40.2753C213.622 39.5373 209.52 38.3461 207.25 37.6281C204.98 36.9102 200.97 35.7526 198.338 35.0557C193.906 33.8821 191.537 33.1812 179.707 29.5438C177.321 28.81 172.468 27.4282 168.924 26.4731C165.379 25.5181 162.069 24.565 161.568 24.3553C160.737 24.0073 150.291 21.2565 142.815 19.4172L139.767 18.6672L137.189 20.5816C126.849 28.2582 121.517 32.484 119.685 34.4521C118.509 35.7164 118.023 38.4805 118.772 39.6489C120.041 41.6309 124.622 41.3011 132.782 38.6405C136.065 37.5697 139.391 36.3804 140.172 35.9977C140.953 35.6151 143.961 34.5813 146.857 33.7004C151.286 32.3533 152.609 32.1383 155.187 32.3467C159.863 32.7248 161.61 33.833 161.216 36.1711C160.959 37.6928 159.684 39.0858 155.721 42.1747C153.89 43.602 152.365 44.9296 152.332 45.1251C152.242 45.662 153.427 46.9947 154.343 47.3873C154.79 47.5783 155.206 47.766 155.27 47.8045C155.333 47.8427 156.902 47.8172 158.755 47.7478L158.755 47.7477ZM253.693 62.9703C256.109 61.8257 258.435 60.2302 258.532 59.6501C258.631 59.0585 256.872 57.6747 255.132 56.9759C252.933 56.0925 249.51 59.0349 248.968 62.2742C248.748 63.5842 248.778 63.6126 250.426 63.6661C251.351 63.6961 252.821 63.3831 253.693 62.9703V62.9703ZM201.99 54.0218C203.783 53.2209 208.921 49.3883 209.13 48.6954C209.705 46.7882 210.138 44.4356 209.921 44.3992C209.363 44.306 201.775 50.2641 200.449 51.8359C199.203 53.314 198.847 54.7155 199.683 54.8508C199.865 54.8804 200.903 54.5072 201.99 54.0219L201.99 54.0218ZM103.205 36.107C104.358 35.8256 106.193 35.186 107.281 34.6856C108.368 34.1851 110.386 33.4663 111.763 33.0882C113.141 32.7101 115.033 31.922 115.967 31.3369C117.636 30.2921 117.653 30.2586 116.932 29.464C115.419 27.7946 109.765 28.8893 104.583 31.855C101.835 33.4277 100.706 34.4972 100.47 35.7515C100.293 36.6895 100.634 36.7337 103.205 36.1069L103.205 36.107ZM174.858 44.2384C178.18 42.8769 179.994 40.8529 178.817 39.822C178.385 39.4437 172.603 43.4354 172.475 44.2002C172.364 44.8628 173.299 44.8778 174.858 44.2384V44.2384ZM259.688 56.638C259.583 56.3816 259.117 56.1079 258.652 56.0301C258.187 55.9523 257.892 56.0985 257.997 56.3551C258.102 56.6115 258.568 56.8851 259.033 56.9629C259.498 57.0408 259.792 56.8946 259.688 56.638ZM257.106 44.9826C259.377 44.0242 264.087 40.3225 265.985 38.005C268.022 35.519 267.98 33.2539 265.892 32.9157C264.486 32.6884 263.1 33.1462 257.915 35.5509C255.117 36.8489 248.386 41.2767 249.044 41.3868C250.564 41.6411 254.858 40.0183 257.564 38.1663C260.42 36.2122 263.006 35.0327 264.05 35.2075C265.176 35.396 265.663 36.4878 264.987 37.3079C264.261 38.1877 260.521 40.187 258.362 40.8484C255.223 41.8106 252.92 44.1062 253.824 45.3731C254.246 45.9647 254.988 45.8764 257.106 44.9826Z" fill="white"/>
</svg>
