<svg width="503" height="506" viewBox="0 0 503 506" fill="none" xmlns="http://www.w3.org/2000/svg">
<path opacity="0.5" fill-rule="evenodd" clip-rule="evenodd" d="M119 29H49C37.9543 29 29 37.9543 29 49V457C29 468.046 37.9543 477 49 477H454C465.046 477 474 468.046 474 457V49C474 37.9543 465.046 29 454 29H160V31H454C463.941 31 472 39.0589 472 49V457C472 466.941 463.941 475 454 475H49C39.0589 475 31 466.941 31 457V49C31 39.0589 39.0589 31 49 31H119V29Z" fill="white"/>
<path opacity="0.6" fill-rule="evenodd" clip-rule="evenodd" d="M84 66H419C428.941 66 437 74.0589 437 84V422C437 431.941 428.941 440 419 440H84C74.0589 440 66 431.941 66 422V193H64V422C64 433.046 72.9543 442 84 442H419C430.046 442 439 433.046 439 422V84C439 72.9543 430.046 64 419 64H84C72.9543 64 64 72.9543 64 84V161H66V84C66 74.0589 74.0589 66 84 66Z" fill="white"/>
<path opacity="0.7" fill-rule="evenodd" clip-rule="evenodd" d="M118 100H385C394.941 100 403 108.059 403 118V387C403 396.941 394.941 405 385 405H232V407H385C396.046 407 405 398.046 405 387V118C405 106.954 396.046 98 385 98H118C106.954 98 98 106.954 98 118V387C98 398.046 106.954 407 118 407H192V405H118C108.059 405 100 396.941 100 387V118C100 108.059 108.059 100 118 100Z" fill="white"/>
<path opacity="0.8" fill-rule="evenodd" clip-rule="evenodd" d="M151 135H348C357.941 135 366 143.059 366 153V209H368V153C368 141.954 359.046 133 348 133H151C139.954 133 131 141.954 131 153V352C131 363.046 139.954 372 151 372H348C359.046 372 368 363.046 368 352V249H366V352C366 361.941 357.941 370 348 370H151C141.059 370 133 361.941 133 352V153C133 143.059 141.059 135 151 135Z" fill="white"/>
<path opacity="0.9" fill-rule="evenodd" clip-rule="evenodd" d="M189 174H310C319.941 174 328 182.059 328 192V314C328 323.941 319.941 332 310 332H272V334H310C321.046 334 330 325.046 330 314V192C330 180.954 321.046 172 310 172H189C177.954 172 169 180.954 169 192V314C169 325.046 177.954 334 189 334H232V332H189C179.059 332 171 323.941 171 314V192C171 182.059 179.059 174 189 174Z" fill="white"/>
<path fill-rule="evenodd" clip-rule="evenodd" d="M232 209H226C214.954 209 206 217.954 206 229V277C206 288.046 214.954 297 226 297H273C284.046 297 293 288.046 293 277V229C293 217.954 284.046 209 273 209H272V211H273C282.941 211 291 219.059 291 229V277C291 286.941 282.941 295 273 295H226C216.059 295 208 286.941 208 277V229C208 219.059 216.059 211 226 211H232V209Z" fill="white"/>
<path opacity="0.4" fill-rule="evenodd" clip-rule="evenodd" d="M371 0H20C8.95431 0 0 8.9543 0 20V486C0 497.046 8.9543 506 20 506H483C494.046 506 503 497.046 503 486V20C503 8.95431 494.046 0 483 0H405V2H483C492.941 2 501 10.0589 501 20V486C501 495.941 492.941 504 483 504H20C10.0589 504 2 495.941 2 486V20C2 10.0589 10.0589 2 20 2H371V0Z" fill="white"/>
<line x1="139" y1="15.5" x2="388" y2="15.5" stroke="#3E67C7" stroke-width="5"/>
<line x1="209" y1="388.5" x2="388" y2="388.5" stroke="#3E67C7" stroke-width="5"/>
<line x1="45" y1="46.5" x2="139" y2="46.5" stroke="#3E67C7" stroke-width="5"/>
<line x1="252" y1="190.5" x2="309" y2="190.5" stroke="#3E67C7" stroke-width="5"/>
<line x1="250" y1="313.5" x2="313" y2="313.5" stroke="#3E67C7" stroke-width="5"/>
<line x1="45" y1="174.5" x2="81" y2="174.5" stroke="#3E67C7" stroke-width="5"/>
<line x1="252" y1="351.5" x2="350" y2="351.5" stroke="#3E67C7" stroke-width="5"/>
<line x1="345" y1="228.5" x2="388" y2="228.5" stroke="#3E67C7" stroke-width="5"/>
<line x1="79" y1="423.5" x2="214" y2="423.5" stroke="#3E67C7" stroke-width="5"/>
<line x1="250.5" y1="188" x2="250.5" y2="252" stroke="#3E67C7" stroke-width="5"/>
<line x1="347.5" y1="227" x2="347.5" y2="349" stroke="#3E67C7" stroke-width="5"/>
<line x1="385.5" y1="230" x2="385.5" y2="386" stroke="#3E67C7" stroke-width="5"/>
<line x1="81.5" y1="172" x2="81.5" y2="426" stroke="#3E67C7" stroke-width="5"/>
<line x1="141.5" y1="18" x2="141.5" y2="49" stroke="#3E67C7" stroke-width="5"/>
<line x1="252.5" y1="315" x2="252.5" y2="354" stroke="#3E67C7" stroke-width="5"/>
<line x1="211.5" y1="391" x2="211.5" y2="422" stroke="#3E67C7" stroke-width="5"/>
<line x1="47.5" y1="49" x2="47.5" y2="177" stroke="#3E67C7" stroke-width="5"/>
<line x1="310.5" y1="188" x2="310.5" y2="315" stroke="#3E67C7" stroke-width="5"/>
</svg>
